<svg id="5cd12651-5ea0-4cf4-afa4-51070f1c507f" data-name="Layer 1" xmlns="http://www.w3.org/2000/svg" viewBox="0 0 1920 415.4"><title>Artboard 21</title><rect y="-0.3" width="1920" height="415.7" style="fill:#fbfaef"/><line x1="960" y1="81.2" x2="960" y2="244.9" style="fill:none;stroke:#283745;stroke-miterlimit:10"/><rect x="1037.1" y="81.9" width="29.4" height="6.26" style="fill:#283745"/><text transform="translate(1037.1 122.5)" style="font-size:24.98784065246582px;fill:#283745;font-family:RobotoSlab-Regular, Roboto Slab">Studio Bia<tspan x="121.4" y="0" style="letter-spacing:-0.004885188528203376em">n</tspan><tspan x="137.3" y="0">co</tspan></text><text transform="translate(1037.1 152.4)" style="font-size:16.658559799194336px;fill:#283745;font-family:HelveticaNeue-Light, Helvetica Neue">Indirizzo<tspan x="0" y="28.7" style="letter-spacing:-0.11097194684197166em">T</tspan><tspan x="7.4" y="28.7">elefono</tspan><tspan x="0" y="57.4">Email</tspan><tspan x="0" y="86.1">Fax</tspan></text><path d="M808.4,194.6c-40.7,0-74.2-30.9-74.5-31.3a1,1,0,0,1-.4-.7,1.2,1.2,0,0,1,.4-.8c.3-.3,33.8-31.2,74.5-31.2s74.2,30.9,74.5,31.2a1.2,1.2,0,0,1,.4.8,1,1,0,0,1-.4.7C882.6,163.7,849.1,194.6,808.4,194.6Zm-72.2-32c5.4,4.7,35.9,29.8,72.2,29.8s66.7-25.1,72.2-29.8c-5.5-4.8-35.9-29.9-72.2-29.9S741.6,157.8,736.2,162.6Z" style="fill:#283745"/><path d="M882.2,163.6H734.6a1,1,0,0,1-1.1-1,1.1,1.1,0,0,1,1.1-1.1H882.2a1.1,1.1,0,0,1,1.1,1.1A1,1,0,0,1,882.2,163.6Z" style="fill:#283745"/><path d="M808.4,194.6c-17.4,0-31.6-14.4-31.6-32a31.6,31.6,0,1,1,63.1,0C839.9,180.2,825.8,194.6,808.4,194.6Zm0-61.9c-16.2,0-29.4,13.4-29.4,29.9a29.4,29.4,0,1,0,58.8,0C837.8,146.1,824.6,132.7,808.4,132.7Z" style="fill:#283745"/><path d="M802.1,163.6a1.1,1.1,0,0,1-1.1-1,1.1,1.1,0,0,1,1.1-1.1,14.1,14.1,0,1,0,0-28.2,1.1,1.1,0,0,1-1.1-1,1.1,1.1,0,0,1,1.1-1.1,16.2,16.2,0,0,1,0,32.4Z" style="fill:#283745"/><path d="M802.1,193.9a1.1,1.1,0,0,1-1.1-1,1.1,1.1,0,0,1,1.1-1.1,14.1,14.1,0,1,0,0-28.2,1.1,1.1,0,0,1-1.1-1,1.1,1.1,0,0,1,1.1-1.1,16.2,16.2,0,0,1,0,32.4Z" style="fill:#283745"/><path d="M802.1,193.9a1.1,1.1,0,0,1-1.1-1V132.3a1.1,1.1,0,0,1,1.1-1.1,1.1,1.1,0,0,1,1,1.1v60.6A1.1,1.1,0,0,1,802.1,193.9Z" style="fill:#283745"/><path d="M749,112.6h0a3.9,3.9,0,0,1,5.3-5.7h.1a3.9,3.9,0,0,1,.1,5.5A3.8,3.8,0,0,1,749,112.6Zm4.2-4.5h0a2.2,2.2,0,0,0-3.2.1,2.2,2.2,0,0,0,.1,3.2h0a2.4,2.4,0,0,0,3.3-.1A2.2,2.2,0,0,0,753.2,108.1Z" style="fill:#283745"/><path d="M756.6,99.9l2.3-1.7a3.6,3.6,0,0,1,5.4.5h0a3.6,3.6,0,0,1-.9,5.3l-2.3,1.8Zm2.2.2,2.7,3.5,1-.7a2.1,2.1,0,0,0,.5-3.1h-.1a2.1,2.1,0,0,0-3.1-.4Z" style="fill:#283745"/><path d="M769.1,95.7h0a3.8,3.8,0,0,1,1.7-5.2,3.9,3.9,0,0,1,5.3,1.6h0a3.8,3.8,0,0,1-1.8,5.2A3.8,3.8,0,0,1,769.1,95.7Zm5.5-2.9h0a2.3,2.3,0,0,0-3.1-1,2.1,2.1,0,0,0-.9,3h0a2.3,2.3,0,1,0,4-2.1Z" style="fill:#283745"/><path d="M780.5,86.2l1.5-.5,4.7,3.3-1.4-4.3,1.5-.5,2.3,7-1.3.5-4.9-3.4,1.4,4.5-1.5.4Z" style="fill:#283745"/><path d="M795.5,83.9l-2.2.3-.3-1.4,6.1-1,.2,1.5-2.2.4.9,5.8-1.6.2Z" style="fill:#283745"/><path d="M804.8,85h0a4,4,0,0,1,7.9.1h0a4,4,0,0,1-7.9-.1Zm6.2.1h0a2.3,2.3,0,0,0-2.2-2.4,2.3,2.3,0,0,0-2.3,2.3h0a2.3,2.3,0,1,0,4.5.1Z" style="fill:#283745"/><path d="M819.2,82.1l1.6.2-1,7.3-1.7-.2Z" style="fill:#283745"/><path d="M830,84.2l1.5.4,1,8.1-1.7-.5-.2-1.8-3-.8L826.5,91l-1.6-.5Zm.5,4.7-.3-2.6-1.6,2Z" style="fill:#283745"/><path d="M840.3,89.5l-2-.9.6-1.4,5.6,2.5-.6,1.4-2.1-.9-2.4,5.4-1.5-.7Z" style="fill:#283745"/><path d="M850.1,92.8l2.8,1.8a3.2,3.2,0,0,1,1.4,1.8,2.4,2.4,0,0,1-.4,1.8h0a2.3,2.3,0,0,1-2.6,1.1v3.2l-1.6-1V98.6l-1.1-.7-1.3,2L846,99Zm.8,4.8a1.1,1.1,0,0,0,1.6-.2h0c.4-.6.2-1.2-.5-1.6l-1.4-.9-1.1,1.8Z" style="fill:#283745"/><path d="M860.4,100.2l1.2,1-4.8,5.7-1.2-1.1Z" style="fill:#283745"/><path d="M868.4,107.8l1,1.1-3.4,7.3-1.2-1.2.8-1.7-2.1-2.3-1.7.6-1.1-1.2Zm-2.1,4.1,1.1-2.3-2.4.9Z" style="fill:#283745"/><path d="M747.2,205.8l1.1,1.4-1.3,3.5,3.7-.4,1.1,1.4-5.9,4.5-1-1.2,3.8-3-3.8.3h0l1.2-3.6-3.8,3-1-1.3Z" style="fill:#283745"/><path d="M754.4,214.5l4,3.9-1,1-2.8-2.7-1.1,1.1,2.5,2.4-1,1-2.5-2.4-1.1,1.1,2.9,2.8-1,1.1-4-4Z" style="fill:#283745"/><path d="M761.1,220.7l2.4,1.8a3.7,3.7,0,0,1,.9,5.3h0a3.7,3.7,0,0,1-5.4.6l-2.3-1.7Zm.5,2.2-2.7,3.6,1,.7a2.1,2.1,0,0,0,3.1-.4h0a2.2,2.2,0,0,0-.4-3.2Z" style="fill:#283745"/><path d="M769.6,226.6l1.4.8-3.8,6.4-1.4-.8Z" style="fill:#283745"/><path d="M772.4,232.5h0a3.7,3.7,0,0,1,5.1-1.8,3.6,3.6,0,0,1,2.2,2.2l-1.4.7a2.8,2.8,0,0,0-1.4-1.6,2.2,2.2,0,0,0-2.9,1.2h0a2.3,2.3,0,0,0,.9,3.1,3.3,3.3,0,0,0,2.2,0l.5,1.4a3.8,3.8,0,0,1-3.3-.1A3.8,3.8,0,0,1,772.4,232.5Z" style="fill:#283745"/><path d="M783.3,233.1l1.6.6-2.4,7-1.6-.6Z" style="fill:#283745"/><path d="M788.5,234.8l1.4.4,2.4,5.2,1-4.5,1.6.4-1.7,7.2-1.3-.3-2.5-5.4-1,4.6-1.6-.3Z" style="fill:#283745"/><path d="M801.3,237.1h1.5l2.5,7.7-1.7-.2-.5-1.7-3.1-.2-.8,1.6-1.7-.2Zm1.3,4.4-.7-2.4-1.2,2.3Z" style="fill:#283745"/><path d="M814.1,237.3l5.5-.6.2,1.4-4,.4.2,1.5,3.5-.4v1.5l-3.4.4V243l4-.4.2,1.4-5.6.6Z" style="fill:#283745"/><path d="M824,242.3l.7-1.3a3.4,3.4,0,0,0,2.4.3c.6-.1,1-.5.9-.9h0c-.1-.4-.4-.6-1.7-.6s-2.6-.2-2.9-1.6h0a2.3,2.3,0,0,1,2-2.8,4.1,4.1,0,0,1,2.9.3l-.6,1.4a3.6,3.6,0,0,0-2-.3c-.6.1-.9.5-.8.8h0c.1.4.5.5,1.8.5s2.5.4,2.8,1.7h0c.3,1.4-.6,2.5-2.1,2.9A5.1,5.1,0,0,1,824,242.3Z" style="fill:#283745"/><path d="M833.6,234.7l-2.1.8-.6-1.5,5.8-2,.5,1.4-2.1.7,2,5.6-1.5.5Z" style="fill:#283745"/><path d="M839.7,230.6l5-2.5.7,1.3-3.6,1.8.7,1.3,3.1-1.5.7,1.3-3.1,1.5.7,1.4,3.6-1.8.6,1.3-5,2.6Z" style="fill:#283745"/><path d="M850,226.6l-1.8,1.3-.9-1.3,5.1-3.4.9,1.3-1.9,1.2,3.3,4.9-1.4.9Z" style="fill:#283745"/><path d="M854.9,221.2l1.3-1,4.7,5.7-1.3,1.1Z" style="fill:#283745"/><path d="M861.5,220.6h0a3.7,3.7,0,0,1,0-5.4,3.8,3.8,0,0,1,2.9-1.3v1.6a2.5,2.5,0,0,0-1.9.7,2.2,2.2,0,0,0,.1,3.2h0a2.2,2.2,0,0,0,3.2.1,2.5,2.5,0,0,0,.7-2h1.5a3.8,3.8,0,0,1-1.2,3.1A3.7,3.7,0,0,1,861.5,220.6Z" style="fill:#283745"/><path d="M867.4,208.5l1-1.2,7.8,2-1,1.4-1.8-.5-1.9,2.5,1,1.5-1,1.4Zm4.6,1.3-2.6-.7,1.4,2.3Z" style="fill:#283745"/><path d="M769,120l1.8-2a6.1,6.1,0,0,0,3.6,1.3c.8,0,1.3-.3,1.3-.8h0c0-.5-.4-.7-1.9-1.1s-4.2-1.2-4.2-3.4h0c0-2,1.6-3.5,4.3-3.5a7.6,7.6,0,0,1,4.6,1.4l-1.6,2.2a5.6,5.6,0,0,0-3.1-1.1c-.8,0-1.1.3-1.1.7h0c0,.5.4.7,1.9,1s4.2,1.4,4.2,3.5h0c0,2.3-1.8,3.7-4.5,3.7A8.2,8.2,0,0,1,769,120Z" style="fill:#283745"/><path d="M785.8,113.3h-3.3v-2.7h9.7v2.7h-3.3v8.4h-3.1Z" style="fill:#283745"/><path d="M796.6,116.8v-6.2h3.1v6.1c0,1.6.9,2.4,2.1,2.4a2,2,0,0,0,2.1-2.3v-6.2H807v6.1c0,3.6-2.1,5.2-5.2,5.2S796.6,120.3,796.6,116.8Z" style="fill:#283745"/><path d="M812,110.6h4.3c3.9,0,6.2,2.2,6.2,5.5h0c0,3.2-2.3,5.6-6.3,5.6H812Zm3.1,2.7v5.6h1.2c1.9,0,3.1-1,3.1-2.8h0c0-1.8-1.2-2.8-3.1-2.8Z" style="fill:#283745"/><path d="M827.4,110.6h3.1v11.1h-3.1Z" style="fill:#283745"/><path d="M835.3,116.1h0a6,6,0,0,1,12,0h0a6,6,0,0,1-12,0Zm8.8,0h0a2.8,2.8,0,1,0-5.6,0h0a2.8,2.8,0,0,0,2.8,3A2.8,2.8,0,0,0,844.1,116.1Z" style="fill:#283745"/><path d="M771,203.7h5.4a3.8,3.8,0,0,1,2.8.9,2.4,2.4,0,0,1,.7,1.7h0a2.4,2.4,0,0,1-1.6,2.3,2.7,2.7,0,0,1,2,2.6h0c0,1.8-1.4,2.9-3.9,2.9H771Zm6,3.2c0-.6-.4-.9-1.3-.9h-1.9v1.8h1.9c.8,0,1.3-.3,1.3-.9Zm-1,2.9h-2.2v1.9h2.3c.9,0,1.3-.3,1.3-.9h0C777.4,210.2,777,209.8,776,209.8Z" style="fill:#283745"/><path d="M784.7,203.7h2.9v10.4h-2.9Z" style="fill:#283745"/><path d="M796,203.6h2.8l4.4,10.5h-3.1l-.7-1.9h-4l-.8,1.9h-3Zm2.5,6.4-1.1-3-1.2,3Z" style="fill:#283745"/><path d="M807.2,203.7h2.6l4.3,5.5v-5.5H817v10.4h-2.5l-4.5-5.7v5.7h-2.8Z" style="fill:#283745"/><path d="M821.4,208.9h0a5.3,5.3,0,0,1,5.5-5.4,5.2,5.2,0,0,1,4.4,2.1l-2.2,1.7a2.9,2.9,0,0,0-2.3-1.2,2.5,2.5,0,0,0-2.4,2.7h0a2.5,2.5,0,0,0,2.4,2.7,3,3,0,0,0,2.4-1.2l2.2,1.5a5.2,5.2,0,0,1-4.6,2.4A5.3,5.3,0,0,1,821.4,208.9Z" style="fill:#283745"/><path d="M834.9,208.9h0a5.6,5.6,0,0,1,11.2-.1h0a5.6,5.6,0,0,1-11.2,0Zm8.2,0h0a2.6,2.6,0,0,0-2.6-2.8,2.5,2.5,0,0,0-2.6,2.7h0a2.6,2.6,0,1,0,5.2,0Z" style="fill:#283745"/><text transform="translate(915.2 338.7)" style="font-size:24.98784065246582px;fill:#283745;font-family:RobotoSlab-Regular, Roboto Slab">Pri<tspan x="34.4" y="0" style="letter-spacing:-0.007347323546417878em">v</tspan><tspan x="48.2" y="0" style="letter-spacing:0.00003908150822562701em">acy</tspan></text></svg>