<svg xmlns="http://www.w3.org/2000/svg" viewBox="0 0 214 201">
    <title>bg-logo-header</title>
    <g id="c5d9b15b-020f-45c0-9bb5-703c0ca15941" data-name="bg-logo-header">
        <path id="777f1913-3fc7-43af-8901-ea374dd59e47" data-name="bg" d="M213.2,0V83.7c0,64.5-44.4,116.8-99.2,116.8H99.2C44.4,200.5,0,148.2,0,83.7V0Z" style="fill: #fbfaef"/>
    </g>
    <g id="f0a8f3aa-ac1d-424a-8940-2f3d494e8c62" data-name="logo">
        <path
            id="fd08ebd0-0928-460f-8fce-00260f914d48"
            data-name="Logo"
            d="M181.7,101h.1c0-.1.1-.3.1-.4s-.1-.3-.1-.4h-.1l-.2-.3h0c-.3-.3-32.9-30.3-72.8-31.2h-3.4c-39.9.9-72.5,30.9-72.8,31.2h0l-.2.3h-.1c0,.1-.1.2-.1.4s.1.3.1.4h.1a.2.2,0,0,0,.2.2h0c.3.3,32.9,30.3,72.8,31.1h3.4c39.9-.8,72.5-30.8,72.8-31.1h0A.2.2,0,0,0,181.7,101ZM178,99.4H138.5A32,32,0,0,0,121,71.8C148.8,76.6,171.2,93.7,178,99.4Zm-100.4,0a29.8,29.8,0,0,1,22-27.8V99.4Zm22,2.1v27.9a30,30,0,0,1-22-27.9Zm2.1,28.2V101.6a14.1,14.1,0,0,1,0,28.1Zm0-58.4a14.1,14.1,0,0,1,0,28.1ZM75.5,99.4H36c6.8-5.7,29.2-22.8,57-27.6A32,32,0,0,0,75.5,99.4Zm0,2.1A32,32,0,0,0,93,129.1c-27.8-4.7-50.2-21.9-57-27.6Zm41.3,14.1a16.3,16.3,0,0,0-8.2-14.1h27.8a29.6,29.6,0,0,1-29,28.8A16.1,16.1,0,0,0,116.8,115.6Zm-8.2-16.2a16.2,16.2,0,0,0-1.2-28.8,29.8,29.8,0,0,1,29,28.8Zm29.9,2.1H178c-6.8,5.7-29.2,22.9-57,27.6A32,32,0,0,0,138.5,101.5ZM47.6,50.6h0a3.9,3.9,0,0,1,5.3-5.7H53a4,4,0,0,1-5.4,5.8ZM51.8,46h0a2.3,2.3,0,1,0-3.1,3.3h.1a2.2,2.2,0,0,0,3.2-.1A2.2,2.2,0,0,0,51.8,46Zm3.4-8.2,2.3-1.7c1.9-1.4,4.1-1.2,5.4.5h0A3.7,3.7,0,0,1,62,42l-2.3,1.7Zm2.2.2,2.7,3.5,1-.7a2.1,2.1,0,0,0,.5-3.1h0a2.2,2.2,0,0,0-3.2-.5Zm10.3-4.4h0a3.8,3.8,0,0,1,1.7-5.2,3.9,3.9,0,0,1,5.3,1.6h0A3.8,3.8,0,0,1,73,35.1,3.8,3.8,0,0,1,67.7,33.6Zm5.5-2.9h0a2.3,2.3,0,0,0-3.1-1,2.1,2.1,0,0,0-.9,3h0a2.3,2.3,0,1,0,4-2.1Zm6-6.6,1.4-.5,4.7,3.3-1.4-4.3,1.5-.5,2.3,7.1-1.3.4-4.9-3.4,1.4,4.5-1.5.5Zm14.9-2.3-2.2.3-.3-1.4,6.1-1,.2,1.5-2.2.4.9,5.8-1.6.2Zm9.3,1.1h0a4,4,0,0,1,7.9.1h0a4,4,0,0,1-7.9-.1Zm6.2.1h0a2.3,2.3,0,0,0-2.2-2.4,2.3,2.3,0,0,0-2.3,2.3h0a2.3,2.3,0,1,0,4.5.1Zm8.2-3,1.6.2-1,7.3-1.7-.2Zm10.8,2.1,1.5.4,1,8.1-1.7-.5-.2-1.8-3-.8-1.1,1.4-1.6-.5Zm.5,4.7-.3-2.6-1.6,2Zm9.8.6-2-.9.6-1.4,5.6,2.6-.6,1.3-2.1-.9L138,33.5l-1.5-.7Zm9.8,3.3,2.8,1.8a3.1,3.1,0,0,1,1.4,1.9,2.3,2.3,0,0,1-.4,1.7h0a2.3,2.3,0,0,1-2.6,1.1v3.2l-1.6-1V36.5l-1.1-.7-1.3,2-1.4-.9Zm.8,4.8a1.1,1.1,0,0,0,1.6-.2h0c.4-.6.2-1.2-.5-1.6l-1.4-.9-1.1,1.8Zm9.5,2.6,1.2,1-4.8,5.7-1.2-1.1Zm8,7.6,1,1.1-3.4,7.3-1.2-1.2.8-1.7-2.1-2.3-1.7.6-1.1-1.2Zm-2.1,4.2,1.1-2.4-2.4.9Zm-97.2,8,1.7-2A5.5,5.5,0,0,0,73,57.2c.8,0,1.3-.3,1.3-.7h0c0-.5-.4-.7-1.9-1.1s-4.2-1.2-4.2-3.4h0c0-2,1.6-3.5,4.3-3.5a7.6,7.6,0,0,1,4.6,1.4l-1.6,2.2a5.6,5.6,0,0,0-3.1-1.1c-.7,0-1.1.3-1.1.7h0c0,.5.4.7,1.9,1.1s4.2,1.3,4.2,3.4h0c0,2.3-1.8,3.7-4.5,3.7A7.3,7.3,0,0,1,67.7,57.9Zm16.7-6.7H81.1V48.5h9.7v2.7H87.5v8.4H84.4Zm10.8,3.5V48.5h3.1v6.1c0,1.6.9,2.4,2.1,2.4s2.1-.7,2.1-2.3V48.5h3.1v6.1c0,3.6-2.1,5.2-5.2,5.2S95.2,58.2,95.2,54.7Zm15.4-6.2h4.3c3.9,0,6.2,2.2,6.2,5.5h0c0,3.2-2.3,5.6-6.3,5.6h-4.2Zm3.1,2.7v5.6h1.2c1.9,0,3.1-1,3.1-2.8h0c0-1.8-1.2-2.8-3.1-2.8ZM126,48.5h3.1V59.6H126Zm7.9,5.6h0a5.9,5.9,0,0,1,6-5.8,5.8,5.8,0,0,1,6,5.8h0a6,6,0,0,1-12,.1Zm8.8,0h0a2.8,2.8,0,1,0-5.6,0h0a2.8,2.8,0,0,0,2.8,3A2.8,2.8,0,0,0,142.7,54.1ZM45.8,143.7l1.1,1.4-1.3,3.5,3.7-.4,1.1,1.4-5.9,4.5-1-1.2,3.8-3-3.7.3h-.1l1.2-3.6-3.8,3-.9-1.3Zm7.2,8.7,4,3.9-1,1-2.8-2.7-1.1,1.1,2.5,2.4-1,1-2.5-2.4L50,157.8l2.9,2.8-1,1.1-4-4Zm6.7,6.2,2.4,1.8a3.7,3.7,0,0,1,.9,5.3h0a3.7,3.7,0,0,1-5.4.6l-2.3-1.7Zm.5,2.2-2.7,3.6,1,.7a2.1,2.1,0,0,0,3.1-.4h0a2.2,2.2,0,0,0-.4-3.2Zm8,3.7,1.4.8-3.8,6.4-1.4-.8Zm2.8,5.9h0a3.7,3.7,0,0,1,5.1-1.8,3.6,3.6,0,0,1,2.2,2.2l-1.4.7a2.8,2.8,0,0,0-1.4-1.6,2.2,2.2,0,0,0-2.9,1.2h0a2.3,2.3,0,0,0,.9,3.1,3.3,3.3,0,0,0,2.2,0l.5,1.4a3.8,3.8,0,0,1-3.3-.1A3.8,3.8,0,0,1,71,170.4Zm10.9.6,1.6.6-2.4,7-1.6-.5Zm5.2,1.7,1.4.4,2.4,5.2,1-4.4,1.6.3-1.6,7.2-1.4-.3-2.4-5.4L87,180.3l-1.6-.3ZM99.9,175h1.5l2.5,7.7-1.7-.2-.5-1.7-3.1-.2-.8,1.6-1.7-.2Zm1.3,4.5-.7-2.5-1.2,2.3Zm11.5-4.3,5.5-.6.2,1.4-3.9.4v1.5l3.5-.4.2,1.5-3.5.4.2,1.5,4-.4v1.4l-5.6.6Zm9.9,5,.7-1.3a3.4,3.4,0,0,0,2.4.3c.6-.1,1-.5.9-.9h0c-.1-.4-.4-.5-1.7-.6s-2.6-.2-2.9-1.6h0a2.3,2.3,0,0,1,2-2.8,4.1,4.1,0,0,1,2.9.3l-.6,1.4a3.6,3.6,0,0,0-2-.3c-.6.1-.9.5-.8.8h0c.1.4.5.5,1.8.6s2.5.3,2.8,1.6h0c.3,1.4-.6,2.5-2.1,2.9A5.1,5.1,0,0,1,122.6,180.2Zm9.6-7.6-2.1.8-.5-1.5,5.7-2,.5,1.4-2.1.7,2,5.6-1.5.6Zm6.1-4.1,5-2.5.7,1.3-3.6,1.8.7,1.3,3.1-1.5.7,1.3-3.1,1.5.7,1.4,3.6-1.8.6,1.3-5,2.6Zm10.3-4-1.8,1.3-.9-1.3,5.1-3.4.9,1.3-1.9,1.2,3.3,4.9-1.4.9Zm4.9-5.4,1.3-1,4.7,5.7-1.3,1.1Zm6.6-.6h0a3.7,3.7,0,0,1,0-5.4,3.8,3.8,0,0,1,2.9-1.3v1.6a2.5,2.5,0,0,0-1.9.7,2.2,2.2,0,0,0,.1,3.2h0a2.2,2.2,0,0,0,3.2.1,2.5,2.5,0,0,0,.7-2h1.5a3.8,3.8,0,0,1-1.2,3A3.7,3.7,0,0,1,160.1,158.5Zm5.9-12.1,1-1.2,7.8,2-1,1.4-1.7-.5-1.9,2.5.9,1.6-1,1.3Zm4.6,1.3L168,147l1.4,2.3ZM69.7,141.6H75a3.8,3.8,0,0,1,2.8.9,2.4,2.4,0,0,1,.7,1.7h0a2.4,2.4,0,0,1-1.6,2.3,2.7,2.7,0,0,1,2,2.6h0c0,1.8-1.4,2.9-3.9,2.9H69.7Zm5.9,3.2c0-.6-.4-.9-1.3-.9H72.5v1.8h1.8c.8,0,1.3-.3,1.3-.9Zm-1,2.9H72.5v2h2.2c.9,0,1.4-.4,1.4-1h0C76.1,148.1,75.6,147.7,74.6,147.7Zm8.7-6.1h2.9V152H83.3Zm11.3-.1h2.8l4.4,10.5H98.7l-.7-1.9H94l-.8,1.9h-3Zm2.5,6.4-1.1-3-1.2,3Zm8.7-6.3h2.7l4.2,5.5v-5.5h2.9V152h-2.5l-4.5-5.7V152h-2.8Zm14.2,5.2h0a5.3,5.3,0,0,1,5.5-5.4,5.2,5.2,0,0,1,4.4,2.1l-2.2,1.7a2.9,2.9,0,0,0-2.2-1.2,2.6,2.6,0,0,0-2.5,2.8h0a2.6,2.6,0,0,0,2.5,2.8,3,3,0,0,0,2.3-1.3l2.2,1.5a5.2,5.2,0,0,1-4.6,2.4A5.3,5.3,0,0,1,120,146.8Zm13.5,0h0a5.6,5.6,0,0,1,11.2,0h0a5.6,5.6,0,0,1-11.2,0Zm8.3,0h0a2.7,2.7,0,0,0-2.7-2.8,2.6,2.6,0,0,0-2.6,2.8h0a2.6,2.6,0,0,0,2.6,2.8A2.7,2.7,0,0,0,141.8,146.8Z"
            style="fill: #283745"/>
    </g>
</svg>
