<svg xmlns="http://www.w3.org/2000/svg" viewBox="0 0 214 201">
    <title>bg-logo-header</title>
    <g id="c12efa14-8344-4f15-8114-2108f1e33566" data-name="bg-logo-header">
        <path id="334be85e-1f51-407a-9f62-c436ea155901" data-name="bg" d="M213.18,0V83.74c0,64.49-44.42,116.77-99.21,116.77H99.22C44.42,200.51,0,148.23,0,83.74V0Z" style="fill: #f6f5ea"/>
    </g>
    <g id="2fe6d439-f45f-49aa-9c3c-8f791df6562a" data-name="Logo">
        <g>
            <g>
                <path
                    d="M107.39,132.55c-40.7,0-74.19-30.89-74.52-31.2a1.05,1.05,0,0,1,0-1.55c.33-.31,33.82-31.2,74.52-31.2s74.2,30.89,74.53,31.2a1.05,1.05,0,0,1,0,1.55C181.59,101.66,148.1,132.55,107.39,132.55Zm-72.21-32c5.46,4.76,35.95,29.86,72.21,29.86s66.76-25.09,72.22-29.86c-5.46-4.76-36-29.86-72.22-29.86S40.64,95.81,35.18,100.57Z"
                    style="fill: #283745"/>
                <path d="M181.2,101.63H33.59a1.06,1.06,0,1,1,0-2.12H181.2a1.06,1.06,0,1,1,0,2.12Z" style="fill: #283745"/>
                <path d="M107.39,132.56a32,32,0,1,1,31.56-32A31.81,31.81,0,0,1,107.39,132.56Zm0-61.84a29.86,29.86,0,1,0,29.43,29.85A29.67,29.67,0,0,0,107.39,70.72Z" style="fill: #283745"/>
                <g>
                    <path d="M101.05,101.61a1,1,0,1,1,0-2.07,14.12,14.12,0,0,0,0-28.23,1,1,0,1,1,0-2.08,16.19,16.19,0,0,1,0,32.38Z" style="fill: #283745"/>
                    <path d="M101.05,131.91a1,1,0,1,1,0-2.07,14.12,14.12,0,0,0,0-28.23,1,1,0,1,1,0-2.07,16.19,16.19,0,1,1,0,32.37Z" style="fill: #283745"/>
                    <path d="M101.05,131.91a1,1,0,0,1-1-1V70.27a1,1,0,0,1,2.08,0v60.61A1,1,0,0,1,101.05,131.91Z" style="fill: #283745"/>
                </g>
            </g>
            <g>
                <path d="M48,50.65l0,0a3.94,3.94,0,0,1,5.36-5.78h0A3.94,3.94,0,0,1,48,50.65Zm4.21-4.52,0,0a2.25,2.25,0,0,0-3.23.06,2.21,2.21,0,0,0,.17,3.2h0a2.24,2.24,0,0,0,3.23-.05A2.21,2.21,0,0,0,52.21,46.13Z" style="fill: #283745"/>
                <path d="M55.63,37.91l2.3-1.75a3.69,3.69,0,0,1,5.36.54v0a3.7,3.7,0,0,1-.88,5.33l-2.3,1.75Zm2.19.18,2.7,3.55,1-.76A2.1,2.1,0,0,0,62,37.77v0a2.13,2.13,0,0,0-3.13-.42Z" style="fill: #283745"/>
                <path d="M68.11,33.66v0a3.94,3.94,0,0,1,7-3.66v0a3.93,3.93,0,0,1-7,3.66Zm5.46-2.85v0a2.24,2.24,0,0,0-3.06-1,2.21,2.21,0,0,0-.9,3.07v0a2.25,2.25,0,0,0,3.06,1A2.21,2.21,0,0,0,73.57,30.81Z" style="fill: #283745"/>
                <path d="M79.55,24.18,81,23.73,85.68,27l-1.39-4.35,1.53-.49,2.25,7.07-1.32.42-4.85-3.4,1.43,4.49-1.53.49Z" style="fill: #283745"/>
                <path d="M94.48,21.9l-2.23.34L92,20.75l6.07-.93.22,1.49-2.23.34.9,5.84-1.61.25Z" style="fill: #283745"/>
                <path d="M103.82,23v0a3.94,3.94,0,0,1,7.87.11v0a3.84,3.84,0,0,1-4,3.77A3.79,3.79,0,0,1,103.82,23Zm6.17.11v0a2.26,2.26,0,0,0-2.21-2.37A2.22,2.22,0,0,0,105.52,23v0a2.26,2.26,0,0,0,2.2,2.37A2.23,2.23,0,0,0,110,23.13Z" style="fill: #283745"/>
                <path d="M118.19,20.07l1.61.23-1,7.33-1.61-.23Z" style="fill: #283745"/>
                <path d="M129,22.21l1.44.41,1,8.05-1.64-.47-.2-1.78-3-.86L125.5,29l-1.6-.46Zm.45,4.66-.29-2.58-1.6,2Z" style="fill: #283745"/>
                <path d="M139.34,27.52l-2.05-.92.62-1.37,5.59,2.52-.62,1.37-2-.93-2.42,5.38-1.49-.66Z" style="fill: #283745"/>
                <path
                    d="M149.07,30.79l2.84,1.85a2.92,2.92,0,0,1,1.4,1.81,2.27,2.27,0,0,1-.39,1.76v0a2.3,2.3,0,0,1-2.58,1.06l.08,3.21-1.6-1,0-2.86-1.08-.69-1.29,2L145,37Zm.79,4.81a1.08,1.08,0,0,0,1.62-.2v0c.38-.58.17-1.15-.49-1.58l-1.36-.88-1.16,1.78Z"
                    style="fill: #283745"/>
                <path d="M159.39,38.18l1.25,1.06-4.81,5.64-1.24-1.06Z" style="fill: #283745"/>
                <path d="M167.4,45.76l1,1.12L165,54.22,163.83,53l.78-1.62L162.52,49l-1.69.6-1.11-1.24ZM165.29,50l1.14-2.34-2.45.87Z" style="fill: #283745"/>
            </g>
            <g>
                <path d="M46.18,143.83l1.08,1.39L46,148.68l3.67-.4,1.08,1.38-5.83,4.58-1-1.28,3.81-3-3.78.31,0,0,1.19-3.56-3.78,3-1-1.26Z" style="fill: #283745"/>
                <path d="M53.41,152.51l4,3.89-1,1-2.85-2.76-1,1.08L55,158.19l-1,1-2.51-2.43-1.08,1.12,2.88,2.79-1,1-4.06-3.93Z" style="fill: #283745"/>
                <path d="M60.13,158.72l2.32,1.73a3.69,3.69,0,0,1,1,5.31v0a3.72,3.72,0,0,1-5.38.62l-2.32-1.73Zm.43,2.16-2.67,3.58,1,.76a2.13,2.13,0,0,0,3.12-.44v0a2.14,2.14,0,0,0-.46-3.13Z" style="fill: #283745"/>
                <path d="M68.57,164.6l1.41.83-3.78,6.38L64.8,171Z" style="fill: #283745"/>
                <path
                    d="M71.42,170.54v0a3.76,3.76,0,0,1,5.11-1.85,3.81,3.81,0,0,1,2.17,2.27l-1.44.64A2.73,2.73,0,0,0,75.9,170,2.2,2.2,0,0,0,73,171.22v0a2.2,2.2,0,0,0,1,3,2.7,2.7,0,0,0,2.14,0l.5,1.38a3.8,3.8,0,0,1-3.32-.07A3.75,3.75,0,0,1,71.42,170.54Z"
                    style="fill: #283745"/>
                <path d="M82.32,171.13l1.54.53-2.41,7-1.54-.53Z" style="fill: #283745"/>
                <path d="M87.48,172.84l1.46.33,2.37,5.22,1-4.44,1.56.35-1.64,7.22-1.36-.3-2.44-5.39-1,4.59-1.57-.36Z" style="fill: #283745"/>
                <path d="M100.3,175.06l1.5.12,2.54,7.71-1.7-.15L102.1,181,99,180.77l-.82,1.6-1.65-.14Zm1.34,4.49-.78-2.48-1.18,2.31Z" style="fill: #283745"/>
                <path d="M113.08,175.27l5.55-.62.16,1.44-3.94.44L115,178l3.47-.39.16,1.44-3.47.39.17,1.55,4-.45.16,1.44-5.61.63Z" style="fill: #283745"/>
                <path
                    d="M123,180.32l.68-1.35a3.32,3.32,0,0,0,2.36.37c.65-.15,1-.5.88-.92v0c-.1-.4-.39-.55-1.67-.58-1.54,0-2.58-.21-2.91-1.65v0a2.31,2.31,0,0,1,2-2.76,4.26,4.26,0,0,1,2.9.29l-.55,1.39a3.44,3.44,0,0,0-2-.28c-.61.15-.87.5-.78.85v0c.11.47.46.56,1.78.58,1.55,0,2.5.38,2.8,1.63v0c.34,1.43-.57,2.49-2.12,2.85A4.71,4.71,0,0,1,123,180.32Z"
                    style="fill: #283745"/>
                <path d="M132.58,172.69l-2.12.77L130,172l5.78-2.09.51,1.42-2.12.76,2,5.56-1.53.56Z" style="fill: #283745"/>
                <path d="M138.73,168.63l5-2.52.65,1.3-3.54,1.79.67,1.34,3.13-1.57.65,1.29-3.12,1.58.7,1.39,3.59-1.82.66,1.3-5,2.54Z" style="fill: #283745"/>
                <path d="M149,164.61l-1.88,1.25-.83-1.25,5.1-3.4.84,1.25-1.88,1.25,3.28,4.91-1.36.9Z" style="fill: #283745"/>
                <path d="M153.94,159.21l1.27-1,4.68,5.74-1.27,1Z" style="fill: #283745"/>
                <path d="M160.49,158.61h0a3.78,3.78,0,0,1,0-5.45,3.86,3.86,0,0,1,2.88-1.25l.11,1.58a2.75,2.75,0,0,0-1.94.75,2.2,2.2,0,0,0,.11,3.15h0a2.2,2.2,0,0,0,3.16.14,2.69,2.69,0,0,0,.77-2h1.47a3.91,3.91,0,0,1-6.6,3.06Z" style="fill: #283745"/>
                <path d="M166.44,146.52l.91-1.2,7.86,2-1,1.36-1.73-.47-1.9,2.49.91,1.55-1,1.32ZM171,147.8l-2.51-.68,1.32,2.24Z" style="fill: #283745"/>
            </g>
            <g>
                <path
                    d="M68.05,58,69.76,56a5.73,5.73,0,0,0,3.61,1.34c.84,0,1.28-.29,1.28-.76v0c0-.47-.36-.71-1.89-1.08-2.36-.54-4.19-1.2-4.19-3.48v0c0-2.06,1.64-3.56,4.31-3.56a7,7,0,0,1,4.57,1.48L75.91,52a5.48,5.48,0,0,0-3.11-1.1c-.75,0-1.12.3-1.12.72v0c0,.51.38.73,1.94,1.08,2.54.55,4.13,1.38,4.13,3.46v0c0,2.28-1.79,3.63-4.49,3.63A7.76,7.76,0,0,1,68.05,58Z"
                    style="fill: #283745"/>
                <path d="M84.82,51.26H81.5V48.55h9.73v2.71H87.9v8.42H84.82Z" style="fill: #283745"/>
                <path d="M95.63,54.8V48.55h3.11v6.19c0,1.6.81,2.36,2.05,2.36s2.07-.73,2.07-2.29V48.55H106v6.17c0,3.57-2,5.16-5.21,5.16S95.63,58.28,95.63,54.8Z" style="fill: #283745"/>
                <path d="M111,48.55h4.3c4,0,6.26,2.29,6.26,5.5v0c0,3.21-2.33,5.6-6.32,5.6H111Zm3.08,2.72v5.67h1.25c1.86,0,3.09-1,3.09-2.81v0c0-1.78-1.23-2.83-3.09-2.83Z" style="fill: #283745"/>
                <path d="M126.39,48.55h3.08V59.68h-3.08Z" style="fill: #283745"/>
                <path d="M134.31,54.15v0a5.83,5.83,0,0,1,6-5.79,5.77,5.77,0,0,1,6,5.75v0a6,6,0,0,1-12,0Zm8.82,0v0a2.87,2.87,0,0,0-2.85-3,2.83,2.83,0,0,0-2.82,3v0a2.89,2.89,0,0,0,2.86,3A2.84,2.84,0,0,0,143.13,54.15Z" style="fill: #283745"/>
            </g>
            <g>
                <path
                    d="M70.05,141.69h5.32a3.86,3.86,0,0,1,2.83.92,2.34,2.34,0,0,1,.66,1.69v0a2.4,2.4,0,0,1-1.6,2.31,2.51,2.51,0,0,1,2.06,2.53v0c0,1.78-1.45,2.86-3.92,2.86H70.05Zm6,3.2c0-.58-.46-.89-1.3-.89H72.85v1.82h1.8c.88,0,1.38-.29,1.38-.9Zm-1,3H72.85v1.91h2.22c.89,0,1.38-.34,1.38-.95v0C76.45,148.21,76,147.84,75,147.84Z"
                    style="fill: #283745"/>
                <path d="M83.68,141.69h2.88v10.37H83.68Z" style="fill: #283745"/>
                <path d="M95,141.61h2.78l4.41,10.45H99.11l-.74-1.87h-4l-.74,1.87h-3ZM97.52,148,96.37,145,95.2,148Z" style="fill: #283745"/>
                <path d="M106.16,141.69h2.69l4.26,5.48v-5.48H116v10.37h-2.5L109,146.37v5.69h-2.85Z" style="fill: #283745"/>
                <path d="M120.42,146.9v0a5.32,5.32,0,0,1,5.46-5.4,5.1,5.1,0,0,1,4.4,2.15l-2.17,1.67a2.81,2.81,0,0,0-2.26-1.21,2.58,2.58,0,0,0-2.48,2.76v0a2.57,2.57,0,0,0,2.48,2.77,2.84,2.84,0,0,0,2.34-1.26l2.16,1.54a5.45,5.45,0,0,1-9.93-3Z" style="fill: #283745"/>
                <path d="M133.92,146.9v0a5.45,5.45,0,0,1,5.61-5.4,5.39,5.39,0,0,1,5.57,5.37v0a5.59,5.59,0,0,1-11.18,0Zm8.23,0v0a2.68,2.68,0,0,0-2.65-2.81,2.65,2.65,0,0,0-2.64,2.78v0a2.7,2.7,0,0,0,2.67,2.8A2.65,2.65,0,0,0,142.15,146.9Z" style="fill: #283745"/>
            </g>
        </g>
    </g>
    <g id="dd99b555-0013-4f20-86cf-7218d865681d" data-name="logo">
        <path
            id="fccd01a0-0dd5-48e4-9dee-64f826c6e4e0"
            data-name="Logo"
            d="M181.73,101l.05-.06a1.14,1.14,0,0,0,0-.84s0,0-.05-.07a1,1,0,0,0-.19-.27,0,0,0,0,1,0,0c-.33-.31-32.9-30.33-72.84-31.17-.56,0-1.12-.05-1.69-.05s-1.13,0-1.69.05C65.37,69.38,32.8,99.4,32.47,99.71a0,0,0,0,1,0,0,1,1,0,0,0-.19.27s0,.05-.05.07a1.14,1.14,0,0,0,0,.84s0,0,.05.07a1.2,1.2,0,0,0,.19.27,0,0,0,0,1,0,0c.33.31,32.9,30.33,72.84,31.17.56,0,1.12,0,1.69,0s1.13,0,1.69,0c39.94-.84,72.51-30.86,72.84-31.17a0,0,0,0,1,0,0A1.07,1.07,0,0,0,181.73,101ZM178,99.42H138.53A32,32,0,0,0,121,71.84C148.84,76.56,171.21,93.75,178,99.42Zm-100.38,0a29.81,29.81,0,0,1,22-27.84V99.42Zm22,2.12v27.84a29.83,29.83,0,0,1-22-27.84Zm2.07,28.15V101.57a14.1,14.1,0,0,1,0,28.12Zm0-58.42a14.1,14.1,0,0,1,0,28.12ZM75.47,99.42H36c6.76-5.67,29.13-22.86,57-27.58A32,32,0,0,0,75.47,99.42Zm0,2.12A32,32,0,0,0,93,129.12c-27.82-4.72-50.19-21.91-57-27.58Zm41.38,14.09a16.2,16.2,0,0,0-8.25-14.09h27.8a29.66,29.66,0,0,1-29,28.78A16.21,16.21,0,0,0,116.85,115.63ZM108.6,99.42a16.16,16.16,0,0,0-1.18-28.78,29.66,29.66,0,0,1,29,28.78Zm29.93,2.12H178c-6.77,5.67-29.14,22.86-57,27.58A32,32,0,0,0,138.53,101.54Zm-90.93-51h0A3.84,3.84,0,0,1,47.48,45a3.79,3.79,0,0,1,5.46-.27h0a3.94,3.94,0,0,1-5.36,5.78ZM51.81,46h0a2.26,2.26,0,0,0-3.24,0,2.22,2.22,0,0,0,.18,3.2v0A2.26,2.26,0,0,0,52,49.23,2.22,2.22,0,0,0,51.81,46Zm3.42-8.22,2.3-1.75a3.71,3.71,0,0,1,5.37.54v0A3.7,3.7,0,0,1,62,42l-2.3,1.76Zm2.19.19,2.71,3.55,1-.77a2.11,2.11,0,0,0,.44-3.11l0,0a2.13,2.13,0,0,0-3.13-.42Zm10.29-4.44v0a3.94,3.94,0,0,1,7-3.65h0A3.83,3.83,0,0,1,73,35.12,3.79,3.79,0,0,1,67.71,33.56Zm5.47-2.85v0a2.26,2.26,0,0,0-3.06-1,2.22,2.22,0,0,0-.91,3.08v0a2.25,2.25,0,0,0,3.07,1A2.21,2.21,0,0,0,73.18,30.71Zm6-6.62,1.43-.46,4.7,3.3-1.39-4.35,1.54-.49,2.25,7.06-1.32.43-4.85-3.41,1.43,4.5-1.54.48ZM94.09,21.8l-2.23.34-.23-1.48,6.07-.93.23,1.49-2.23.34.89,5.83L95,27.64Zm9.33,1.13v0a3.94,3.94,0,0,1,7.88.11v0a3.94,3.94,0,0,1-7.88-.11Zm6.17.1v0a2.26,2.26,0,0,0-2.2-2.37,2.22,2.22,0,0,0-2.26,2.27v0a2.25,2.25,0,0,0,2.2,2.36A2.22,2.22,0,0,0,109.59,23Zm8.2-3.06,1.62.23-1,7.34-1.62-.23Zm10.82,2.14,1.45.42,1,8-1.64-.46-.19-1.79-3-.86-1.11,1.42-1.6-.46Zm.45,4.67-.28-2.58-1.61,2Zm9.89.65-2.06-.93.62-1.37,5.6,2.52L142.49,29l-2.05-.92L138,33.48l-1.48-.67Zm9.73,3.27,2.84,1.84a3,3,0,0,1,1.4,1.81,2.35,2.35,0,0,1-.39,1.77h0a2.29,2.29,0,0,1-2.58,1.07l.07,3.2-1.6-1,0-2.85-1.07-.7-1.29,2-1.37-.89Zm.79,4.8a1.07,1.07,0,0,0,1.62-.19v0c.38-.59.17-1.15-.5-1.59l-1.36-.88-1.16,1.79ZM159,38.08l1.24,1.06-4.8,5.64-1.24-1.05Zm8,7.58,1,1.12-3.44,7.35-1.14-1.27.79-1.61-2.1-2.34-1.69.61-1.11-1.24Zm-2.1,4.19L166,47.51l-2.44.87ZM67.65,57.93l1.72-2A5.77,5.77,0,0,0,73,57.21c.85,0,1.29-.28,1.29-.76v0c0-.48-.37-.72-1.89-1.08-2.37-.54-4.19-1.21-4.19-3.48v0c0-2.07,1.63-3.56,4.3-3.56a7,7,0,0,1,4.58,1.48l-1.55,2.17a5.42,5.42,0,0,0-3.11-1.09c-.75,0-1.11.3-1.11.71v0c0,.51.38.73,1.94,1.08,2.54.56,4.13,1.39,4.13,3.47v0c0,2.27-1.8,3.62-4.5,3.62A7.81,7.81,0,0,1,67.65,57.93Zm16.77-6.77H81.1v-2.7h9.74v2.7H87.5v8.42H84.42ZM95.23,54.7V48.46h3.12v6.18c0,1.6.81,2.37,2.05,2.37s2.06-.73,2.06-2.29V48.46h3.12v6.16c0,3.58-2,5.17-5.21,5.17S95.23,58.18,95.23,54.7Zm15.34-6.24h4.31c4,0,6.26,2.29,6.26,5.5v0c0,3.21-2.34,5.59-6.32,5.59h-4.25Zm3.09,2.72v5.67h1.25c1.86,0,3.08-1,3.08-2.81v0c0-1.77-1.22-2.82-3.08-2.82ZM126,48.46h3.08V59.58H126Zm7.93,5.59v0a6,6,0,0,1,12,0v0a5.83,5.83,0,0,1-6,5.78A5.77,5.77,0,0,1,133.92,54.05Zm8.81,0v0a2.84,2.84,0,1,0-5.67,0v0a2.89,2.89,0,0,0,2.86,3A2.82,2.82,0,0,0,142.73,54.05ZM45.78,143.74l1.09,1.38-1.27,3.47,3.67-.4,1.09,1.38-5.83,4.57-1-1.27,3.8-3-3.78.32,0,0,1.19-3.56-3.78,3-1-1.26ZM53,152.41l4,3.89-1,1-2.85-2.77-1.05,1.08,2.51,2.43-1,1-2.51-2.43L50,157.82l2.89,2.8-1,1-4-3.92Zm6.73,6.22,2.32,1.73a3.69,3.69,0,0,1,.95,5.31h0a3.7,3.7,0,0,1-5.37.62l-2.32-1.73Zm.43,2.15-2.67,3.59,1,.75a2.11,2.11,0,0,0,3.11-.44l0,0a2.12,2.12,0,0,0-.46-3.12Zm8,3.72,1.4.83-3.77,6.38-1.41-.83ZM71,170.45v0a3.77,3.77,0,0,1,5.12-1.85,3.83,3.83,0,0,1,2.17,2.26l-1.45.65a2.77,2.77,0,0,0-1.36-1.56,2.19,2.19,0,0,0-2.92,1.2v0a2.19,2.19,0,0,0,1,3,2.63,2.63,0,0,0,2.13,0l.5,1.39a3.78,3.78,0,0,1-3.31-.08A3.74,3.74,0,0,1,71,170.45Zm10.9.59,1.54.53-2.4,7-1.55-.53Zm5.16,1.7,1.47.34,2.37,5.22,1-4.45,1.57.36-1.65,7.22-1.35-.31-2.45-5.39-1,4.59L85.44,180ZM99.9,175l1.5.13,2.54,7.7-1.7-.14-.53-1.71-3.13-.27-.81,1.6-1.66-.14Zm1.35,4.49-.78-2.48-1.19,2.32Zm11.43-4.27,5.56-.62.16,1.44-4,.44.17,1.49,3.47-.38.16,1.44-3.47.38.17,1.55,4-.44.16,1.44-5.61.62Zm10,5,.67-1.34a3.45,3.45,0,0,0,2.36.37c.65-.15,1-.5.89-.93v0c-.09-.4-.39-.55-1.67-.57-1.54,0-2.57-.22-2.91-1.65v0a2.32,2.32,0,0,1,2-2.77,4.25,4.25,0,0,1,2.9.29l-.54,1.39a3.55,3.55,0,0,0-2-.27c-.61.14-.86.49-.78.84v0c.11.47.45.55,1.78.58,1.55,0,2.5.37,2.79,1.63v0c.33,1.43-.57,2.49-2.13,2.86A4.7,4.7,0,0,1,122.65,180.22Zm9.54-7.63-2.12.77-.52-1.41,5.78-2.09.51,1.41-2.12.77,2,5.56-1.53.55Zm6.14-4.05,5-2.52.65,1.29-3.55,1.79.68,1.35,3.12-1.58.65,1.3-3.12,1.57.71,1.39,3.59-1.81.65,1.29-5,2.55Zm10.31-4-1.87,1.25-.84-1.25,5.11-3.4.83,1.25L150,163.61l3.27,4.91-1.35.91Zm4.91-5.39,1.26-1,4.68,5.75-1.26,1Zm6.55-.6,0,0a4,4,0,0,1,2.91-6.69l.11,1.58a2.7,2.7,0,0,0-1.93.74,2.19,2.19,0,0,0,.11,3.15v0a2.2,2.2,0,0,0,3.17.13,2.67,2.67,0,0,0,.76-2h1.48a3.8,3.8,0,0,1-1.22,3.08A3.74,3.74,0,0,1,160.1,158.52Zm6-12.1.91-1.19,7.86,2-1,1.35-1.74-.47-1.9,2.49.92,1.55-1,1.32Zm4.51,1.28-2.51-.67,1.31,2.24ZM69.65,141.59H75a3.89,3.89,0,0,1,2.83.92,2.32,2.32,0,0,1,.67,1.69v0a2.4,2.4,0,0,1-1.6,2.31,2.53,2.53,0,0,1,2.06,2.54v0c0,1.78-1.45,2.86-3.93,2.86H69.65Zm6,3.21c0-.58-.46-.89-1.31-.89H72.45v1.82h1.81c.87,0,1.38-.3,1.38-.91Zm-1,2.94h-2.2v1.92h2.23c.88,0,1.37-.35,1.37-.95v0C76.05,148.11,75.61,147.74,74.65,147.74Zm8.64-6.15h2.87V152H83.29Zm11.32-.07h2.77L101.8,152H98.71L98,150.1H94L93.22,152h-3Zm2.52,6.34L96,144.93l-1.17,2.93Zm8.64-6.27h2.68l4.27,5.49v-5.49h2.85V152h-2.51l-4.44-5.69V152h-2.85ZM120,146.81v0a5.31,5.31,0,0,1,5.45-5.39,5.12,5.12,0,0,1,4.4,2.14l-2.16,1.68a2.82,2.82,0,0,0-2.27-1.22,2.58,2.58,0,0,0-2.47,2.76v0a2.56,2.56,0,0,0,2.47,2.77,2.82,2.82,0,0,0,2.34-1.26l2.17,1.54a5.45,5.45,0,0,1-9.93-3Zm13.5,0v0a5.59,5.59,0,0,1,11.17,0v0a5.59,5.59,0,0,1-11.17,0Zm8.22,0v0a2.65,2.65,0,1,0-5.29,0v0a2.7,2.7,0,0,0,2.67,2.8A2.64,2.64,0,0,0,141.75,146.81Z"
            style="fill: #283745"/>
    </g>
</svg>
