<svg xmlns="http://www.w3.org/2000/svg" xmlns:xlink="http://www.w3.org/1999/xlink" viewBox="0 0 303.69 393.85">
    <defs>
        <clipPath id="f70e5fa1-aa35-41f2-841a-33ad57ab4991">
            <path
                d="M258,288h0l.1-.12Zm.74-3.13a7.42,7.42,0,0,1-.34,1.06,6.89,6.89,0,0,1-.4.82,10.7,10.7,0,0,1-.69,1.06c-.27.34-.66.77-1,1.09s-.66.62-.95.87-.56.44-.81.63-.62.43-.89.61-.86.51-1.24.72l-1.18.59c-.41.19-1,.43-1.39.59a29.21,29.21,0,0,1-2.87.95c-1.67.45-3.08.68-3.1.68-1,.14-2.27.3-3.25.4-.5,0-1.17.07-1.67.09s-1.17,0-1.67,0-1.17,0-1.67-.05-1.71-.09-3.31-.33a32.36,32.36,0,0,1-3.22-.62c-.45-.11-1.05-.27-1.49-.41s-1.1-.34-1.56-.51a24.69,24.69,0,0,1-2.82-1.22c-.34-.19-.79-.42-1.12-.62s-.9-.56-1.27-.82-.59-.43-.82-.63l-1.75,13.67c1.28,16.93-1.91,5.75-1.94,6-2.24,19.94-7.46-12-7.58-12.34s-6.59-4.64-6.67-4.94c-.84-3.69-7.74-60.18-2.72-63,8.42-4.69,71.07-9.71,79.26-4.85C283.38,227.3,259.56,281.31,258.72,284.9Z"
                style="fill: none"/>
        </clipPath>
    </defs>
    <title>home-illustrazione-2</title>
    <g id="8e7b3dcd-98b0-4c85-8caa-14d8781f830f" data-name="home-illustrazione-2">
        <g>
            <g>
                <g>
                    <rect x="41.77" y="289" width="11.14" height="3.79" style="fill: #413d52"/>
                    <rect x="127.48" y="289" width="11.14" height="3.6" style="fill: #413d52"/>
                    <ellipse cx="90.19" cy="293.03" rx="48.42" ry="26.59" style="fill: #283745"/>
                    <ellipse cx="90.19" cy="288.27" rx="48.42" ry="26.59" style="fill: #eac88b"/>
                </g>
                <g>
                    <rect x="51.15" y="281" width="8.98" height="3.66" style="fill: #283745"/>
                    <rect x="120.26" y="281" width="8.98" height="3.83" style="fill: #283745"/>
                    <ellipse cx="90.19" cy="284.66" rx="39.04" ry="21.44" style="fill: #283745"/>
                    <ellipse cx="90.19" cy="279.1" rx="39.04" ry="21.44" style="fill: #eac88b"/>
                </g>
            </g>
            <g>
                <polygon points="90.19 282.14 83.63 278.35 83.63 93.17 90.19 96.95 90.19 282.14" style="fill: #283745"/>
                <polygon points="90.2 282.14 96.76 278.35 96.76 93.17 90.2 96.95 90.2 282.14" style="fill: #eac88b"/>
            </g>
            <g>
                <path d="M143.86,140s18.32,50.68-26.54,78.07-88.56-43.7-88.56-43.7S41,162.1,84.11,147,143.86,140,143.86,140Z" style="fill: #fff"/>
                <path d="M116.54,142.48s-8.54-4.66-8.15-29L66.05,105s5,45.25-10.1,55.35C56,160.35,106.44,172.39,116.54,142.48Z" style="fill: #fff"/>
                <path d="M112.78,129.22c-10.61,13.16-24.69,8.4-29.54,12.87s-6.32,20.39-5.15,23.11,6.6,7.76,16.7,10.09c0,0-14.76.39-26.8-9.32,0,0-30.47,9.29-31,18.82l-8.27-10.66s2.45-3,11.11-7.77,20-10.1,20-10.1a93,93,0,0,0,6.79-40.78Z" style="fill: #bfd3dd"/>
                <path d="M102,133.64s-23.11,1.85-42.92-24.57c-16.9-26.21-9.32-59.71-5.54-67s27.09-37,62.92-14.56c0,0,13.05,8.12,16.64,30.55a19.73,19.73,0,0,1-1.59,11.31Z" style="fill: #bfd3dd"/>
                <path d="M67.22,77.73c0,30.88,15.56,55.91,34.76,55.91,12.32,1.07,25.48-20.12,30.34-40.44,1.31-5.47.29-12.73.56-17.25C137.26,41,121.18,31.87,102,31.87S67.22,46.85,67.22,77.73Z" style="fill: #fff"/>
                <path d="M108.6,222.16s-26.53.11-44.3-11.12C43.55,197.92,31,173.23,28.76,174.33c-1.47,1.55-2.59,3.31-4.33,11.25C24.43,185.58,56.76,236.77,108.6,222.16Z" style="fill: #bfd3dd"/>
                <path d="M58.3,101.41s-10.14-4.2-13.06-9c0,0-4.81-9.76.6-12.48S57.39,92.11,57.39,92.11,57.05,98.42,58.3,101.41Z" style="fill: #bfd3dd"/>
            </g>
            <g>
                <g>
                    <ellipse cx="237.63" cy="327.01" rx="21.67" ry="11.31" style="fill: #ebb29d"/>
                    <g>
                        <path
                            d="M258.81,284.46c.59-3.45-1.37-7-5.92-9.73-8.19-4.85-21.66-5-30.09-.3h0c-5,2.79-7.12,6.66-6.27,10.36q1.83,7.93,3.65,15.89h6.4l-1.07-7.44c8,3.19,18.91,2.91,26.34-.9.56.27,1.1.55,1.62.86a18.75,18.75,0,0,1,2.12,1.47,10.2,10.2,0,0,0,3.74-5.43A7.3,7.3,0,0,0,258.81,284.46Z"
                            style="fill: #413d52"/>
                        <path
                            d="M255.4,305.32c-.35.31-.84.69-1.21,1a9.86,9.86,0,0,1-.92.62c-.37.23-.87.53-1.25.74l-1.18.59a25.61,25.61,0,0,1-2.72,1.07c-.44.13-1,.32-1.46.44s-1,.27-1.47.36-1.06.23-1.53.3c-.93.14-2.18.31-3.12.38-.48,0-1.12.09-1.6.09s-1.12,0-1.6,0-1.12,0-1.6,0c-.89,0-1.6-.12-3.17-.31,0,0-1.45-.2-3.1-.6-.44-.11-1-.27-1.45-.4s-1.07-.34-1.52-.5a24.7,24.7,0,0,1-2.79-1.21c-.34-.18-.8-.42-1.13-.62s-.92-.58-1.3-.85-.61-.44-.86-.65-.92-.82-1.29-1.19a9.65,9.65,0,0,1-.84-1l3.81,21.39c.34,1.93,1.78,3.81,4.32,5.32,6,3.54,15.83,3.64,22,.22C251.12,329,252.67,327,253,325L257,303.65A13,13,0,0,1,255.4,305.32Z"
                            style="fill: #fbfaef"/>
                        <path d="M256.55,294.14l-.29-.42c-1.27,4.11-2.65,8.19-3.84,12.32a16.35,16.35,0,0,0,1.58-1.12Z" style="fill: #fff"/>
                        <path d="M257,292.31l1.74-7.41c-.57,2.41-1.23,4.79-2,7.16Z" style="fill: #fff"/>
                        <path
                            d="M253.82,273.38c-8.69-5.15-23-5.29-31.92-.32h0c-5.32,3-7.54,7.06-6.64,11,.61,2.67,2.67,5.26,6.19,7.34,8.69,5.15,23,5.29,31.92.32,3.77-2.09,6-4.76,6.63-7.54C260.9,280.36,258.85,276.36,253.82,273.38ZM258.38,286a8.76,8.76,0,0,1-.39.82,10.79,10.79,0,0,1-.7,1.06c-.26.34-.65.77-1,1.09s-.65.62-.94.87-.57.44-.81.63-.62.43-.9.61-.85.51-1.23.72-.82.42-1.19.59-1,.43-1.38.59a30.12,30.12,0,0,1-2.87.95c-1.67.45-3.09.68-3.1.68-1,.14-2.28.3-3.26.4-.5,0-1.16.07-1.66.09s-1.18,0-1.68,0-1.17,0-1.67-.05-1.71-.09-3.31-.33c-.87-.12-2-.33-3.22-.62-.45-.11-1-.27-1.49-.41s-1.09-.34-1.56-.51a23.16,23.16,0,0,1-2.81-1.22c-.34-.19-.8-.42-1.13-.62s-.9-.56-1.27-.82-.58-.43-.82-.63a16.06,16.06,0,0,1-1.22-1.11c-.31-.34-.7-.8-1-1.17s-.39-.58-.55-.84a8.89,8.89,0,0,1-.46-1,8,8,0,0,1-.31-1c-.84-3.7,1.25-7.56,6.27-10.35,8.43-4.69,21.9-4.55,30.09.3,4.74,2.81,6.68,6.58,5.83,10.17A6.33,6.33,0,0,1,258.38,286Z"
                            style="fill: #fbfaef"/>
                        <path
                            d="M214,284.92a12,12,0,0,1-.14-1.46c0-.32,0-.73,0-1s.07-.51.11-.73.13-.59.2-.84.17-.52.26-.74a11.7,11.7,0,0,1,.7-1.47,15.65,15.65,0,0,1,1-1.51,14,14,0,0,1,1.23-1.33c.38-.34.88-.81,1.3-1.11s.73-.55,1.05-.76,1.06-.66,1.52-.93a.63.63,0,0,1,.6.06c-8.94,5-9.14,13.17-.45,18.32s23,5.29,31.92.32,9.14-13.17.45-18.32-23-5.29-31.92-.32a.63.63,0,0,0-.6-.06h0l1.35-.69c.48-.23,1.13-.51,1.63-.71a31.15,31.15,0,0,1,3.09-1c1.64-.46,3-.7,3.46-.78,1.62-.28,2.92-.39,3.55-.44s1.87-.14,3.58-.13c1.5,0,2.77.12,3.56.2a36.31,36.31,0,0,1,6.85,1.32,27.13,27.13,0,0,1,6.07,2.61A19.65,19.65,0,0,1,257,275.1c.27.22.62.52.87.77s.73.75,1,1.09a8.7,8.7,0,0,1,.6.76c.25.37.59.87.8,1.27a7.29,7.29,0,0,1,.37.74c.17.43.38,1,.51,1.44a10.39,10.39,0,0,1,.26,1.46c0,.25,0,.59,0,.84a8.41,8.41,0,0,1-.15,1.58c-.57,3.06-2.93,6-7.08,8.33-9.42,5.24-24.48,5.09-33.64-.34C216.69,290.74,214.5,287.87,214,284.92Z"
                            style="fill: #bfd3dd"/>
                        <path
                            d="M216.4,298.57,214,284.91c.52,2.95,2.72,5.83,6.6,8.13,9.16,5.43,24.22,5.58,33.64.34,4.15-2.31,6.52-5.28,7.08-8.34h0q-1.26,6.82-2.51,13.65c-.51,2.74-2.62,5.4-6.34,7.46-8.44,4.7-21.92,4.56-30.12-.3C218.84,303.79,216.87,301.22,216.4,298.57Z"
                            style="fill: #fbfaef"/>
                        <path
                            d="M252.44,306.15c-8.44,4.7-21.92,4.56-30.12-.3a15,15,0,0,1-4-3.35v1a9.65,9.65,0,0,0,.84,1c.37.37.89.85,1.29,1.19s.59.46.86.65.9.6,1.3.85.79.44,1.13.62A24.7,24.7,0,0,0,226.5,309c.45.16,1.06.36,1.52.5s1,.29,1.45.4c1.65.4,3.08.6,3.1.6,1.57.19,2.28.28,3.17.31.48,0,1.12,0,1.6,0s1.12,0,1.6,0,1.12-.05,1.6-.09c.94-.07,2.19-.24,3.12-.38.47-.07,1.07-.21,1.53-.3s1-.24,1.47-.36,1-.31,1.46-.44a25.61,25.61,0,0,0,2.72-1.07l1.18-.59c.38-.21.88-.51,1.25-.74a9.86,9.86,0,0,0,.92-.62c.37-.28.86-.66,1.21-1a13,13,0,0,0,1.57-1.67v-1.17A15.06,15.06,0,0,1,252.44,306.15Z"
                            style="fill: #ebb29d"/>
                    </g>
                </g>
                <g style="clip-path: url(#f70e5fa1-aa35-41f2-841a-33ad57ab4991)">
                    <g>
                        <g>
                            <g>
                                <path d="M241.54,315.1a1.34,1.34,0,0,1-1.23,0c-.35-.2-.34-.52,0-.71a1.36,1.36,0,0,1,1.24,0C241.89,314.59,241.89,314.91,241.54,315.1Z" style="fill: #373b47"/>
                                <polygon points="239.19 264.27 240.05 314.73 241.79 314.75 243.92 264.31 239.19 264.27" style="fill: #eac88b"/>
                                <path d="M243.9,264h0l-.2-13.54-4-.17-.53,13.65h0c-.13.42.09.88.65,1.21a3.72,3.72,0,0,0,3.36.05C243.8,264.86,244,264.41,243.9,264Z" style="fill: #fbfaef"/>
                                <path d="M243.14,251.23a3.14,3.14,0,0,1-2.83,0,.86.86,0,0,1,0-1.63,3.11,3.11,0,0,1,2.82,0A.86.86,0,0,1,243.14,251.23Z" style="fill: #413d52"/>
                                <path d="M243,251.14a2.76,2.76,0,0,1-2.49,0,.76.76,0,0,1,0-1.44,2.73,2.73,0,0,1,2.49,0A.76.76,0,0,1,243,251.14Z" style="fill: #ebb29d"/>
                                <path d="M240,250.57l-3.91-8.7s5.76-3.66,11.27.14c-.44,1-3.57,7.3-3.9,8.6Z" style="fill: #ebb29d"/>
                            </g>
                            <g>
                                <g>
                                    <path d="M241,333.78a1.64,1.64,0,0,1-1.49.14.45.45,0,0,1-.09-.85,1.67,1.67,0,0,1,1.49-.15A.46.46,0,0,1,241,333.78Z" style="fill: #373b47"/>
                                    <polygon points="231.49 273.22 239.2 333.53 241.29 333.33 237.16 272.65 231.49 273.22" style="fill: #eac88b"/>
                                    <path d="M237.08,272.26h0l-2-16.18-4.79.33,1.18,16.4h0c-.1.53.22,1,.94,1.37a4.46,4.46,0,0,0,4-.39C237.09,273.32,237.29,272.75,237.08,272.26Z" style="fill: #ebb29d"/>
                                    <ellipse cx="232.69" cy="256.28" rx="2.4" ry="1.39" transform="translate(-22.61 22.52) rotate(-5.28)" style="fill: #413d52"/>
                                    <path d="M234.28,257a3.3,3.3,0,0,1-3,.29c-.88-.4-1-1.17-.18-1.73a3.33,3.33,0,0,1,3-.28C235,255.67,235.06,256.45,234.28,257Z" style="fill: #bfd3dd"/>
                                </g>
                                <path d="M230.64,256.71s-.86-3-2.21-10.25l6.61-.65s0,8.9-.24,10.5Z" style="fill: #bfd3dd"/>
                            </g>
                            <g>
                                <path d="M229.46,274s-3.91,8.86-3.68,12.22l-5.08,1.44c-2.65-3.78-10-8.34-10-8.34l-3.09-11,18.79-5.32Z" style="fill: #eac88b"/>
                                <path d="M231.36,314.55c-1.43.41-8.57-11.51-9.66-15.33s-1.08-11.88-1.08-11.88l5.08-1.44s4.35,7.34,5.3,10.69S232.8,314.14,231.36,314.55Z" style="fill: #eac88b"/>
                                <polygon points="210.14 277.45 228.93 272.13 226.37 262.91 207.58 268.23 210.14 277.45" style="fill: #ebb29d"/>
                                <path d="M226.37,262.91c.19.67-3.86,2.4-9.05,3.87s-9.55,2.12-9.74,1.45,3.87-2.4,9-3.87S226.18,262.24,226.37,262.91Z" style="fill: #413d52"/>
                                <path d="M228.93,272.13c.19.66-3.86,2.4-9.05,3.87s-9.55,2.11-9.74,1.45,3.87-2.4,9.05-3.87S228.74,271.46,228.93,272.13Z" style="fill: #ebb29d"/>
                                <path d="M212.89,251.56c-4.82,1.37-8.59,2.58-8.61,2.5l3.88,13.71c.18.62,4.23,0,9.06-1.35s8.59-3,8.42-3.6l-3.89-13.71S217.72,250.2,212.89,251.56Z" style="fill: #bfd3dd"/>
                                <path d="M212.89,251.56l-8.61,2.5,3.88,13.71c.18.62,4.23,0,9.06-1.35s8.59-3,8.42-3.6l-3.89-13.71Zm9.53,11.84c.16.59-2.82,2-6.67,3s-7.11,1.5-7.28.9l-3.7-13.08,13.94-3.95h0Z" style="fill: #fbfaef"/>
                            </g>
                            <g>
                                <path d="M243,326.08a1.38,1.38,0,0,1-1.18-.35c-.28-.29-.19-.6.2-.69a1.36,1.36,0,0,1,1.18.36C243.5,325.68,243.4,326,243,326.08Z" style="fill: #373b47"/>
                                <polygon points="254.74 276.56 241.69 325.32 243.36 325.82 259.27 277.9 254.74 276.56" style="fill: #eac88b"/>
                                <path d="M259.34,277.58h0l3.53-13.08-3.78-1.25-4.25,13h0a1.07,1.07,0,0,0,.29,1.34,3.69,3.69,0,0,0,3.21,1C259,278.4,259.35,278,259.34,277.58Z" style="fill: #fbfaef"/>
                                <path d="M262.12,265.12a3.14,3.14,0,0,1-2.71-.82c-.61-.66-.41-1.36.46-1.56a3.14,3.14,0,0,1,2.71.81C263.2,264.21,263,264.91,262.12,265.12Z" style="fill: #413d52"/>
                                <path d="M262.63,264.63h0a14.19,14.19,0,0,0,2-4.28c.85-2.86.1-6.38.12-8.92-1.25,2.21-3.88,4.55-4.77,7.53a17.36,17.36,0,0,0-.71,4.55.93.93,0,0,0,.31.76A2.79,2.79,0,0,0,262,265a1,1,0,0,0,.61-.36h0Z" style="fill: #ebb29d"/>
                                <path d="M259.7,264.38a25.61,25.61,0,0,1,.93-5.29c.85-3.17,3.19-5,4.11-7.67a11.11,11.11,0,0,1-1.37,3,15.35,15.35,0,0,0-2.28,4.85,48.89,48.89,0,0,0-.92,5.44A1.07,1.07,0,0,1,259.7,264.38Z" style="fill: #413d52"/>
                            </g>
                        </g>
                        <g>
                            <path d="M242.67,320.09c-3.4-.52-3.25-4-2.47-9s5.64-28.59,5.64-28.59l4.56.7s-2.47,24.51-3.15,29S246.07,320.61,242.67,320.09Z" style="fill: #eac88b"/>
                            <path d="M249.63,284.08a3.69,3.69,0,0,1-3.31-.51c-.84-.67-.71-1.53.28-1.91a3.69,3.69,0,0,1,3.31.51C250.75,282.84,250.62,283.7,249.63,284.08Z" style="fill: #fbfaef"/>
                            <path d="M248.86,283.47a1.82,1.82,0,0,1-1.63-.25c-.42-.33-.36-.76.14-1a1.82,1.82,0,0,1,1.63.25C249.42,282.86,249.36,283.28,248.86,283.47Z" style="fill: #413d52"/>
                            <path d="M251.73,261.39l-.64-.1-3.26,21.33a.84.84,0,0,0,0,.39.25.25,0,0,0,.46.07.88.88,0,0,0,.14-.36Z" style="fill: #fbfaef"/>
                            <path d="M253.87,246.37c-.75-.12-4.23,7.93-4.66,10.71s1.72,5.22,1.72,5.22l.65.1s2.81-2,3.19-4.47S254.62,246.48,253.87,246.37Z" style="fill: #fbfaef"/>
                            <path d="M249.64,257.18c.39-2.56,3.36-9.55,4.42-10.59-.06-.13-.12-.21-.19-.22-.75-.12-4.23,7.93-4.66,10.71s1.72,5.22,1.72,5.22l.39.06A7.22,7.22,0,0,1,249.64,257.18Z" style="fill: #bfd3dd"/>
                        </g>
                    </g>
                </g>
            </g>
            <g>
                <g>
                    <path d="M121,345.12a1.92,1.92,0,0,0,1,1.58h0l0,0,.06,0,2.47-6.42v0a2,2,0,0,0-1.79.51A4.41,4.41,0,0,0,121,345.12Z" style="fill: #ebb29d"/>
                    <path d="M132.28,330.2A8.06,8.06,0,0,1,139,333c1.41,1.84.7,3.58-1.59,3.88a8,8,0,0,1-6.7-2.8C129.28,332.24,130,330.5,132.28,330.2Z" style="fill: #bfd3dd"/>
                    <polygon points="128.43 337.17 130.02 331.76 139.47 335.69 136.66 340.59 128.43 337.17" style="fill: #bfd3dd"/>
                    <path d="M128,337.12a11.13,11.13,0,0,1,9.27,3.87c1.95,2.55,1,4.95-2.2,5.37a11.13,11.13,0,0,1-9.27-3.87C123.8,339.94,124.78,337.54,128,337.12Z" style="fill: #bfd3dd"/>
                    <polygon points="133.48 355.04 138.06 344.42 124.97 338.92 120.44 349.45 133.48 355.04" style="fill: #bfd3dd"/>
                    <path d="M123.37,347.75a11.13,11.13,0,0,1,9.27,3.87c2,2.55,1,4.95-2.2,5.37a11.13,11.13,0,0,1-9.27-3.87C119.22,350.57,120.2,348.17,123.37,347.75Z" style="fill: #283745"/>
                    <polygon points="130.41 355.64 128.64 361.76 119.2 357.84 122.18 352.23 130.41 355.64" style="fill: #bfd3dd"/>
                    <path d="M124.08,351a7,7,0,0,1,5.83,2.43c1.22,1.6.61,3.11-1.38,3.38a7,7,0,0,1-5.83-2.43C121.47,352.76,122.09,351.25,124.08,351Z" style="fill: #bfd3dd"/>
                    <path d="M134.28,350.2a1.92,1.92,0,0,0,1,1.56l51.33,21.08c.59.24.69-.34,1.45-1a6.66,6.66,0,0,0,2.2-5.59c-.16-1,0-1.17-.6-1.37l-51.83-19.47v0A2,2,0,0,0,136,346,4.36,4.36,0,0,0,134.28,350.2Z" style="fill: #ebb29d"/>
                    <path d="M121.36,356.51a8,8,0,0,1,6.7,2.79c1.41,1.84.7,3.58-1.58,3.88a8,8,0,0,1-6.7-2.79C118.36,358.54,119.07,356.81,121.36,356.51Z" style="fill: #283745"/>
                </g>
                <path d="M190.73,366.72a8.86,8.86,0,0,1-2.32,5.51c-1.27,1.26-2.3.83-2.3-1a8.89,8.89,0,0,1,2.32-5.52C189.7,364.5,190.73,364.93,190.73,366.72Z" style="fill: #413d52"/>
            </g>
            <g>
                <path d="M116.1,384.79l43.54,3.31.21-1.83L116.32,383v0a5,5,0,0,0-2.35.75C114,384.05,115.74,384.77,116.1,384.79Z" style="fill: #bfd3dd"/>
                <g>
                    <path d="M159.23,384.73a7.25,7.25,0,0,1-.49,4.83c-.69,1.28-1.59,1.2-2-.19a7.23,7.23,0,0,1,.49-4.82C157.91,383.27,158.81,383.35,159.23,384.73Z" style="fill: #ebb29d"/>
                    <polygon points="184.93 393.83 157.7 390.45 158.4 383.67 185.94 385 184.93 393.83" style="fill: #ebb29d"/>
                    <path d="M187.05,386.4a9.49,9.49,0,0,1-.63,6.27c-.9,1.66-2.07,1.56-2.61-.24a9.36,9.36,0,0,1,.63-6.27C185.33,384.5,186.5,384.6,187.05,386.4Z" style="fill: #413d52"/>
                </g>
                <path d="M115.93,384.52a5.82,5.82,0,0,1-1.47-.6A9.76,9.76,0,0,1,116,384,.89.89,0,0,0,115.93,384.52Z" style="fill: #c3c7d4"/>
            </g>
        </g>
    </g>
</svg>
