<svg xmlns="http://www.w3.org/2000/svg" viewBox="0 0 378.81 65.88">
  <title>blueassistance</title>
  <g id="e709b944-c29f-440a-8f3a-c4a36fa14d8f" data-name="Livello 2">
    <g id="9dc7b0a0-8077-4344-815c-bc3d46f222df" data-name="Layer 1">
      <g>
        <g>
          <path d="M327.06,19.61V38.68l-20-20.86v28.9h4.07V27.6l19.71,20.55V19.61Zm-290,0V38a7.12,7.12,0,0,0,.09,1.39A10.07,10.07,0,0,0,48,47.35a9.77,9.77,0,0,0,9.08-9.71c0-5.58,0-11.16,0-16.75,0-.4-.05-.81-.08-1.26H53.27c0,.74,0,1.38,0,2-.09,5.57-.1,11.15-.29,16.72a5.05,5.05,0,0,1-3.74,4.87A6,6,0,0,1,42.77,42c-1.57-1.51-1.85-3.5-1.87-5.5,0-5.12,0-10.24,0-15.36,0-.49,0-1-.06-1.5Zm41.74,0H64V46.71H79a17.37,17.37,0,0,1,0-1.92c.14-1.18-.24-1.72-1.53-1.59a28.38,28.38,0,0,1-3.06,0H68.09V33.65H78.51V30.19c-.45,0-.82-.09-1.18-.1-2.7,0-5.4,0-8.09,0-.94,0-1.35-.24-1.3-1.25a44.43,44.43,0,0,0,0-4.47c0-1,.35-1.28,1.29-1.26,2.28.05,4.56,0,6.84,0,3.12,0,3.12,0,2.83-3.14A2.07,2.07,0,0,0,78.78,19.64Zm299.91,0H363.85V46.71h14.93c0-.76,0-1.42,0-2.06.1-1-.23-1.51-1.38-1.45-1.67.09-3.35,0-5,0H367.9V33.67h10.44V30H367.93V23.11h10.76ZM212.38,38.55c-1,.21-1.78.45-2.6.54-1.07.12-1.29.66-1.06,1.61a8.38,8.38,0,0,0,8.33,6.67c4.33,0,7.86-2.51,8.64-6.61.73-3.86.15-7-4.71-9.46-1.53-.76-3.17-1.3-4.71-2.05-1.16-.57-2.32-1.26-2.43-2.79a3.77,3.77,0,0,1,4.38-3.83,4.73,4.73,0,0,1,3.8,2.7l3-1.83c-1.87-4.39-7.66-5.94-11.93-3.3a6.66,6.66,0,0,0-.32,11.48,24.45,24.45,0,0,0,2.83,1.48,48.87,48.87,0,0,1,4.57,2.31,4.27,4.27,0,0,1,1.51,5.1,4.44,4.44,0,0,1-4.1,3c-2.36.06-3.89-.86-4.61-2.83C212.76,40.08,212.61,39.36,212.38,38.55Zm28.3.86c.7,6.06,6,9.39,11.61,7.45A8,8,0,0,0,258,40.08c.51-3.59-.69-6.54-4-8.3-1.76-.93-3.69-1.53-5.42-2.51a5.75,5.75,0,0,1-2.47-2.41c-.9-2.15,1.58-4.46,4.22-4.24a5,5,0,0,1,3.87,2.71l3.06-1.88A8.09,8.09,0,0,0,248.4,19c-3.12.45-5.91,2.88-6.45,5.6-.64,3.24.72,5.92,4,7.68,1,.55,2.12.94,3.17,1.44a24.13,24.13,0,0,1,3.07,1.6,4.34,4.34,0,0,1,1.63,5.29c-.7,2-2.45,3-4.84,3a4.32,4.32,0,0,1-4.06-3.42c-.13-.53-.25-1.06-.39-1.65Zm-53.49,0c1.08,5,2.95,7,7.24,7.83A8.78,8.78,0,0,0,204,42a7.94,7.94,0,0,0-3.58-10.28c-.88-.5-1.83-.88-2.76-1.31a29.4,29.4,0,0,1-3.76-1.78,2.93,2.93,0,0,1,.21-5.29,7.26,7.26,0,0,1,3-.6c1.75-.07,2.63,1.31,3.56,2.56l3.08-1.89c-3-5.65-9.95-5.41-13.31-2.22a6.58,6.58,0,0,0,.3,9.94,20.68,20.68,0,0,0,3.35,2c1.48.76,3.07,1.32,4.48,2.19a4.2,4.2,0,0,1,1.72,5.24,4.43,4.43,0,0,1-4.75,3.06,4.27,4.27,0,0,1-4.11-3.34c-.15-.56-.28-1.12-.43-1.73ZM358.31,40.7c-5.77,4.73-11.59,2.9-14.42.08a10.67,10.67,0,0,1-1.5-13.31,9.84,9.84,0,0,1,7.34-4.73c3.25-.42,5.91.87,8.58,2.7,0-1.4.08-2.57,0-3.72a1.88,1.88,0,0,0-.81-1.24,13.16,13.16,0,0,0-8.36-1.43,14.46,14.46,0,0,0-12.29,15.29,14.17,14.17,0,0,0,20.8,11.37,1.36,1.36,0,0,0,.66-.89C358.35,43.53,358.31,42.24,358.31,40.7Zm-87.16,6V44.91c0-6.7,0-13.39,0-20.09,0-1.37.43-1.79,1.75-1.7,1.51.09,3,0,4.61,0V19.63H261v3.51c1.63,0,3.16.06,4.68,0,1.25-.07,1.68.32,1.67,1.64-.07,6.79,0,13.58,0,20.36v1.63ZM33.54,43.22h-6c-2,0-2,0-2-1.94V19.61H21.77v27.1H33.54ZM235,46.79V19.62h-3.66V46.79Zm-50.2,0c-1.41,0-2.61.06-3.79,0-.33,0-.73-.48-.89-.83-.73-1.55-1.43-3.12-2.06-4.72a1.52,1.52,0,0,0-1.64-1.13c-3.21,0-6.43,0-9.64,0a1.48,1.48,0,0,0-1.59,1c-.69,1.62-1.41,3.23-2.23,4.79a1.92,1.92,0,0,1-1.27.88,28.18,28.18,0,0,1-3.37,0l13.48-29ZM167.35,36.4H176c-1.4-3.21-2.71-6.21-4-9.21l-.39,0ZM303.29,46.74c-4.19.31-4.41.39-5.69-3.3-1-2.76-2.41-3.71-5.26-3.38-2.34.28-4.74,0-7.11.1a2,2,0,0,0-1.43.91,50.7,50.7,0,0,0-2.23,4.79,1.36,1.36,0,0,1-1.56,1c-1-.06-1.95,0-3.17,0,4.51-9.68,8.93-19.2,13.48-29ZM285.83,36.4h8.62c-1.39-3.21-2.7-6.22-4.19-9.64C288.69,30.16,287.32,33.16,285.83,36.4Z" style="fill: #fff"/>
          <path d="M117.22,65.88c-2.06-.48-4.17-.81-6.17-1.47C98.12,60.15,90.11,51.37,88,37.89a32.83,32.83,0,0,1,64.71-11.07,32.89,32.89,0,0,1-25.79,38.35l-3.52.71Zm-.36-38.81-.42.43A19.25,19.25,0,0,0,118.62,30,33.27,33.27,0,0,0,122,32.19a13.41,13.41,0,0,1,5.88,7c1.73,5.25-1.43,9.92-6.94,10.17a19.82,19.82,0,0,1-14.71-5.59c-1-.93-1.9-2-2.94-3-.39-.34-1.28-.65-1.56-.45a2,2,0,0,0-.62,1.62,9.61,9.61,0,0,0,1.13,3c1.05,1.75,2.3,3.38,3.39,5.11a2.16,2.16,0,0,1,.29,1.57,14,14,0,0,0-.14,7.57,5,5,0,0,0,.94,1.43,10.93,10.93,0,0,0,1.17-1.08,47.16,47.16,0,0,1,3.25-4.15,8,8,0,0,1,8.3-2.23,30,30,0,0,0,11.59,1c6.5-.71,11.32-4.62,12.94-10.77.39-1.47.54-3,.82-4.61h3.88a5.42,5.42,0,0,0-.82-1.38c-1.06-1-2.23-1.8-3.32-2.74a8.35,8.35,0,0,1-1.8-1.81,27,27,0,0,0-13.29-11.65,7.67,7.67,0,0,0-7.7.64,5.92,5.92,0,0,1-4.53.83,7.4,7.4,0,0,0-1.37-.23,10.75,10.75,0,0,0-1.65.34c.24.56.3,1.37.72,1.65,1.84,1.23,3.76,2.32,5.68,3.42a15.47,15.47,0,0,0,1.92.79l-.21.52ZM124,38.76A3,3,0,0,0,122.41,36c-1.28-.93-2.64-1.74-4-2.6a12.9,12.9,0,0,1-5.69-7.16c-1.42-4.68,1.32-9.15,6.16-9.72a17,17,0,0,1,4.72.12A21.55,21.55,0,0,1,136.57,24c.67.75,1.33,2.16,2.52,1.39s.59-2.26,0-3.26c-1.2-2.14-2.55-4.2-3.93-6.24a2,2,0,0,1-.34-2,12.19,12.19,0,0,0,0-7.67,4.12,4.12,0,0,0-.79-1.06A5.23,5.23,0,0,0,133,6c-.93,1.22-1.69,2.58-2.71,3.7-2.5,2.74-5.44,4-9.26,2.88a28.9,28.9,0,0,0-11.31-1C103,12.32,98.15,16.43,96.62,23c-.3,1.26-.39,2.56-.59,4H92.1a7.83,7.83,0,0,0,3.75,3.86,6.74,6.74,0,0,1,2.49,2.51,25.93,25.93,0,0,0,13.33,11.34,7.67,7.67,0,0,0,7.44-.82,4.89,4.89,0,0,1,3.56-.86c.83.11,1.65.3,2.48.34a5.33,5.33,0,0,0,1.38-.33c-.15-.5-.16-1.12-.47-1.47a13.19,13.19,0,0,0-5.85-3.65c-.66-.22-1.31-.5-2-.76l.22-.54Z" style="fill: #fff"/>
          <path d="M327.06,19.61h3.82V48.15L311.17,27.6V46.72H307.1V17.82l20,20.86Z" style="fill: #fff"/>
          <path d="M378.69,19.62v3.49H367.93V30h10.41v3.63H367.9v9.55h4.48c1.68,0,3.36.07,5,0,1.15-.06,1.48.4,1.38,1.45-.06.64,0,1.3,0,2.06H363.85V19.62Z" style="fill: #fff"/>
          <path d="M212.38,38.55c.23.81.38,1.53.63,2.21.72,2,2.25,2.89,4.61,2.83a4.44,4.44,0,0,0,4.1-3,4.27,4.27,0,0,0-1.51-5.1,48.87,48.87,0,0,0-4.57-2.31,24.45,24.45,0,0,1-2.83-1.48,6.66,6.66,0,0,1,.32-11.48c4.27-2.64,10.06-1.09,11.93,3.3l-3,1.83a4.73,4.73,0,0,0-3.8-2.7,3.77,3.77,0,0,0-4.38,3.83c.11,1.53,1.27,2.22,2.43,2.79,1.54.75,3.18,1.29,4.71,2.05,4.86,2.43,5.44,5.6,4.71,9.46-.78,4.1-4.31,6.62-8.64,6.61a8.38,8.38,0,0,1-8.33-6.67c-.23-1,0-1.49,1.06-1.61C210.6,39,211.4,38.76,212.38,38.55Z" style="fill: #fff"/>
          <path d="M240.68,39.41l3.82-.89c.14.59.26,1.12.39,1.65A4.32,4.32,0,0,0,249,43.59c2.39.09,4.14-1,4.84-3a4.34,4.34,0,0,0-1.63-5.29,24.13,24.13,0,0,0-3.07-1.6c-1.05-.5-2.15-.89-3.17-1.44-3.25-1.76-4.61-4.44-4-7.68.54-2.72,3.33-5.15,6.45-5.6a8.09,8.09,0,0,1,8.81,4.43l-3.06,1.88a5,5,0,0,0-3.87-2.71c-2.64-.22-5.12,2.09-4.22,4.24a5.75,5.75,0,0,0,2.47,2.41c1.73,1,3.66,1.58,5.42,2.51,3.32,1.76,4.52,4.71,4,8.3a8,8,0,0,1-5.67,6.78C246.65,48.8,241.38,45.47,240.68,39.41Z" style="fill: #fff"/>
          <path d="M187.19,39.43l3.88-.91c.15.61.28,1.17.43,1.73a4.27,4.27,0,0,0,4.11,3.34,4.43,4.43,0,0,0,4.75-3.06,4.2,4.2,0,0,0-1.72-5.24c-1.41-.87-3-1.43-4.48-2.19a20.68,20.68,0,0,1-3.35-2,6.58,6.58,0,0,1-.3-9.94c3.36-3.19,10.35-3.43,13.31,2.22l-3.08,1.89c-.93-1.25-1.81-2.63-3.56-2.56a7.26,7.26,0,0,0-3,.6,2.93,2.93,0,0,0-.21,5.29,29.4,29.4,0,0,0,3.76,1.78c.93.43,1.88.81,2.76,1.31A7.94,7.94,0,0,1,204,42a8.78,8.78,0,0,1-9.61,5.25C190.14,46.39,188.27,44.39,187.19,39.43Z" style="fill: #fff"/>
          <path d="M358.31,40.7c0,1.54,0,2.83,0,4.12a1.36,1.36,0,0,1-.66.89,14.17,14.17,0,0,1-20.8-11.37,14.46,14.46,0,0,1,12.29-15.29,13.16,13.16,0,0,1,8.36,1.43,1.88,1.88,0,0,1,.81,1.24c.11,1.15,0,2.32,0,3.72-2.67-1.83-5.33-3.12-8.58-2.7a9.84,9.84,0,0,0-7.34,4.73,10.67,10.67,0,0,0,1.5,13.31C346.72,43.6,352.54,45.43,358.31,40.7Z" style="fill: #fff"/>
          <path d="M271.15,46.75h-3.83V45.12c0-6.78,0-13.57,0-20.36,0-1.32-.42-1.71-1.67-1.64-1.52.08-3.05,0-4.68,0V19.63h16.46v3.51c-1.57,0-3.1.07-4.61,0-1.32-.09-1.76.33-1.75,1.7.07,6.7,0,13.39,0,20.09Z" style="fill: #fff"/>
          <path d="M235,46.79h-3.66V19.62H235Z" style="fill: #fff"/>
          <path d="M127.09,26.82c.19-1.85-.26-2.15-2.33-1.71Z" style="fill: #fff"/>
          <path d="M127.09,26.82l-2.33-1.71C126.83,24.67,127.28,25,127.09,26.82Z" style="fill: #fff"/>
          <path d="M114.34,39.56l2,1.47-.2.5A8,8,0,0,1,114.2,41c-.24-.13-.21-.76-.3-1.16Z" style="fill: #fff"/>
        </g>
        <path d="M0,19.42c2.65.12,5.16.13,7.64.38,6,.6,7.57,8.61,4.32,11.69a2.7,2.7,0,0,0-.35.5,20.32,20.32,0,0,1,2.65,2.08,7.13,7.13,0,0,1,1.36,7.67,6.72,6.72,0,0,1-6,4.77c-3.17.2-6.37,0-9.64,0Zm4,24a47.7,47.7,0,0,0,5.53-.72,3.57,3.57,0,0,0,2.69-3.36,3.71,3.71,0,0,0-1.95-3.87c-1.93-1-4-1-6.27-.79v8.74ZM4,31.24c2.18.11,4.25.24,5.38-1.94a4.27,4.27,0,0,0-.32-4.73A4.58,4.58,0,0,0,4,23.34Z" style="fill: #fff"/>
      </g>
    </g>
  </g>
</svg>
