<svg xmlns="http://www.w3.org/2000/svg" xmlns:xlink="http://www.w3.org/1999/xlink" viewBox="0 0 140.21 125.58">
  <title>fasdip</title>
  <g id="7237744d-7c2d-4728-8a69-c69e236bd49c" data-name="Livello 2">
    <g id="0abbd3b9-e41b-4005-bfc9-0f6542ce2fee" data-name="Layer 1">
      <g>
        <image width="350" height="345" transform="translate(31.65) scale(0.22)" xlink:href="fasdip1.png"/>
        <g>
          <rect x="104.21" y="97.1" width="6.34" height="27.48" style="fill: #fff"/>
          <rect x="12.89" y="117.38" width="6.34" height="7.21" style="fill: #fff"/>
          <polygon points="13.47 102.41 6.34 102.41 6.34 94.65 13.47 94.65 13.47 87.44 6.34 87.44 5.83 87.44 0 87.44 0 124.59 6.34 124.59 6.34 109.62 13.47 109.62 13.47 102.41" style="fill: #fff"/>
          <rect x="44.13" y="117.38" width="6.34" height="7.21" style="fill: #fff"/>
          <rect x="71.42" y="117.38" width="6.34" height="7.21" style="fill: #fff"/>
          <rect x="113.17" y="117.38" width="6.34" height="7.21" style="fill: #fff"/>
          <rect x="104.21" y="87.44" width="6.34" height="7.21" style="fill: #fff"/>
          <rect x="132.54" y="117.38" width="6.34" height="7.21" style="fill: #fff"/>
          <path d="M31.9,87.44H28.18l-6.11,37.15h6.11l1.53-8.53h4.37l1.53,8.53h6.12L35.61,87.44Zm0,23.16H30.81l1.09-8.68L33,110.6Z" style="fill: #fff"/>
          <path d="M140.21,100.12a13,13,0,0,0-11.53-12.68h-6.34v37.15h6.34V112.66A12.88,12.88,0,0,0,140.21,100.12ZM128.68,106V94.23a6,6,0,0,1,0,11.78Z" style="fill: #fff"/>
          <path d="M87.17,87.45H80.83v37.15h6.34c7.88,0,14-8.13,14-18.56S95.05,87.45,87.17,87.45Zm0,29V95.6c2.78,0,6.77,4.46,6.77,10.43S90,116.47,87.17,116.47Z" style="fill: #fff"/>
          <path d="M64.33,105.22c-1.4-1-3.27-2-4.47-3.46h0l-.36-.49,0,0c-.11-.15-.2-.31-.3-.47s0,0,0-.08a5.06,5.06,0,0,1-.24-.46.31.31,0,0,0,0-.1l-.18-.46s0-.08,0-.13a3.19,3.19,0,0,1-.13-.44.83.83,0,0,1,0-.15,3.54,3.54,0,0,1-.08-.45.77.77,0,0,1,0-.15,4,4,0,0,1,0-.6,4.86,4.86,0,0,1,1.5-3.62,3.68,3.68,0,0,1,2.89-1c1.39.14,4.14,1.88,4.63,2.29v-7a20.38,20.38,0,0,0-4-1.33,9.72,9.72,0,0,0-7.6,2.49,11,11,0,0,0-3.52,8.16c0,.34,0,.69.05,1l.06.45c0,.19.05.37.08.55s.08.39.13.58l.09.41c.06.21.13.43.2.64s.07.21.11.32.17.45.26.67l.12.28c.11.22.21.45.33.67l.14.26c.13.22.25.45.39.66s.14.21.21.32.3.45.46.67.41.53.62.79l0,0h0c1.36,1.59,3.1,1.85,5.16,4.14h0a7.09,7.09,0,0,1,2.09,4.67,4.86,4.86,0,0,1-1.5,3.62,3.68,3.68,0,0,1-2.89,1,16.14,16.14,0,0,1-5-2.3v7a25,25,0,0,0,4.4,1.34,8.71,8.71,0,0,0,1,0A9.71,9.71,0,0,0,65.3,123a11,11,0,0,0,3.52-8.16C68.82,111.72,67.21,107.34,64.33,105.22Z" style="fill: #fff"/>
        </g>
      </g>
    </g>
  </g>
</svg>
