<svg xmlns="http://www.w3.org/2000/svg" viewBox="0 0 124.06 124.06">
  <title>fasdac</title>
  <g id="a77beeda-5d2e-48d6-ba1e-5b26e415fcff" data-name="Livello 2">
    <g id="a6224c27-d442-4b8b-987a-382b7139b2f7" data-name="Layer 1">
      <g>
        <path d="M17,0c.1,1.45.17,2.9.31,4.35a44.06,44.06,0,0,0,12.56,27,43.62,43.62,0,0,0,25.06,13,43.4,43.4,0,0,0,31.33-6.54c11.62-7.55,18.42-18.29,20.37-32,.28-1.93.33-3.89.49-5.83h17A61.55,61.55,0,0,1,121,19.41,61.48,61.48,0,0,1,73.79,60.85c-20.74,3.79-39.07-1.56-54.51-16A60,60,0,0,1,.61,8.62C.21,5.78.19,2.88,0,0Z" style="fill: #fff"/>
        <path d="M124,122.84V32.41c-13.85,23.74-34.23,36.64-62,37.41C34.3,69.08,13.89,56.18,0,32.41V123c0,.35,0,.7,0,1H124.06C124.05,123.65,124,123.25,124,122.84ZM10.37,119.33c-1.59,0-3,0-4.48,0-.17,0-.44-.47-.44-.72,0-1.81,0-3.62,0-5.42V97.94c.37,0,.67-.07,1-.07,4.52,0,9,0,13.56,0,.83,0,1.05.27,1,1.05-.06.95,0,1.91,0,3H10.42v4.88h.91c2.45,0,4.9,0,7.34,0,.71,0,.92.22.89.9,0,.9,0,1.8,0,2.82H10.37Zm45.29-1.24c-2.31,1.54-4.95,1.79-7.63,1.71a11.2,11.2,0,0,1-7.75-3l1,2.57c-1.84,0-3.55,0-5.27,0-.22,0-.53-.32-.63-.56-.5-1.17-1-2.37-1.41-3.57a.81.81,0,0,0-.89-.63c-2.62,0-5.25,0-7.87,0a1.1,1.1,0,0,0-.82.55c-.54,1.19-1,2.43-1.51,3.62a1.08,1.08,0,0,1-.73.55c-1.63,0-3.26,0-5,0,.15-.4.25-.72.39-1q4.31-9.84,8.61-19.69a1.05,1.05,0,0,1,1.15-.78c1.34.05,2.69,0,4,0a1,1,0,0,1,1.1.73c2,4.72,4,9.41,6.07,14.12l.27.58c0-.47,0-.75.06-1.09h4.93c0,.13.09.26.11.4a3.44,3.44,0,0,0,2.57,3.09,8.2,8.2,0,0,0,5.16,0,2.29,2.29,0,0,0,1.81-2.1,2,2,0,0,0-1.57-2.08c-1.85-.59-3.75-1-5.62-1.58a25.87,25.87,0,0,1-3.53-1.23c-4.26-2-3.82-7.18-.83-9.35,2.66-1.92,5.66-2.16,8.77-1.78A8.62,8.62,0,0,1,56.09,100a5.71,5.71,0,0,1,1.58,4.3h-5a3.1,3.1,0,0,0-2-2.76,6.47,6.47,0,0,0-4.78,0,2,2,0,0,0-1.34,2A1.63,1.63,0,0,0,46,105.19c1.9.55,3.83,1,5.73,1.54a22.11,22.11,0,0,1,3.31,1.09,5.31,5.31,0,0,1,3.39,4.52A5.9,5.9,0,0,1,55.66,118.09Zm15.82,1c-3.85.31-7.74.15-11.62.19,0,0-.1,0-.19-.1V97.87c1.07,0,2.06,0,3,0,2.6,0,5.19,0,7.78.09a9.26,9.26,0,0,1,9.13,8.94,14.13,14.13,0,0,1-.89,6.78A8.36,8.36,0,0,1,71.48,119.11Zm42.09-.08c-3.48,1.41-9.42,1.29-13-3.3l1.5,3.6c-1.88,0-3.64,0-5.39,0-.19,0-.44-.34-.54-.57-.47-1.13-.92-2.27-1.33-3.42a1,1,0,0,0-1.07-.76c-2.54,0-5.07,0-7.61,0a1,1,0,0,0-1.07.76c-.43,1.18-.91,2.33-1.42,3.48a1,1,0,0,1-.65.52c-1.66,0-3.32,0-5.09,0,.14-.39.23-.68.36-1,2.88-6.58,5.78-13.16,8.65-19.76A1,1,0,0,1,88,97.85c1.34.05,2.69,0,4,0a1.07,1.07,0,0,1,1.17.76c1.7,4,3.44,8,5.17,12a5.2,5.2,0,0,0,.41.77,14.7,14.7,0,0,1,.15-5.91c1.41-5.81,6.24-8.89,12.4-8,3.84.58,6.49,2.71,7.43,6.65a4.59,4.59,0,0,1,.1.51,2.23,2.23,0,0,1,0,.4H114.2c-.91-2.47-2.45-3.64-4.78-3.67a5.22,5.22,0,0,0-5.32,3.61,9.82,9.82,0,0,0,.11,7.42,5.47,5.47,0,0,0,6.74,3.08,4.55,4.55,0,0,0,3.18-3.73c.15-.7.45-.87,1.11-.85,1.22,0,2.44,0,3.72,0A8.88,8.88,0,0,1,113.57,119Z" style="fill: #fff"/>
        <path d="M32.26,110.9H26.12l3.12-7.63Z" style="fill: #fff"/>
        <path d="M90,103.26c1,2.67,2,5.11,3,7.64H86.84Z" style="fill: #fff"/>
        <path d="M64.62,115.29v-4.13c0-2.83,0-5.65,0-8.48,0-.61.17-.83.79-.8,1.4.08,2.8,0,4.19.16a4.86,4.86,0,0,1,4.72,4.27,15.14,15.14,0,0,1,0,4.75,4.84,4.84,0,0,1-4.69,4.19,7.71,7.71,0,0,1-1,0Z" style="fill: #fff"/>
      </g>
    </g>
  </g>
</svg>
