<svg xmlns="http://www.w3.org/2000/svg" viewBox="0 0 175.43 66.2">
  <title>rbm</title>
  <g id="0cd211ca-6df1-41ca-8a56-7a21d7207d1a" data-name="Livello 2">
    <g id="1a1bc367-4d31-44fd-bd64-fe5ff19e8c5a" data-name="Layer 1">
      <g>
        <path d="M63.48,44.16a25.57,25.57,0,0,0,9.81-3.83,12.26,12.26,0,0,0,5.82-9.62c.29-4.3-2.69-8.6-7.06-10.22-.42-.16-.86-.29-1.46-.48l1-.47a11.53,11.53,0,0,0,6.15-6.31A9.44,9.44,0,0,0,74.25,2.35c-.8-.57-1.67-1-2.59-1.61H87.54c1.81,0,2.24.31,2.9,2q4.36,11.1,8.72,22.18c.1.26.23.5.45.94.22-.39.38-.6.48-.84q4.55-11.19,9.07-22.4A2.62,2.62,0,0,1,111.72.75c5.06,0,10.12,0,15.18,0A2,2,0,0,1,129,2.48q4.68,20,9.35,40c.27,1.14-.08,1.64-1.25,1.65q-7.29,0-14.58,0c-1.09,0-1.55-.45-1.79-1.56q-2.31-10.74-4.61-21.47a8.87,8.87,0,0,0-.39-1.13h-.25a5,5,0,0,0-.34.7q-3.9,10.82-7.77,21.63c-.53,1.46-1.06,1.85-2.57,1.85H93c-1.78,0-2.17-.29-2.78-2Q86.53,32,82.87,21.81c-.22-.61-.55-1.18-.82-1.77l-.31.07c-.09.34-.2.68-.26,1q-1.87,10.2-3.72,20.42a1.83,1.83,0,0,0-.06.25c-.43,2.28-.52,2.36-2.88,2.36Z" style="fill: #fff"/>
        <path d="M34.6,26a4.2,4.2,0,0,0,.33.44L48.21,41.66A16.81,16.81,0,0,1,49.32,43c.48.67.26,1.14-.55,1.25a3.85,3.85,0,0,1-.59,0c-5.85,0-11.71,0-17.56,0a2.14,2.14,0,0,1-1.93-1Q23.44,36,18.13,28.82c-.23-.3-.5-.58-.92-1.07a11.37,11.37,0,0,0-.13,1.2q0,6.6,0,13.21c0,1.74-.31,2.05-2,2.05H1.84C.3,44.21,0,43.9,0,42.36V2.73C0,1,.34.58,2.14.56c8-.06,16-.16,24-.11A36,36,0,0,1,36.51,1.93a19.88,19.88,0,0,1,2,.73,9.6,9.6,0,0,1,6.16,8.21,20.27,20.27,0,0,1-.4,7.28,7.7,7.7,0,0,1-2.71,4.31,17.45,17.45,0,0,1-6.1,3.14l-.72.23C34.69,25.85,34.67,25.92,34.6,26ZM17.07,15c0,1.28,0,2.56,0,3.84,0,.71.26,1.05,1,1a31,31,0,0,0,3.48-.1,18.93,18.93,0,0,0,3.94-1,3.72,3.72,0,0,0,2.31-3.06,4.12,4.12,0,0,0-3-4.94,17.32,17.32,0,0,0-7.09-.5c-.23,0-.58.52-.59.81C17,12.39,17.07,13.7,17.07,15Z" style="fill: #fff"/>
        <path d="M.41,50v-1.3h.93q75.06,0,150.12,0a1.16,1.16,0,0,0,1.37-1A71.22,71.22,0,0,0,155.29,32a1,1,0,0,0-.15-.62c-.11.24-.23.47-.33.71a8.42,8.42,0,0,1-11.68,4.27,5.83,5.83,0,0,1-2.84-8,13.7,13.7,0,0,1,4-4.9c.2-.18.41-.35.77-.64-.4,0-.61,0-.82.07a6.65,6.65,0,0,1-6.75-3.23,10.34,10.34,0,0,1-1.27-8.83c.93-3.08,3.41-4.59,6.52-3.8A28,28,0,0,1,147,8.87a7.67,7.67,0,0,1,.79.47c-.32-.82-.65-1.51-.86-2.23A4.54,4.54,0,0,1,148.66,2a9.63,9.63,0,0,1,4.73-1.8,14,14,0,0,1,7.29.75c3.68,1.49,4.73,4.41,2.88,7.9l-.35.64a15.65,15.65,0,0,1,1.58-1,20.5,20.5,0,0,1,3.44-1.43c3.31-.85,5.89.68,6.79,4a10.42,10.42,0,0,1-1.19,8.45,6.68,6.68,0,0,1-6.91,3.41l-.75-.08.54.51a32.81,32.81,0,0,1,3.45,3.74c3,4.51.75,9.41-4.67,10.12a8.16,8.16,0,0,1-8.59-4.1l-.24-.35h-.08c-.2,1.93-.27,3.89-.63,5.79-.68,3.54-1.54,7-2.31,10.57-.14.67-.44.87-1.15.87q-41,0-81.93,0H.41Zm148.9-20.32c1.8.29,1.78.28,2.42-1.09.5-1.05,1-2.08,1.63-3.08.46-.79,1-1.52,1.55-2.29,2,2.22,3.89,4.32,5.78,6.44.72.81,1.2.87,2.19.17-1.8-3.83-4.1-7.44-5.14-11.39,2.65-.66,5.23-1.29,7.8-2a.87.87,0,0,0,.57-.53,12.89,12.89,0,0,0-.11-1.79c-6.95.68-13.9.08-20.77,1.43l-.18,1.26,7.43,1.49C151.41,22.15,150.36,25.89,149.31,29.64ZM155,13.74a2,2,0,1,0-2-2.05A2,2,0,0,0,155,13.74Z" style="fill: #fff"/>
        <path d="M51.52,30.55V27.74c0-.53.15-1,.76-1a26.61,26.61,0,0,1,7.87.2c1.45.32,2.8.87,3.34,2.44a3.23,3.23,0,0,1-2,4.2,18.37,18.37,0,0,1-4.22.85c-1.55.15-3.12,0-4.68.07-.74,0-1-.32-1-1V30.55Z" style="fill: #fff"/>
        <path d="M51.65,13.81V11a.74.74,0,0,1,.84-.84c2.23,0,4.47.06,6.7.18a5.26,5.26,0,0,1,1.86.56,2.84,2.84,0,0,1,1.82,2.8A2.71,2.71,0,0,1,61,16.49a16.6,16.6,0,0,1-3.86.87c-1.52.15-3.06,0-4.59.06-.69,0-1-.28-1-1,0-.88,0-1.76,0-2.64Z" style="fill: #fff"/>
        <path d="M105.22,61.68h1.84l.24.7a2.58,2.58,0,0,0,3.5,1.75,1.74,1.74,0,0,0,1.33-1.5,1.64,1.64,0,0,0-.92-1.61,8.58,8.58,0,0,0-1.22-.59c-.65-.27-1.32-.5-2-.75a3.11,3.11,0,0,1-2.37-2.61,3.06,3.06,0,0,1,1.56-2.91,4.42,4.42,0,0,1,4.23-.43,3.51,3.51,0,0,1,2.29,3c-.92.06-1.75.34-2.37-.78s-2.46-1-3.33-.16a1.14,1.14,0,0,0,.23,2,13,13,0,0,0,1.73.7c.63.25,1.29.45,1.9.74A3.35,3.35,0,0,1,114,62.88a3.41,3.41,0,0,1-2.58,2.95,4.52,4.52,0,0,1-5.73-2.32A12,12,0,0,1,105.22,61.68Z" style="fill: #fff"/>
        <path d="M104.23,61.58H96.8A2.63,2.63,0,0,0,98.42,64a2.28,2.28,0,0,0,2.9-.45c.8-1.08,1.72-.92,2.75-.86a4.47,4.47,0,0,1-4.88,3.53,4.74,4.74,0,0,1,.36-9.47C102.18,56.71,104.11,58.67,104.23,61.58Zm-2.43-1.77c-1.18-1.52-3.73-1.48-4.43,0Z" style="fill: #fff"/>
        <path d="M6.07,53.62C7.37,57.69,8.64,61.68,10,65.8a14.73,14.73,0,0,1-1.79,0c-.2,0-.43-.32-.51-.53-.38-1-.72-2.1-1-3.16a.79.79,0,0,0-.88-.68c-1.86,0-1.86,0-2.44,1.79a12.44,12.44,0,0,0-.48,1.54A1.14,1.14,0,0,1,1.3,65.81a6.06,6.06,0,0,0-1,0l1.59-5c.66-2.05,1.36-4.09,1.94-6.17.24-.84.62-1.18,1.47-1A4.44,4.44,0,0,0,6.07,53.62Zm-.82,4.05-.19-.08-.57,2.08H5.81Z" style="fill: #fff"/>
        <path d="M153.16,61.5h-7.23a2.56,2.56,0,0,0,1.6,2.55,2.52,2.52,0,0,0,3-.52c.7-1,1.56-.89,2.51-.81-.16,1.89-2.39,3.56-4.53,3.4a4.72,4.72,0,0,1-4.53-4.8,4.64,4.64,0,0,1,5.31-4.47A4.48,4.48,0,0,1,153.16,61.5Zm-6.92-1.65H151a2.38,2.38,0,0,0-2.27-1.25A2.51,2.51,0,0,0,146.24,59.85Z" style="fill: #fff"/>
        <path d="M63,65.93c-.66-.15-1.29-.33-1.94-.43-.19,0-.41.13-.61.22a4.7,4.7,0,0,1-5.13-.61,4.78,4.78,0,0,1,2.38-8.34A4.54,4.54,0,0,1,63,60.39,44.15,44.15,0,0,1,63,65.93ZM58.44,64.2a2.72,2.72,0,0,0,2.71-2.79,2.74,2.74,0,1,0-5.48,0A2.77,2.77,0,0,0,58.44,64.2Z" style="fill: #fff"/>
        <path d="M124.53,63.11c0,.65,0,1.3,0,2,0,.43-.14.67-.58.61a10.58,10.58,0,0,0-1.35-.23,2.07,2.07,0,0,0-.84.27,4.78,4.78,0,0,1-5.66-1.42,4.89,4.89,0,0,1,.39-6.05,4.71,4.71,0,0,1,5.17-1.09,4.6,4.6,0,0,1,2.86,4.17C124.54,61.92,124.53,62.51,124.53,63.11Zm-7.47-1.72a2.92,2.92,0,0,0,2.77,2.89,2.84,2.84,0,0,0,.1-5.68A2.9,2.9,0,0,0,117.06,61.39Z" style="fill: #fff"/>
        <path d="M84.59,61.41a4.72,4.72,0,1,1-4.73-4.71A4.71,4.71,0,0,1,84.59,61.41Zm-4.73-2.73a2.76,2.76,0,0,0,0,5.52,2.76,2.76,0,1,0,0-5.52Z" style="fill: #fff"/>
        <path d="M93.61,65.76h-2c0-1.38,0-2.73,0-4.08,0-.36,0-.73,0-1.1a2,2,0,0,0-1.93-1.9,2,2,0,0,0-1.95,2c0,1.67,0,3.35,0,5.08h-2V57.08l2.32.11c1.87-1.51,5.26.21,5.47,3C93.73,62,93.61,63.84,93.61,65.76Z" style="fill: #fff"/>
        <path d="M37.89,63.2a4.48,4.48,0,0,1-5.07,2.91A4.73,4.73,0,0,1,33,56.76a4.44,4.44,0,0,1,4.94,2.91c-1,0-1.93.18-2.86-.58a2.61,2.61,0,0,0-3.52.59,2.71,2.71,0,0,0,0,3.52,2.62,2.62,0,0,0,3.52.6C35.92,63.06,36.84,63.24,37.89,63.2Z" style="fill: #fff"/>
        <path d="M39.11,57.13h2c0,1.5,0,3,0,4.49a3,3,0,0,0,.54,1.54,1.68,1.68,0,0,0,2,.56A1.93,1.93,0,0,0,45,61.86c0-1.55,0-3.11,0-4.71H47c0,1.76.12,3.52,0,5.26a3.83,3.83,0,0,1-4,3.38A4,4,0,0,1,39.12,62c0-.25,0-.51,0-.76Z" style="fill: #fff"/>
        <path d="M10.75,63.2a6.32,6.32,0,0,1,1.24,0,1.49,1.49,0,0,1,.82.48,1.23,1.23,0,0,0,1.61.54,1.27,1.27,0,0,0,.67-.87,1.25,1.25,0,0,0-.61-.88,10.4,10.4,0,0,0-1.6-.55,2.56,2.56,0,0,1-2-2.88,3,3,0,0,1,2.78-2.34,2.89,2.89,0,0,1,3.06,2.12c-.8-.11-1.54-.23-2.28-.3a2.55,2.55,0,0,0-1.07,0,.7.7,0,0,0,0,1.35c.61.29,1.28.46,1.91.73a2.82,2.82,0,0,1,1.83,3.42,3.18,3.18,0,0,1-3.5,2.08A3,3,0,0,1,10.75,63.2Z" style="fill: #fff"/>
        <path d="M24.21,58.86c-.88-.13-1.62-.25-2.37-.34a2,2,0,0,0-.91,0c-.27.13-.61.43-.63.68a1,1,0,0,0,.54.73c.63.31,1.33.5,2,.77a2.68,2.68,0,0,1,1.69,1.89c.43,1.81-.63,3.24-2.61,3.53a3.16,3.16,0,0,1-3.73-2.87H20c.09.16.16.49.35.58a2.46,2.46,0,0,0,1.35.41,1.22,1.22,0,0,0,.77-.93c-.05-.36-.51-.73-.87-1A5.35,5.35,0,0,0,20.43,62c-1.48-.49-2.21-1.42-2.11-2.71a2.84,2.84,0,0,1,2.51-2.51A3,3,0,0,1,24.21,58.86Z" style="fill: #fff"/>
        <path d="M129.27,57.23H131c0,1.37,0,2.69,0,4a4.42,4.42,0,0,0,.08,1.09,2.07,2.07,0,0,0,2.17,1.54,2.13,2.13,0,0,0,1.88-2.09c0-1.22,0-2.44,0-3.66,0-.28,0-.56,0-.89h1.88a44.73,44.73,0,0,1-.37,5.83c-.34,1.85-2.26,2.84-4.23,2.58a3.82,3.82,0,0,1-3.2-3.67C129.24,60.43,129.27,58.87,129.27,57.23Z" style="fill: #fff"/>
        <path d="M64.35,59.11V57.18h6.49l-3.5,6.61h3.18v2H64.06c1.17-2.23,2.29-4.37,3.47-6.64Z" style="fill: #fff"/>
        <path d="M139,54.15h1.74c0,.71,0,1.38,0,2.05s.27,1.08,1,1c.31,0,.61,0,1,0v1.73a4.78,4.78,0,0,1-.65.07c-1.42,0-1.34-.15-1.34,1.42s0,3.23,0,4.85c0,.08,0,.16,0,.33H139c0-1.89,0-3.75,0-5.61,0-.84,0-.84-.83-1.15,0-.37,0-.76,0-1.16,0-.11,0-.3.06-.31,1.35-.44.56-1.56.76-2.35A5.23,5.23,0,0,0,139,54.15Z" style="fill: #fff"/>
        <path d="M50.27,65.75H48.35V57.16h1.87l.09.63L53.42,57v2s0,.08-.08.09c-2.43.54-3.07,1.32-3.07,3.79Z" style="fill: #fff"/>
        <path d="M127.71,65.63H126V53.84h1.7Z" style="fill: #fff"/>
        <path d="M73.88,65.76H72v-8.6h1.9Z" style="fill: #fff"/>
        <path d="M25.77,57.13h1.87v8.59H25.77Z" style="fill: #fff"/>
        <path d="M28,54.88a1.25,1.25,0,1,1-1.23-1.24A1.22,1.22,0,0,1,28,54.88Z" style="fill: #fff"/>
        <path d="M72.89,53.64a1.25,1.25,0,1,1-1.19,1.27A1.22,1.22,0,0,1,72.89,53.64Z" style="fill: #fff"/>
      </g>
    </g>
  </g>
</svg>
