<svg xmlns="http://www.w3.org/2000/svg" viewBox="0 0 206.47 44.5">
  <title>unisalute</title>
  <g id="3cbb0ee5-f991-4fa8-83be-81901ab64b25" data-name="Livello 2">
    <g id="28ded5f5-04ef-4664-b4ae-df53b5a45b17" data-name="Layer 1">
      <g>
        <path d="M96,8.58A51.56,51.56,0,0,0,88.79,7a29.07,29.07,0,0,0-8.07.35c-3.56.72-5.13,4.34-3.81,7.75a3.59,3.59,0,0,0,2.55,2.31c2.27.54,4.6.86,6.88,1.38a43.26,43.26,0,0,1,6,1.69,8.48,8.48,0,0,1,5.38,6.44,16.38,16.38,0,0,1-.41,8.89c-1.72,5-5.62,7.43-10.61,8.24a31.33,31.33,0,0,1-15.67-1.57,1.7,1.7,0,0,1-1.38-2c.11-1.71,0-3.43,0-5,2.61.67,5.11,1.47,7.67,1.93a19.13,19.13,0,0,0,9.53-.35,6.51,6.51,0,0,0,4-9,3.93,3.93,0,0,0-2.8-2.41c-2.32-.52-4.71-.79-7-1.39A39.74,39.74,0,0,1,74.26,22a7.13,7.13,0,0,1-3.93-5c-1.19-5-.85-9.67,3.12-13.46a12.45,12.45,0,0,1,7-3.12A30.36,30.36,0,0,1,94.69,1.6a1.66,1.66,0,0,1,1.37,1.94C96,5.25,96,7,96,8.58Z" style="fill: #fff"/>
        <path d="M32.91,43.84V15c4-.44,5-.15,6.54,2.23,2.15-.43,4.21-1,6.31-1.21a13.19,13.19,0,0,1,4.28.36c3.81.9,5.83,3.67,5.87,8.06.06,6.09,0,12.19,0,18.28,0,.76-.15,1.13-1,1.1-1.88-.06-3.76,0-5.79,0V42.37c0-5.56,0-11.11,0-16.67,0-2.9-1-3.92-3.85-3.82a29.4,29.4,0,0,0-4.35.7c-1,.19-1.35.76-1.34,1.84.06,5.93,0,11.86,0,17.79,0,1.63,0,1.63-1.69,1.63Z" style="fill: #fff"/>
        <path d="M159.93,44.35c-2.55.12-5.16.58-6.5-2.55-.46.31-.8.52-1.12.75-4.14,2.94-10.11,2.4-13.15-1.2a8.1,8.1,0,0,1-2-5.2c-.09-6.54,0-13.09-.06-19.64a2.09,2.09,0,0,1,.13-.43h6.49c0,.49.07,1,.07,1.44,0,5.32.06,10.63,0,15.94s3.42,6.06,7.16,4.43a3.44,3.44,0,0,0,2.38-3.67c-.17-5.55-.06-11.11-.06-16.67V16.1h6.69Z" style="fill: #fff"/>
        <path d="M181.26,16v5.74c-1.86,0-3.66.05-5.46,0-1.06-.05-1.43.26-1.41,1.37.1,4.16,0,8.32.17,12.47.08,2.05,1.1,2.89,3.18,3,1.14.08,2.28,0,3.58,0,0,1.57,0,3.2,0,4.83a.91.91,0,0,1-.54.67c-3.47.57-6.9.62-10-1.49a7.12,7.12,0,0,1-3-6.05c-.08-4.49-.08-9,0-13.46,0-1.11-.34-1.46-1.41-1.38s-2.22,0-3.44,0V16h3.18c1.64,0,1.64,0,1.64-1.6,0-2.21,0-4.42,0-6.74a34.23,34.23,0,0,1,3.81,0,3.54,3.54,0,0,1,2.9,3.37c0,1.24.07,2.48,0,3.71-.07,1,.35,1.27,1.29,1.24C177.49,16,179.3,16,181.26,16Z" style="fill: #fff"/>
        <path d="M8.75,43.3C16.07,44.49,23.1,39.68,23,31.4c-.12-8.89,0-17.79,0-26.68C23,1.45,24.35.06,27.61.06h2.11c0,.47.07.79.07,1.11,0,9.88,0,19.77,0,29.65,0,4-1,7.58-4.25,10.24a15.4,15.4,0,0,1-8.64,3.26,18.6,18.6,0,0,1-8-.84,1.25,1.25,0,0,1-.19-.15Z" style="fill: #fff"/>
        <path d="M133.77,44.36a34.72,34.72,0,0,1-3.7,0A3.51,3.51,0,0,1,127,40.87q0-20.11,0-40.23c0-.12,0-.24.1-.64a25,25,0,0,1,4.06.32c1.7.4,2.59,1.91,2.62,4s0,4.27,0,6.41V44.36Z" style="fill: #fff"/>
        <path d="M.08.26A25.9,25.9,0,0,1,3.83.3c1.83.26,2.94,2,3,4.41,0,8.68,0,17.36,0,26.05a10.64,10.64,0,0,0,.52,3.37A5.92,5.92,0,0,0,12.18,38a12,12,0,0,0,7.48-.69l.25.34A27.77,27.77,0,0,1,17,40,14.67,14.67,0,0,1,5.18,41.35c-1.31-.38-2.41-2-3.3-3.25A11.65,11.65,0,0,1,0,31.3C0,21.17,0,11.05,0,.93A6.59,6.59,0,0,1,.08.26Z" style="fill: #fff"/>
        <path d="M59.12,14.89c2.05,0,4.06,0,6.07,0,.21,0,.47.33.59.57s0,.48,0,.73c0,8.77,0,17.55,0,26.32,0,1-.24,1.45-1.29,1.31a26.15,26.15,0,0,1-2.82-.24A3.51,3.51,0,0,1,59,40.19q0-12.36,0-24.71A4.4,4.4,0,0,1,59.12,14.89Z" style="fill: #fff"/>
        <path d="M62.44,12.34a4.25,4.25,0,0,1-4.38-4.22,4.38,4.38,0,0,1,4.31-4.21A4.19,4.19,0,0,1,66.63,8.1,4.14,4.14,0,0,1,62.44,12.34Z" style="fill: #fff"/>
        <path d="M123.84,25c-.12-4.69-1.89-7.15-5.72-8.22a24.93,24.93,0,0,0-14.11.46,1.31,1.31,0,0,0-.77.9c-.08,1.63,0,3.28,0,4.66,3.18-.38,6.17-.82,9.18-1.06a8.56,8.56,0,0,1,3.25.58c1.09.36,1.66,1.83,1.44,3.24s-1.28.51-1.9.79a5.86,5.86,0,0,1-1.35.11c-2.55.41-5.21.49-7.62,1.31-5.62,1.93-7.3,9.08-3.4,13.61,3,3.45,8.66,4.09,12.88,1.45.48-.3.94-.61,1.51-1,1.39,3.15,4,2.62,6.55,2.51a2.6,2.6,0,0,0,.12-.46C123.87,37.58,124,31.28,123.84,25Zm-6.78,10.66a1.48,1.48,0,0,1-.46.94,7.26,7.26,0,0,1-6.37,1.92,2.91,2.91,0,0,1-2.55-2.75c-.26-1.8.33-3.31,1.73-3.83a15.77,15.77,0,0,1,3.22-.69c1.18-.18,2.36-.29,3.55-.41a5.35,5.35,0,0,1,.9.05C117.08,32.54,117.11,34.09,117.06,35.64Z" style="fill: #fff"/>
        <path d="M206.36,32.74c.21-4.24.33-8.34-1.68-12.14a7.42,7.42,0,0,0-5.16-3.9,23.23,23.23,0,0,0-6.1-.54c-5.92.4-9.31,3.4-10.47,9.17a24.14,24.14,0,0,0,.22,10.76c.9,3.52,2.88,6.26,6.41,7.42,5,1.65,10,1.07,14.89-.57a1.26,1.26,0,0,0,.73-.82c.07-1.66,0-3.33,0-5-.18,0-.22-.08-.25-.07l-1,.35a21.85,21.85,0,0,1-9.59,1.12c-3.29-.37-5.15-2.55-4.81-5.82ZM191.58,22.66a6.24,6.24,0,0,1,6.25-.14c2,1.15,1.71,3.33,1.8,5.4h-10C189.08,26.22,190.4,23.27,191.58,22.66Z" style="fill: #fff"/>
      </g>
    </g>
  </g>
</svg>
