<svg xmlns="http://www.w3.org/2000/svg" viewBox="0 0 214.93 64.7">
  <title>fasi</title>
  <g id="92063aec-713a-4390-9183-3398e3207092" data-name="Livello 2">
    <g id="a09ee13a-55aa-4a3a-a274-7103f7289743" data-name="Layer 1">
      <g>
        <g>
          <path d="M38.44,56.31a.58.58,0,0,1-.16-.15A.34.34,0,0,0,38.44,56.31Z" style="fill: #fff"/>
          <path d="M27.4,55.56v-.31h0a2.44,2.44,0,0,0,0-.27h0l0,0Q27.39,55.26,27.4,55.56Z" style="fill: #fff"/>
          <path d="M27.31,54.76v.13a4.78,4.78,0,0,0,.05,1.31c0-.21,0-.42,0-.64s0-.4,0-.6A.28.28,0,0,1,27.31,54.76Z" style="fill: #fff"/>
          <polygon points="38.44 56.31 38.44 56.31 38.44 56.31 38.44 56.31" style="fill: #fff"/>
          <path d="M31,9.74a.31.31,0,0,0,.1-.05Z" style="fill: #fff"/>
          <g>
            <path d="M30.81,34h0v0Z" style="fill: #fff"/>
            <path d="M61.38,64.19c.64.08.77-.13.73-.79l0-.79,0,.79c0-.26,0-.52,0-.79V1c0-.26,0-.53,0-.79V.08A.56.56,0,0,0,61.73,0C50.36,0,39,0,27.61,0a4.27,4.27,0,0,0-.55,0l-.58,0A23.82,23.82,0,0,0,21.43,1a27.29,27.29,0,0,0-9.11,4.2,25.6,25.6,0,0,0-5.41,5A29,29,0,0,0,2.43,18,34.52,34.52,0,0,0,.13,29.3c-.13.24,0,.5-.06.76a5.48,5.48,0,0,1,0,1.07c0,.24,0,.48,0,.72V62.94c0,1.29,0,1.29,1.32,1.23M31,9.74a.31.31,0,0,0,.1-.05A15.44,15.44,0,0,0,32.56,9,1.2,1.2,0,0,1,34,9.1c2,1.26,4,2.48,6,3.73a1.07,1.07,0,0,0,1.21.09c1.43-.71,2.91-1.33,4.33-2.07A1.25,1.25,0,0,1,47,11c.21.16.44.29.65.44h0a12.62,12.62,0,0,1,1.62,1c.2.13.25.25,0,.35C46.62,14,44,15.22,41.37,16.49c-.43.21-.64-.14-1-.22l-.32-.22c-3-1.87-6-3.75-9-5.6C30.64,10.18,30.55,10,31,9.74Zm-14.13,3c.26-.17.52-.32.64-.38a1.56,1.56,0,0,1,.48-.14c1.36-.22,2.72,1.08,3.79,1.75a28.15,28.15,0,0,0,3.81,2.08,10.14,10.14,0,0,0,7.74.36c.2-.07.5-.08.54-.3s-.27-.31-.44-.42l-5.86-3.65c-.16-.09-.44-.14-.4-.37s.29-.23.47-.31l1.53-.76a1.19,1.19,0,0,1,1.32.15c3.08,1.94,6.18,3.85,9.28,5.77l.38.25c.19.13-.28.27-.32.29l-.83.42A19.6,19.6,0,0,1,35.42,19a15.78,15.78,0,0,1-3.67.58,18.52,18.52,0,0,1-6.67-1.08,49.51,49.51,0,0,1-8.33-4.4,1.07,1.07,0,0,1-.49-.45C16.08,13.23,16.57,13,16.84,12.78ZM11.26,24.24a6.57,6.57,0,0,0,0-.77c0-.37.16-.45.46-.45a2.71,2.71,0,0,1,.76.29c.56.21,1.1.43,1.66.62,1.28.46,2.55.93,3.8,1.46a17.41,17.41,0,0,1,3.35,1.8,14.39,14.39,0,0,1,5.23,7.38,27,27,0,0,1,.62,8.69l-2-.63q-4.8-1.66-9.62-3.31c-.41-.14-.6-.31-.58-.77,0-.95,0-1.89,0-2.83,0-.48.14-.5.52-.36,2.38.83,4.76,1.64,7.14,2.45.74.26.76.26.68-.54a8.91,8.91,0,0,0-2.58-6.05c-2.64-2.42-6-3.26-9.25-4.42A10,10,0,0,1,11.26,24.24ZM27.12,56.32l-3.43-1.24h0c-.38,0-.28-.33-.28-.55,0-2.52,0-5,0-7.55l-7.36-2.56h0l-.27-.11a1.58,1.58,0,0,1-.94-.39h0V40.23c.05,0,.09-.13.16,0l6.14,2.06c.41.13.81.31,1.22.46l3.77,1.2h0a1.36,1.36,0,0,0,.35.16c.67.1.83.47.82,1.13,0,3.15,0,6.3,0,9.45v.22a4.78,4.78,0,0,0,.05,1.31Zm3.16,1c-.33-.09-.67-.17-1-.28a1.54,1.54,0,0,1-1.13-1.76c0-4.33.14-8.67.12-13,0-3.94-.53-8-2.55-11.38a16.23,16.23,0,0,0-5.95-5.63,46.16,46.16,0,0,0-8.14-3.15c-.38-.13-.53-.29-.52-.69,0-1,0-2,0-3,0-.29,0-.46.41-.33a63.89,63.89,0,0,1,8.71,3.4,22.54,22.54,0,0,1,6.28,5,22.36,22.36,0,0,1,5,9.94,45.74,45.74,0,0,1,.58,10.19c0,.13,0,.26,0,.39,0,3.31,0,6.62,0,9.93,0,.76-.07,1-.83.59a.11.11,0,0,1-.07-.06M30.8,22.51C24.1,22,18,18.88,12.55,15c.91-.24,1.59-1.12,2.53-1.16a3,3,0,0,1,1.73.73,31.67,31.67,0,0,0,10.25,5c4.66,1.15,9.13.09,13.42-1.83,1.77-.79,3.49-1.68,5.23-2.54.9-.44,1.8-.87,2.72-1.28.66-.28,1.69-1.07,2.38-.62s1.55,1,2.34,1.46c.35.22.55.36,0,.62-3.94,1.83-7.82,3.78-11.8,5.5A22.22,22.22,0,0,1,30.8,22.51Zm6.46,34.14-2.09.7L33.53,58a1.12,1.12,0,0,1-.09-.68V46.38A44.6,44.6,0,0,1,34,36.65a22.22,22.22,0,0,1,7.3-12.36A23,23,0,0,1,46.54,21c2.51-1.2,5.19-1.91,7.88-2.9,0,1.28,0,2.46,0,3.64,0,.41-.33.41-.58.5-2.1.75-4.24,1.37-6.29,2.24-.91.38-1.74.91-2.62,1.35-.49.34-1,.69-1.45,1a15.77,15.77,0,0,0-5.22,7.68,24.36,24.36,0,0,0-.89,5.08q0,8.36,0,16.71C37.36,56.42,37.39,56.56,37.26,56.65ZM49.89,44.39a2.63,2.63,0,0,0-.36.1L45.4,45.87l-2.06.68c-.62.21-1.19.22-1.19,1,0,2.3,0,4.6,0,6.91a.69.69,0,0,1-.56.79c-1.06.34-2.11.73-3.16,1.09a.58.58,0,0,1-.16-.15,1.22,1.22,0,0,1-.08-.84c.1-2,0-4,0-6,0-1.53,0-3.06,0-4.59a.7.7,0,0,1,0-.29.22.22,0,0,1,0-.08l4.17-1.4a2.33,2.33,0,0,1,.38-.08c2.54-.93,5.09-1.83,7.68-2.62.06-.11.1,0,.14,0,.15.9,0,1.83.12,2.74S50.72,44.17,49.89,44.39Zm4-17.48-3.36,1.17a15.87,15.87,0,0,0-3.09,1.21,10.41,10.41,0,0,0-3.61,3.07A9.24,9.24,0,0,0,42.33,38l8-2.72a.24.24,0,0,1,.22,0c.08,0,.1.16.1.25v3.13a.64.64,0,0,1-.08.39.74.74,0,0,1-.32.19L39.12,43a1.86,1.86,0,0,1-.77.28V41a7,7,0,0,1,0-1.83,12.65,12.65,0,0,1,.46-3.46,8.51,8.51,0,0,1,.92-2.78,12.1,12.1,0,0,1,3.31-4.65A16.53,16.53,0,0,1,48.17,25c2-.85,4.11-1.46,6.25-2.21V26.5C54.42,26.85,54.12,26.84,53.92,26.91Z" style="fill: #fff"/>
          </g>
          <path d="M106.77,40.78H83.07V62.21c0,.61,0,1.23,0,1.84a.42.42,0,0,0,.31.07h7a.42.42,0,0,0,.31-.07c0-.3,0-.61,0-.92V48.4a6.76,6.76,0,0,1,.71-.07h15.28a1.54,1.54,0,0,0,.71,0c0-2.33,0-4.67,0-7C107.44,40.73,107.15,40.72,106.77,40.78Z" style="fill: #fff"/>
        </g>
        <path d="M83.07,38.78c0-6.64,0-13.72,2.91-19.66A15.74,15.74,0,0,1,91.39,13c5.19-3.54,11.36-3.7,17.39-3.71l5.48,0c.4,0,.54.13.54.53,0,1.23,0,2.46,0,3.69,0,.62,0,1.23,0,1.85,0,.41.2,1-.21,1.28s-1.37.15-1.93.13c-.79,0-1.58-.05-2.38-.06-1.61,0-3.23,0-4.85.09-1,.07-2,.17-2.92.32a18.54,18.54,0,0,0-5,1.36,10.2,10.2,0,0,0-5.62,6.25,26.73,26.73,0,0,0-1,5.24,1,1,0,0,0,0,.65c0,.5.37.39.66.39h5.7l10,0a.82.82,0,0,1,.07.51v6.57a.82.82,0,0,1-.07.51h-.66" style="fill: #fff"/>
        <path d="M73.71,31.93a40.17,40.17,0,0,1,1.74-11.79,28.53,28.53,0,0,1,5.26-10,26.5,26.5,0,0,1,8.8-6.92A31,31,0,0,1,98.88.38,72.18,72.18,0,0,1,109,0h5.1a1.31,1.31,0,0,1,.71.06v7.5a1.29,1.29,0,0,1-.7.06c-6.57,0-13.64-.63-19.91,1.85-.48.19-1,.4-1.41.62a18.37,18.37,0,0,0-9.26,10.22,29.94,29.94,0,0,0-1.88,8.1c-.11,1.12-.23,2.25-.27,3.38-.06.07,0-.08,0,0-.07.33-.18,3.1-.18,3.42V62.52c0,1.54,0,1.54-1.49,1.54-1.69,0-3.38,0-5.06,0-.51,0-.79-.17-.88-.67,0-9.83,0-19.66,0-29.49" style="fill: #fff"/>
        <path d="M131.92,20.17A23.46,23.46,0,0,1,139.59,22a22,22,0,0,1,6.69,4.52,21.15,21.15,0,0,1,3.77,4.93,25,25,0,0,1,2.32,5.85c1.17,4.4.6,9.13.6,13.62s0,8.84,0,13.27a6.83,6.83,0,0,1-1.63,0c-1.77,0-3.54,0-5.32,0a1.18,1.18,0,0,1-.64-.06q0-6.42,0-12.82c0-2.88,0-5.75,0-8.62A15.07,15.07,0,0,0,143.81,36a14.72,14.72,0,0,0-17-7.76,14.71,14.71,0,0,0-10.3,18.23,14.14,14.14,0,0,0,4.91,7.38,13.94,13.94,0,0,0,7.13,3.1c1.59.21,3.19,0,4.78.13a5.81,5.81,0,0,1,.06,1.5c0,1.82,0,3.63,0,5.45a1.2,1.2,0,0,1-.06.65,31.69,31.69,0,0,1-9-.86,22.43,22.43,0,0,1-7.76-4,22.73,22.73,0,0,1-6.26-7.9,21.4,21.4,0,0,1-2.06-8.68,22.31,22.31,0,0,1,1.48-8.94,21.11,21.11,0,0,1,3.58-6,22.48,22.48,0,0,1,16.09-8.12A22.07,22.07,0,0,1,131.92,20.17Z" style="fill: #fff"/>
        <path d="M197.19,45.76a26.57,26.57,0,0,1-.9,4.12,18.86,18.86,0,0,1-5.49,8.67,22,22,0,0,1-10.12,4.8c-4.11.83-8.27.54-12.42.52-3.63,0-7.27,0-10.9,0-.69,0-2.74.53-2.91-.44,0-2.15,0-4.3,0-6.45,0-.6.35-.53.73-.53h14.41c4.89,0,9.83.11,14.28-2.31a11.21,11.21,0,0,0,5.43-7.93,18,18,0,0,0,.27-3.51c0-.61,0-1.21-.09-1.82a5.55,5.55,0,0,1,0-1.42c.23-.16.52,0,.76-.11l4.6,0a7.93,7.93,0,0,1,2.23,0c0,.92,0,1.84,0,2.76a15.93,15.93,0,0,1,.07,2.29A8.16,8.16,0,0,0,197.19,45.76Z" style="fill: #fff"/>
        <path d="M154.41,39.85a19.9,19.9,0,0,1,4.12-10.37A18.17,18.17,0,0,1,165.78,24c6.16-2.68,13-2.23,19.51-2.23l11.09,0a.7.7,0,0,1,.38.07c.27.16.14.9.15,1.15,0,.62,0,1.23,0,1.84,0,1.33-.08,2.66-.08,4,0,.57-.45.45-.77.43-.71-.05-1.42-.12-2.14-.12H183.66a58.3,58.3,0,0,0-10.23.55c-4.23.74-8.18,2.67-10.12,6.68A13.69,13.69,0,0,0,162,41.19c-.14,1.68.05,3.4.05,5.09-.73.19-1.48,0-2.21.12l-4.61,0a1,1,0,0,1-.77,0c0-1.77-.14-3.56-.1-5.33C154.35,40.67,154.37,40.26,154.41,39.85Z" style="fill: #fff"/>
        <path d="M165.7,46.35c-.28,0-2.13.14-2.12-.64,0-3.2-.18-6.4,1.36-9.32,3-5.66,10.29-5.86,15.86-5.85l16.25,0v7.61c-.06.07-.59,0-.67,0H188.9c-4,0-8.11-.2-12.13.08-1.6.12-4.42.12-5.32,1.73a2.91,2.91,0,0,0-.28,1.31c0,1.48,0,3,.05,4.47,0,.48-.15.59-.6.58-1.64,0-3.28,0-4.92,0" style="fill: #fff"/>
        <path d="M175,48.52c-.26,0-.59,0-.93,0" style="fill: #fff"/>
        <path d="M154.45,55.1c0-2.45,0-5,0-7.5a1.44,1.44,0,0,1,.71-.06h8.23c2.71,0,5.43-.06,8.14,0,1.16,0,2.32,0,3.47-.08a16.8,16.8,0,0,0,3.35-.71,2.83,2.83,0,0,0,1.91-2c.1-1.55,0-3.11,0-4.66,0-.56.17-.68.7-.68,2.1,0,4.2,0,6.3,0a1.46,1.46,0,0,1,.59,0c.31.14,0,3.08.07,3.57a11.15,11.15,0,0,1-.21,3.26,10.49,10.49,0,0,1-3.23,5.64c-2.55,2.25-6.08,3-9.48,3.2-3.22.16-6.45-.11-9.67,0s-6.46,0-9.67,0h-1.23" style="fill: #fff"/>
        <path d="M131.25,55.63a14.11,14.11,0,0,1-8.78-2.84,12.3,12.3,0,0,1-4.69-11.19c.5-5.28,4.13-10.15,9.37-11.47a14,14,0,0,1,7.5.16,12.14,12.14,0,0,1,8.61,10.4,23.55,23.55,0,0,1,0,2.52c-.1,6.4,0,12.81-.07,19.21,0,.33,0,.66,0,1,0,.49-.34.67-.77.76-2,0-3.95,0-5.92,0-.55,0-.52-.31-.52-.68q0-10.74,0-21.47a4.87,4.87,0,0,0-4.27-5,6,6,0,0,0-4.46.93,5.54,5.54,0,0,0-2.24,4.36,5.37,5.37,0,0,0,0,1.55c.29,2.26,1.71,3.38,3.68,4.08a6.87,6.87,0,0,0,2.55.43,11.47,11.47,0,0,0,1.76,0c.26,0,.4.07.4.37,0,2.27,0,4.54,0,6.81A7,7,0,0,1,131.25,55.63Z" style="fill: #fff"/>
        <path d="M214.06,64.17h-6.58a15.38,15.38,0,0,1-.07-2.35,2.93,2.93,0,0,0,0-.78q0-9.67,0-19.35c0-5.57,0-11.13-.06-16.69,0-.83-.27-2,.45-2.59a7.71,7.71,0,0,1,2.58-1.07,7.11,7.11,0,0,1,1.45-.34,7.82,7.82,0,0,1,2,.09c1,.12.75.82.76,1.65,0,13.31,0,26.62,0,39.92a2.19,2.19,0,0,1-.17,1.13A.63.63,0,0,1,214.06,64.17Z" style="fill: #fff"/>
        <path d="M198.38,33.93a14.3,14.3,0,0,1,.92-3.9,11.24,11.24,0,0,1,4.62-5.34,5.44,5.44,0,0,1,1.25-.7c.39-.12.47,0,.46.35V63.48c0,.19,0,.39,0,.59a11.78,11.78,0,0,1-2.14.05c-1.7,0-3.4.07-5.09-.05a2,2,0,0,1,0-.78c0-7.17,0-14.33,0-21.5A76.33,76.33,0,0,1,198.38,33.93Z" style="fill: #fff"/>
        <path d="M205.61,13.76c0,2.59,0,5.18,0,7.76a.57.57,0,0,1-.42.63,13.31,13.31,0,0,0-6.47,5.65l-.2.31c-.15,0-.15-.12-.15-.2q0-7.07,0-14.14a1.17,1.17,0,0,1,.64-.06q3,0,5.91,0A1.26,1.26,0,0,1,205.61,13.76Z" style="fill: #fff"/>
        <path d="M214.85,19.15a17.72,17.72,0,0,0-5.17.65c-.64.2-1.27.45-1.9.7a.39.39,0,0,1-.21,0c-.54-.06-.2-6-.2-6.77,0,0,.08-.06.12-.06,2.45,0,4.91-.06,7.36,0a25,25,0,0,1,.06,3.12A13.37,13.37,0,0,1,214.85,19.15Z" style="fill: #fff"/>
      </g>
    </g>
  </g>
</svg>
