<svg xmlns="http://www.w3.org/2000/svg" viewBox="0 0 149.89 126.43">
  <title>fiasid</title>
  <g id="447a68c8-e951-49ab-9a01-73938d3a6201" data-name="Livello 2">
    <g id="7ea3305e-3ff4-4da0-b9f8-e8b93b294c3b" data-name="Layer 1">
      <g>
        <path d="M60.62,84.76c-2.08-.77-3.49-2.27-5.24-3.16a.5.5,0,0,0-.6.1c-2.19,2.24-4.32,4.56-6.68,6.63-1.56,1.38-1.61,2.42.07,3.59A35.47,35.47,0,0,0,75,100.81c8.4-.66,15.71-4.29,22.11-9.74a.52.52,0,0,0,.18-.4,1.42,1.42,0,0,0-.66-1.07c-3.06-2.47-6.15-4.91-9.2-7.39-.53-.43-.9,0-1.34.07a.48.48,0,0,0-.2.07c-.54.36-.87.37-1.65.93l-.47.37c-.49.31-.92.73-1.48,1a.52.52,0,0,1-.66-.75c2.89-4,4.48-9,1.88-13.77a13.61,13.61,0,0,0-13.16-6.8c-7,.51-13,7.18-11.61,14.81A17.14,17.14,0,0,0,61.24,84,.51.51,0,0,1,60.62,84.76Z" style="fill: #fff"/>
        <path d="M48.64,34.26l.12.11.66.94,0,0h0l.45.46h0l0,0,.43.43h0l.44.44h0l0,0,.46.46h0l0-.06a6,6,0,0,1,2.27,2.27l-.06,0a.43.43,0,0,1,.47.45h0l.44.44h0l.44.45h0l.46.47,0,0,.59.4a.52.52,0,0,0,.2.09l.29.05.3,0a33.44,33.44,0,0,1,21.6-2.58c2.43.51,5,.68,7.14,2.08l.15,0,3.31,1.4.56-.1,8.2-8c0-.3,0-.45,0-.74-.56-.54-1.12-1.08-1.7-1.6-4.08-3.63-9-5.71-14-7.68l-.11,0-3.45-.53a.51.51,0,0,1-.19-.94h0c6-4.12,7.57-10.09,4.51-16.65-.12-.27-.21-.55-.32-.83h.07L82,5l0,0-.28-.37-.07-.08c-.32-.28-.66-.55-1-.85a12.19,12.19,0,0,0-18.14.74C59,8.5,58.88,13.09,60.71,17.89l.06.12a15.78,15.78,0,0,0,4.84,4.89.51.51,0,0,1-.14.93,8.91,8.91,0,0,1-2,.21l-.14,0A43.88,43.88,0,0,0,48.5,31.27C47.26,32.23,46.86,33,48.64,34.26Z" style="fill: #fff"/>
        <path d="M98.78,86.57a40.36,40.36,0,0,0,9.55-19.19.51.51,0,0,1,.9-.24A4,4,0,0,1,110,68.6a.45.45,0,0,0,.16.24A22.9,22.9,0,0,0,115,72.29l.07,0a12.54,12.54,0,0,0,17.14-13.26l-.12-.27,0,0,.1.14c.48-.6,0-1-.32-1.39v.1a.41.41,0,0,0,0-.19c-.49-1.17-1-2.34-1.48-3.51l.07,0-.48-.48,0,0-.45-.47a.08.08,0,0,0,0,0c-.78-.67-1.52-1.4-2.35-2-5.28-3.86-11.25-3.08-16.91,2.15a.71.71,0,0,0-.1.14l-.72,1.25a.51.51,0,0,1-.94-.14,45.14,45.14,0,0,0-8.23-18l-.77-.06-8.73,8.57c0,.18-.07.37-.11.56a37,37,0,0,1-.39,31.46c-.36.79-.66,1.51,0,2.28,2.16,2.08,4.31,4.18,6.5,6.24.51.48.87,1.18,1.59,1.39A.53.53,0,0,0,98.78,86.57Zm33-28.77v0Zm.18.91a.93.93,0,0,0-.05-.1A.93.93,0,0,1,132,58.71Zm-.07-.16a.42.42,0,0,1,0-.1A.42.42,0,0,0,131.92,58.55Zm0-.16,0-.12Zm0-.16a1,1,0,0,1,0-.17A1,1,0,0,0,131.84,58.23Zm0-.22a.49.49,0,0,0,0-.12A.49.49,0,0,1,131.82,58Z" style="fill: #fff"/>
        <path d="M149.88,114.17a.74.74,0,0,0,0-.26c-.33-1-.65-2-1-3l0,0c-.13-.16-.26-.33-.38-.5a8.53,8.53,0,0,0-5.45-3.64c-4.63-.89-9.29-.32-13.93-.32-1.36,0-2.11,2-1.07,2.65,1.61,1,1.36,2.32,1.37,3.71,0,2.56,0,5.12,0,7.68a3.37,3.37,0,0,1-.81,2.58.66.66,0,0,1-.2.14c-.72.39-1.46.71-1.25,1.85.25,1.4,1.32,1.11,2.2,1.26h.12c3.87,0,7.76-.26,11.61,0,4.86.29,8.77-4.77,8.68-8.66C149.8,116.48,149.86,115.32,149.88,114.17Zm-8.76,7.24A2.52,2.52,0,0,1,138,123c-1.49-.21-1.32-1.39-1.33-2.4,0-2.78,0-5.57,0-8.36,0-.94-.27-2.15,1.18-2.25,1.25-.09,2.39,0,3,1.58C142.1,115,142.54,118.21,141.12,121.41Z" style="fill: #fff"/>
        <path d="M94.61,114.64c-.1-.06-.29-.18-.4-.23l-4.62-1.72c-.77-.29-2.15-.31-1.6-1.54s2-.91,3-.46a9,9,0,0,1,1.9,1.51l0,0,.5.47.26.25a.76.76,0,0,0,.37.21c1.79.42,3.08.11,3-2.18a1.13,1.13,0,0,0,0-.18c-.18-.71-.36-1.41-.53-2.12h0l-.36-.47c-.57-.94-1.51-2-2.46-1.63-1.69.57-3.1-.21-4.62-.35a8.66,8.66,0,0,0-8.37,3.62c-1.62,2.27-1,4.61.4,6.78a1,1,0,0,0,.17.19l2.46,2A.92.92,0,0,0,84,119l-.19,0a1.07,1.07,0,0,0,.93.52v0h0l-.06-.11.06.11c1.37.39,3,.35,4,1.5a.82.82,0,0,1-.32,1.26,4.26,4.26,0,0,1-5.35-1.6,12.47,12.47,0,0,0-1.65-2.16.78.78,0,0,0-.64-.18c-1.69.25-1.35,1.74-1.5,2.93a.93.93,0,0,0,0,.29c.55,2.23,1.56,4.09,3.94,4.81a.75.75,0,0,0,.26,0c2.14,0,4.28-.06,6.42-.07,4.75,0,7.26-2.41,7.58-7.21A5,5,0,0,0,94.61,114.64ZM84.16,119,84,119Zm.36.17a.18.18,0,0,0-.07-.05A.18.18,0,0,1,84.52,119.18Zm-.1-.07-.09,0Zm-.11,0-.13,0Zm.25.15.06.07Z" style="fill: #fff"/>
        <path d="M69.9,123.29a.87.87,0,0,0-.43-.21,2.55,2.55,0,0,1-1.66-1.62c-1.92-4-3.86-8-5.79-11.94l0,0c-.12-.15-.24-.3-.35-.46l-.05-.06a23.67,23.67,0,0,0-2.31-2.38c-2.17-1.66-5.68-.53-5.76,2.07-.12,4.48-2.71,8-4.16,11.88-.46,1.25-1.12,2.56-2.72,2.57a.79.79,0,0,0-.75.49,5.16,5.16,0,0,0-.1,2.35,22.77,22.77,0,0,0,8.35,0,.83.83,0,0,0,.58-.78v-.71a.82.82,0,0,0-.49-.75c-.59-.25-1.31-.41-1.12-1.25.24-1.06,1.32-.72,2.1-.75a13.63,13.63,0,0,1,2.93.06c.54.1,1.89-.08,1.23,1.26a.66.66,0,0,1-.12.17c-.35.38-1,.53-1,1.21a3.06,3.06,0,0,0,.56,1.78c.3.1,7.54.61,10.82-.34a.77.77,0,0,0,.54-.56l-.06-1.2C70.15,123.53,70.15,123.53,69.9,123.29Zm-12.82-5.75H56a.8.8,0,0,1-.8-.85c.06-.93.29-1.89,1-2,.92-.09,1.28.77,1.62,1.72A.81.81,0,0,1,57.08,117.54Z" style="fill: #fff"/>
        <path d="M19.53,109l-.07-.25a3.82,3.82,0,0,0-4.1-2.46c-4,.12-8,0-12,0a4.16,4.16,0,0,0-2.59.58c-.89.66-1.15,1.57-.09,2.14,1.56.84,1.68,2.13,1.65,3.62,0,2.48,0,5,0,7.46A3.05,3.05,0,0,1,1,123.05c-1.3.79-1.23,1.78-.43,2.93l.67.35c2.47,0,4.93-.13,7.39-.08a5.75,5.75,0,0,0,3.21-.7.81.81,0,0,0,.4-.74,1.89,1.89,0,0,0-1.49-1.72.88.88,0,0,1-.49-.38c-.66-1.16-1.1-4.16-.57-4.74a.86.86,0,0,1,.76-.24,1.65,1.65,0,0,1,1.29,1.8c.16,1.2,1,1.29,1.83,1.31a.83.83,0,0,0,.64-.3c1.37-1.58,1.18-3.58,1.28-5.5a1,1,0,0,0,0-.17,8.6,8.6,0,0,0-.84-2.75.75.75,0,0,0-.48-.39l-.12,0a.9.9,0,0,0-1.32,0l0,0a.75.75,0,0,0-.54.55c-.22.86-.17,2-1.69,1.71-1.85-.52-.73-2-.82-3S10.5,110,11.29,110c1.88,0,3.74,0,4.86,2.34l.68.45C19.4,112.89,19.77,111.21,19.53,109Z" style="fill: #fff"/>
        <path d="M36.63,107c-1.54-1.14-9.14-.82-10.63.43-.74.61-.81,1.36-.07,1.88,1.91,1.33,1.79,3.25,1.75,5.21-.05,2.17,0,4.34,0,6.51,0,.85,0,1.67-.89,2.12-.61.46-1.18,1-.84,1.83.47,1.18,1.5,1.33,2.58,1.34,1.85,0,3.7-.11,5.54,0a4.93,4.93,0,0,0,2.73-.76.8.8,0,0,0,.41-.65,2.9,2.9,0,0,0-.8-2,.75.75,0,0,0-.41-.26c-.29-.07-.55-.19-.58-.56a46.75,46.75,0,0,1,0-11.09,1.72,1.72,0,0,1,1.27-1.41l.59-.74A2,2,0,0,0,36.63,107Z" style="fill: #fff"/>
        <path d="M108.6,106.73c-2.6.5-2.62,1.28-.92,3.42.32.41.78.88.78,1.33,0,3.82,1,7.72-.61,11.45a.8.8,0,0,1-.28.35,1.61,1.61,0,0,0-.66,1.9c.34,1,1.29,1,2.13,1.13h.14c1.78,0,3.56-.11,5.34-.06a5.62,5.62,0,0,0,3.31-.76.77.77,0,0,0,.35-.62,2.86,2.86,0,0,0-.79-2,.81.81,0,0,0-.42-.26c-1-.21-1-1.29-1-1.81-.06-3.18-.44-6.37.23-9.56.26-1.28.94-1.59,2-1.81.16-.64.19-.75.36-1.4C115.51,105.33,111.93,106.08,108.6,106.73Z" style="fill: #fff"/>
        <path d="M12.52,67.22l.25.55.06.1c5.86,7.74,15.87,6.67,20.91-.48a.51.51,0,0,1,.91.14c.34,1.12.37,2.24.6,3.3a.77.77,0,0,0,.07.16,3.41,3.41,0,0,1,.51,1.7.58.58,0,0,0,0,.18l2.72,6.3,0,0c1.49,2.08,2.68,4.38,4.58,6.15a.51.51,0,0,0,.71,0c2.43-2.45,4.83-4.93,7.32-7.3a2.33,2.33,0,0,0,.66-3c-3.95-10.47-3.68-20.77,1.47-30.8a.51.51,0,0,0,0-.53c-2-2.76-4.86-4.7-6.91-7.39-1.13-1.46-2-1.14-3.1.19A40.33,40.33,0,0,0,35,52.53a8.13,8.13,0,0,1-.4,2,.52.52,0,0,1-.88.06l-.66-.93A12.28,12.28,0,0,0,12.47,54.8c-2.34,4.06-2,8.2-.09,12.32Z" style="fill: #fff"/>
        <path d="M74.28,119.44a3.49,3.49,0,1,0,3.48,3.49A3.49,3.49,0,0,0,74.28,119.44Z" style="fill: #fff"/>
        <path d="M101.86,119.44a3.49,3.49,0,1,0,3.49,3.49A3.48,3.48,0,0,0,101.86,119.44Z" style="fill: #fff"/>
        <path d="M122.53,119.44a3.49,3.49,0,1,0,3.49,3.49A3.48,3.48,0,0,0,122.53,119.44Z" style="fill: #fff"/>
        <path d="M41.66,119.44a3.49,3.49,0,1,0,3.49,3.49A3.48,3.48,0,0,0,41.66,119.44Z" style="fill: #fff"/>
        <path d="M20.88,119.44a3.49,3.49,0,1,0,3.48,3.49A3.48,3.48,0,0,0,20.88,119.44Z" style="fill: #fff"/>
      </g>
    </g>
  </g>
</svg>
