<svg xmlns="http://www.w3.org/2000/svg" viewBox="0 0 361.23 40.55">
  <title>intesa</title>
  <g id="d65688c8-3876-4488-8e4c-7cd412c656b1" data-name="Livello 2">
    <g id="d2399277-8832-4bae-ab4b-1e0198730ef9" data-name="Layer 1">
      <g>
        <path d="M0,6.28a2.33,2.33,0,0,1,.56-.15h9.79a2.92,2.92,0,0,1,.51,0c.09,0,.17.11.25.16-.07.08-.14.2-.22.22l-1.17.21C8.61,7,8.2,7.31,8.11,8.44c-.12,1.4-.19,2.82-.18,4.23Q8,22,8.06,31.42a2.23,2.23,0,0,0,2.29,2.45,11.62,11.62,0,0,0,2.57-.07A2.66,2.66,0,0,0,15.19,31c.14-2.93.31-5.85.42-8.77.2-4.9.36-9.8.53-14.71,0-.48.06-1,.09-1.43,0-.28.06-.55.38-.65a.7.7,0,0,1,.8.21c1.35,1.45,2.72,2.87,4.06,4.34Q28,17.15,34.54,24.37a1.75,1.75,0,0,0,.56.46V24.4Q35,17.56,35,10.74c0-.61,0-1.22-.07-1.82-.06-1.51-.65-2.11-2.15-2.23a6.61,6.61,0,0,1-.88-.11c-.1,0-.19-.14-.28-.21.1-.07.19-.18.29-.19.68,0,1.35-.1,2-.1,1.91,0,3.82,0,5.73,0a.68.68,0,0,0,.65-.28.51.51,0,0,1,.42-.18A31.08,31.08,0,0,0,47.16,6c4.27,0,8.54,0,12.81,0a16.07,16.07,0,0,0,1.69-.15,2.34,2.34,0,0,1,1.14.08A4.76,4.76,0,0,0,64.31,6C69.18,6,74,6,78.9,5.94a13.78,13.78,0,0,0,1.81-.23c.45-.06.53,0,.49.46-.15,1.49-.29,3-.47,4.46,0,.25-.22.69-.33.68-.38,0-.27-.41-.33-.66s-.07-.48-.13-.71C79.66,8.8,79.18,8.31,78,8.23,76,8.09,73.94,8,71.89,8c-.49,0-1,0-1.48,0-.29,0-.44.12-.45.43,0,1.54-.11,3.08-.1,4.62s.07,3.25.1,4.87c0,.38.17.55.54.54l8.22-.24A1.78,1.78,0,0,0,80,17.61a1.36,1.36,0,0,1,.59-.29A55.29,55.29,0,0,1,80,23.61c-.43-.15-.4-.43-.45-.69a10.74,10.74,0,0,0-.26-1.28,1.47,1.47,0,0,0-1.4-1.11c-2.46-.11-4.91-.18-7.37-.26a.48.48,0,0,0-.56.53c0,.71,0,1.42,0,2.12,0,2.27.06,4.53.08,6.79A2.39,2.39,0,0,0,71.2,31.8a6,6,0,0,0,3,.86c1.56.05,3.11.05,4.66,0a2.92,2.92,0,0,0,3-2.39c.21-.81.31-1.64.46-2.46,0-.07,0-.15,0-.2s.28-.38.43-.57a2.13,2.13,0,0,1,.37.55c.15.49.22,1,.36,1.48a5.77,5.77,0,0,0,5,4.26,8.15,8.15,0,0,0,4.5-.41,4.19,4.19,0,0,0,2.81-4.12,5.14,5.14,0,0,0-1.3-3.11,17,17,0,0,0-3.39-2.88,39.36,39.36,0,0,1-5.35-4A10.66,10.66,0,0,1,83,15.07a7.14,7.14,0,0,1-.33-4.21,6.17,6.17,0,0,1,3.15-4,11.76,11.76,0,0,1,5.92-1.54,29.78,29.78,0,0,1,6.11.51c.88.19.89.2.89,1.09,0,1.53,0,3.05,0,4.58,0,.26,0,.49-.37.52s-.36-.24-.4-.48A5.39,5.39,0,0,0,93,7.12a8.34,8.34,0,0,0-3.44.25,4.64,4.64,0,0,0-1,.43A3.53,3.53,0,0,0,87.43,13a9.87,9.87,0,0,0,2.12,2.06c1.76,1.31,3.61,2.52,5.4,3.81a28.46,28.46,0,0,1,2.25,1.86,9.93,9.93,0,0,1,2.78,4.2s0,.06.11.13c.16-.19.32-.36.46-.54l12-16.2c.44-.59.89-1.17,1.34-1.75a2.79,2.79,0,0,1,.4-.44c.49-.45,1-.3,1.1.35.14,1,.26,2.05.34,3.08.21,2.62.39,5.24.58,7.86.15,2.11.27,4.23.46,6.34.22,2.6.48,5.2.75,7.8a5.89,5.89,0,0,0,.33,1.23,1.9,1.9,0,0,0,2,1.5,4.23,4.23,0,0,1,.79.08c.13,0,.23.17.35.26-.11.11-.19.27-.31.32a1.88,1.88,0,0,1-.7.16L111,35c-.13,0-.26-.16-.4-.24.12-.12.22-.28.37-.33.68-.22.77-.26.78-1,0-1.19,0-2.37-.07-3.56,0-1.36-.15-2.71-.21-4.07,0-.3-.12-.42-.43-.42H104a.87.87,0,0,0-.79.41c-1.81,2.66-3.63,5.33-5.43,8-.3.45-.18.66.36.72.26,0,.54,0,.8.07a3.48,3.48,0,0,1,.59.21l0,.15a4.21,4.21,0,0,1-.6.11c-3.84.06-7.69.14-11.53.15A12,12,0,0,1,83,34.24a6.49,6.49,0,0,1-.64-.33s-.09,0-.1.06c-.28.75-.91.8-1.57.79l-8-.07-9.8-.09a2.54,2.54,0,0,1-.55,0,1.47,1.47,0,0,1-.36-.21c.11-.08.21-.22.34-.24.41-.08.84-.12,1.26-.17a1.23,1.23,0,0,0,1.22-1,21.37,21.37,0,0,0,.32-3c.06-3.31.08-6.61.09-9.92,0-3.48,0-7,0-10.44a8.05,8.05,0,0,0-.15-1.47,1.88,1.88,0,0,0-2.16-1.41c0,.14,0,.29,0,.44l-.06,3.61a1.16,1.16,0,0,1-.08.45.34.34,0,0,1-.25.17.5.5,0,0,1-.28-.14A.48.48,0,0,1,62,11a2.52,2.52,0,0,0-2.47-2.57c-1.44-.2-2.9-.25-4.35-.36-.39,0-.8,0-1.19,0s-.47.09-.47.46c.05,6.09.08,12.18.13,18.28,0,1.49.07,3,.11,4.49a8.43,8.43,0,0,0,.1,1,1.62,1.62,0,0,0,1.6,1.53c.59.07,1.18.1,1.77.2.17,0,.33.18.49.28a1.6,1.6,0,0,1-.52.23c-2.44,0-4.89,0-7.33,0-1.59,0-3.17,0-4.75-.07a1.52,1.52,0,0,1-.42-.18c.13-.09.25-.24.39-.26a13.06,13.06,0,0,1,1.39-.13c1.51-.09,2.11-.62,2.2-2.13.1-1.87.17-3.75.19-5.63,0-5.87.08-11.74.12-17.61V8l-3.53.16c-.8.05-1.6.14-2.4.22a2.11,2.11,0,0,0-1.74,1.14c-.2.36-.36.76-.57,1.13-.08.14-.25.22-.38.33-.08-.14-.22-.28-.23-.42,0-.8-.08-1.61-.1-2.41,0-.48,0-1,0-1.43a1.9,1.9,0,0,0-2.23,1.64,15.85,15.85,0,0,0-.15,2c-.07,3-.12,5.93-.17,8.9q-.14,7.29-.28,14.59c0,.25,0,.51,0,.76s-.25.41-.51.28a2,2,0,0,1-.56-.44q-4.79-5.16-9.56-10.34c-2.72-2.95-5.43-5.92-8.14-8.88a2.6,2.6,0,0,1-.23-.4l-.19.11v.48c.12,5.09.22,10.18.36,15.27a8.8,8.8,0,0,0,.39,2,1.6,1.6,0,0,0,1.57,1.2l1.1.09c.24,0,.48.1.72.15l0,.16a1.91,1.91,0,0,1-.49.17c-1.33,0-2.66.08-4,.08q-8.49,0-17-.09a1.88,1.88,0,0,1-.54-.17A2,2,0,0,1,.66,34c.41-.11.84-.16,1.25-.23A1.19,1.19,0,0,0,3,32.62a22.85,22.85,0,0,0,.24-2.74q0-10.06,0-20.15c0-.4,0-.81-.06-1.22A1.7,1.7,0,0,0,1.57,6.77C1,6.68.52,6.56,0,6.45Zm110.9,8.57-.15,0-5.92,8.6a2.21,2.21,0,0,0,.36.09H111c.32,0,.41-.16.39-.46-.12-2.46-.23-4.93-.35-7.4A5.16,5.16,0,0,0,110.9,14.85Z" style="fill: #fff"/>
        <path d="M361.23,21.29c-.09.73-.12,1.47-.27,2.18C359.62,30,355.16,34.05,349.63,35a14.08,14.08,0,0,1-10.48-2A23.35,23.35,0,0,1,337,31.17l-.54-.46c-.12.8-.19,1.51-.34,2.21a6.48,6.48,0,0,1-.5,1.42.71.71,0,0,1-.55.28q-7.95,0-15.9-.08c-.9,0-1.81-.06-2.71-.1a1,1,0,0,1-.33-.17c.1-.08.2-.2.31-.22.4-.08.81-.14,1.22-.18a1.26,1.26,0,0,0,1.25-1.07,20.53,20.53,0,0,0,.34-3c0-5.31,0-10.63,0-15.95,0-1.69,0-3.39,0-5.08A1.82,1.82,0,0,0,318,7a13.45,13.45,0,0,0-1.41-.26,1.53,1.53,0,0,1-.38,0,2.2,2.2,0,0,1-.43-.27c.14-.06.28-.18.42-.18,1.13,0,2.26-.07,3.39-.08,2.43,0,4.86,0,7.29,0,.42,0,.85,0,1.27.08a1.62,1.62,0,0,1,.41.13v.11a1.49,1.49,0,0,1-.39.17l-1.43.16a1.64,1.64,0,0,0-1.66,1.81c0,1.05-.08,2.09-.08,3.14q0,7.23,0,14.46c0,1.3,0,2.61.15,3.9.14,1.54.79,2.25,2.32,2.36a21.92,21.92,0,0,0,5.83-.18,3,3,0,0,0,2.15-1.74,1.33,1.33,0,0,0,0-1.4,15.19,15.19,0,0,1-1.79-4c-1.26-4.88-.89-9.57,1.89-13.88a12.4,12.4,0,0,1,9.14-5.8A16.65,16.65,0,0,1,354,6.66a12.07,12.07,0,0,1,6.82,8.41c.18.66.3,1.32.44,2Zm-5.26,0h.11c-.18-1.63-.25-3.27-.55-4.87A12.45,12.45,0,0,0,352.37,10a8.09,8.09,0,0,0-7.18-2.67A7.22,7.22,0,0,0,339.35,12a12.94,12.94,0,0,0-1.07,4.55,24.45,24.45,0,0,0,.54,8,13,13,0,0,0,3.42,6.18,8.1,8.1,0,0,0,7.13,2.36,6.74,6.74,0,0,0,5.16-4.15A16.79,16.79,0,0,0,356,21.27Z" style="fill: #fff"/>
        <path d="M134.8,40.55c0-.17,0-.34,0-.5V.5c0-.16,0-.33,0-.5h40.47c0,.17,0,.34,0,.51V40c0,.17,0,.34,0,.51Zm20.26-2.26h17.39c.64,0,.64,0,.64-.62V2.89c0-.63,0-.63-.63-.63H137.69c-.63,0-.63,0-.63.62V37.66c0,.63,0,.63.66.63Z" style="fill: #fff"/>
        <path d="M225.53,24.89c.05-1.1.1-2.2.14-3.3L226.18,6a.71.71,0,0,1,1.07-.53,3,3,0,0,1,.63.56q4,4.35,8,8.72l8.87,9.76a3,3,0,0,1,.28.41l.13-.09c0-.15,0-.3,0-.44q0-7.74-.1-15.49a2.06,2.06,0,0,0-1.88-2.12c-.38,0-.76-.09-1.13-.17a1.53,1.53,0,0,1-.37-.21c.13-.09.25-.24.39-.25.83,0,1.66-.08,2.5-.08l16.92.14a20,20,0,0,1,5.7.68,6.07,6.07,0,0,1,4.45,4.65,8.56,8.56,0,0,1-.4,4.67,8,8,0,0,1-7.34,5.6c-1.07.05-2.15,0-3.22,0-.17,0-.34-.17-.5-.26a1.81,1.81,0,0,1,.5-.29c.36-.08.73-.08,1.09-.14a5.38,5.38,0,0,0,4.08-2.93,7.82,7.82,0,0,0,.22-7.11,5.31,5.31,0,0,0-5-3.25c-.68,0-1.35,0-2,.05-.39,0-.5.22-.5.58,0,1.78-.07,3.56-.07,5.34q0,8.36.09,16.71a10,10,0,0,0,.15,1.73c.28,1.37,1,1.82,2.41,1.52a3,3,0,0,0,1.59-.92c.65-.73,1.3-1.47,1.87-2.25Q273,19.32,281.27,8c.56-.76,1.15-1.51,1.74-2.25a1.35,1.35,0,0,1,.48-.38.58.58,0,0,1,.87.53q.25,3.17.5,6.33c.2,2.55.38,5.11.57,7.66.15,2.05.28,4.11.46,6.17.16,1.77.38,3.53.59,5.3a3.44,3.44,0,0,0,.28.93,2,2,0,0,0,1.76,1.38,5,5,0,0,1,1,.16c.1,0,.26.17.25.25a.39.39,0,0,1-.24.29,3.49,3.49,0,0,1-.79.1l-8.69-.07H280l-.54-.21a2.16,2.16,0,0,1,.45-.36,1,1,0,0,0,.73-1c-.11-2.51-.22-5-.31-7.53,0-.42-.21-.55-.58-.55l-7.34.16a.52.52,0,0,0-.36.22q-2.73,4-5.44,8c-.36.53-.27.71.38.83.33.06.67.08,1,.15.12,0,.21.16.32.25-.12.08-.24.21-.37.23a7.09,7.09,0,0,1-.8,0l-15.48-.08c-.55,0-1.1,0-1.65-.08-.12,0-.22-.12-.33-.19A1.11,1.11,0,0,1,250,34a7.72,7.72,0,0,1,.84-.12c1.18-.12,1.63-.55,1.72-1.73s.16-2.29.16-3.43c0-6.27,0-12.53,0-18.79,0-.48,0-1-.07-1.44a1.53,1.53,0,0,0-1.31-1.54,10.1,10.1,0,0,0-2-.14A1.36,1.36,0,0,0,248,8.2c-.08.8-.14,1.61-.16,2.41-.1,5.13-.18,10.26-.28,15.39q-.08,4.08-.17,8.14a1.39,1.39,0,0,1-.08.46.39.39,0,0,1-.67.18c-.33-.29-.65-.59-1-.91q-8.13-8.8-16.24-17.62l-1.34-1.42a2.47,2.47,0,0,0-.05.38l.21,12.89a1,1,0,0,0,.16.51q1.71,2,3.43,4a3.17,3.17,0,0,0,2.53,1.26c.07,0,.17,0,.21,0a.74.74,0,0,1,.23.33c0,.06-.17.21-.27.22-.69,0-1.38.08-2.07.08l-9.59,0h-.17c-.24,0-.4-.12-.36-.35a.5.5,0,0,1,.31-.35,4.69,4.69,0,0,1,.84-.09,4.18,4.18,0,0,0,.71-.09c.67-.18.83-.57.41-1.12-1.06-1.39-2.15-2.76-3.24-4.13-.87-1.09-1.74-2.16-2.63-3.22a.8.8,0,0,0-.51-.28c-2.67,0-5.35,0-8,0l-.25,0a4.1,4.1,0,0,0-.06.49q0,3.09,0,6.19a4.41,4.41,0,0,0,.11.88,1.92,1.92,0,0,0,2,1.51c.33,0,.65,0,1,.09.1,0,.19.13.28.2-.09.07-.17.18-.26.2a3.08,3.08,0,0,1-.68.07h-7.76a3.91,3.91,0,0,1-.76-.07,1.71,1.71,0,0,1-.4-.21l0-.16c.39-.06.78-.14,1.18-.18,1.4-.17,2-.71,2.13-2.12.17-1.79.3-3.58.44-5.37.19-2.63.38-5.27.56-7.9q.22-3.22.46-6.43c.15-2,.32-4.06.47-6.08,0-.3.12-.53.43-.6a.64.64,0,0,1,.74.25c2.2,2.69,4.42,5.37,6.6,8.08,2.94,3.64,5.85,7.3,8.78,11l.21.25Zm48.16-2.14.1.13a5.51,5.51,0,0,0,.57.06c1.79,0,3.59,0,5.38,0,.39,0,.51-.12.49-.51-.13-2.59-.24-5.19-.37-7.78a1.75,1.75,0,0,0-.09-.38l-.12,0ZM210.3,14.83c-.06.17-.08.2-.09.24q-.12,3.73-.26,7.49c0,.29.13.36.38.36h6.1a2.9,2.9,0,0,0,.46-.09Z" style="fill: #fff"/>
        <path d="M302.83,5.37a14.48,14.48,0,0,1,6.24,1.13,11.88,11.88,0,0,1,7,8.09A17.55,17.55,0,0,1,314,29.3,13,13,0,0,1,304.73,35a14.41,14.41,0,0,1-8-.87,12.54,12.54,0,0,1-6.95-7.07,16.43,16.43,0,0,1,1.3-15.94,12.33,12.33,0,0,1,9-5.62c.43-.06.86-.12,1.3-.15S302.36,5.37,302.83,5.37ZM311.46,21a20.35,20.35,0,0,0-.78-5.86,11.61,11.61,0,0,0-3.63-5.94,7.75,7.75,0,0,0-8.23-1.44,7.65,7.65,0,0,0-4.28,4.83,17.16,17.16,0,0,0-.9,5.28,21.48,21.48,0,0,0,.74,7,12.3,12.3,0,0,0,3.85,6.3,8,8,0,0,0,6.29,1.92c2.9-.36,4.68-2.13,5.73-4.74A20.23,20.23,0,0,0,311.46,21Z" style="fill: #fff"/>
        <path d="M203.08,9c0,.8,0,1.61,0,2.41,0,.25.09.59-.33.61s-.45-.3-.48-.57A4.58,4.58,0,0,0,201,8.9a5.38,5.38,0,0,0-3.87-1.77,11.73,11.73,0,0,0-2.9.18,3.63,3.63,0,0,0-3,2.84,3.51,3.51,0,0,0,1,3.43,30.54,30.54,0,0,0,2.7,2.24c1.84,1.36,3.75,2.63,5.57,4a16.77,16.77,0,0,1,2.08,2.05,7.6,7.6,0,0,1-2.74,12.3,10.67,10.67,0,0,1-4.22,1,47.24,47.24,0,0,1-4.91-.07,19.67,19.67,0,0,1-3.4-.85,1,1,0,0,1-.72-1c0-1.82.07-3.65.1-5.47a.77.77,0,0,1,.07-.37c.07-.11.2-.25.31-.26a.55.55,0,0,1,.36.23,1.23,1.23,0,0,1,.1.44,5.93,5.93,0,0,0,3.15,4.88,7.75,7.75,0,0,0,7,.12,3.87,3.87,0,0,0,2.46-3.56,5,5,0,0,0-1.3-3.5,16.14,16.14,0,0,0-2.26-2c-1.46-1.09-3-2.08-4.47-3.15a16.69,16.69,0,0,1-3.75-3.66,7.08,7.08,0,0,1-1.29-6,6.3,6.3,0,0,1,3.76-4.32,11.9,11.9,0,0,1,4.69-1.18A24.77,24.77,0,0,1,202.7,6c.31.07.42.19.41.5,0,.84,0,1.67,0,2.51Z" style="fill: #fff"/>
        <path d="M159.73,29.46c-1.08,0-1.15-.12-.92-1.12.07-.26-.05-.57,0-.84.09-.53-.1-1.08.16-1.62.12-.23-.07-.6-.05-.9a2,2,0,0,0-.09-1,3,3,0,0,1,0-1c0-.87,0-1.76-.07-2.63a12.85,12.85,0,0,0-.36-1.93,6.36,6.36,0,0,0-.38-1.14,2.77,2.77,0,0,0-2.75-1.56,4.44,4.44,0,0,0-2.15.72,3.53,3.53,0,0,0-1.36,2.06,8,8,0,0,0-.22,2.13c0,1.7,0,3.41,0,5.12,0,.91,0,1.83,0,2.74,0,.23.06.45,0,.68a1.34,1.34,0,0,1-.2.42c-.11-.11-.29-.21-.32-.34a6.11,6.11,0,0,1-.13-1.13c0-.9,0-1.81,0-2.72a.63.63,0,0,0,0-.24,9.35,9.35,0,0,1-.08-2.42,22.61,22.61,0,0,1,.21-3.86,3.63,3.63,0,0,1,.75-2,5.57,5.57,0,0,1,2.23-1.67,3.68,3.68,0,0,1,1.76-.29,3.72,3.72,0,0,1,1.54.31,3.48,3.48,0,0,1,1.88,2,11.08,11.08,0,0,1,.62,3.77c.09,2.5.07,5,.1,7.5C159.81,28.84,159.76,29.13,159.73,29.46Z" style="fill: #fff"/>
        <path d="M148.44,29.41a2.2,2.2,0,0,1-.61,0,.71.71,0,0,1-.35-.91,2.54,2.54,0,0,0,.11-1,3.27,3.27,0,0,1,.13-1.66c.11-.21-.09-.57-.06-.86a3.43,3.43,0,0,0-.09-1.15,9.23,9.23,0,0,1,0-1.58,10.36,10.36,0,0,0,0-2,12.47,12.47,0,0,0-.83-3.27,2.11,2.11,0,0,0-1-.94,3.64,3.64,0,0,0-3.83.38,3,3,0,0,0-1.34,2.07,33.17,33.17,0,0,0-.29,6.83c.08,1.28,0,2.57,0,3.86,0,.12-.1.23-.16.35-.1-.09-.28-.17-.3-.28a8.62,8.62,0,0,1-.16-1.33c0-.86,0-1.72,0-2.58a.72.72,0,0,0,0-.21c-.33-.78,0-1.59-.1-2.39a23.12,23.12,0,0,1,.2-3.9,3.68,3.68,0,0,1,.72-1.92A6.31,6.31,0,0,1,143,15.07a2.34,2.34,0,0,1,1-.14,3.75,3.75,0,0,1,3.57,1.79,6,6,0,0,1,.7,2.45,85.56,85.56,0,0,1,.25,9.74A3.91,3.91,0,0,1,148.44,29.41Z" style="fill: #fff"/>
        <path d="M170.77,29.58l-.38.06c-.42,0-.7-.31-.54-.81a12,12,0,0,0,.09-2.31,1.8,1.8,0,0,1,.1-.33c0-.07.07-.17.05-.23a1.57,1.57,0,0,1,0-1.13.43.43,0,0,0,0-.25c-.4-.74-.1-1.53-.16-2.29a21.83,21.83,0,0,0-.18-2.3,17.5,17.5,0,0,0-.69-2.65,2.78,2.78,0,0,0-2.42-1.47,4.52,4.52,0,0,0-2.06.49A3.75,3.75,0,0,0,163.05,18a6,6,0,0,0-.43,2.08,63.13,63.13,0,0,0-.1,7.78c0,.51,0,1,0,1.53,0,.1-.09.21-.14.32-.1-.08-.24-.15-.29-.25A1.56,1.56,0,0,1,162,29c0-.75-.07-1.49-.09-2.23,0-1.5-.1-3-.08-4.51a27.16,27.16,0,0,1,.24-3.38,4.1,4.1,0,0,1,2.13-2.94,5.82,5.82,0,0,1,2.13-.74,3.74,3.74,0,0,1,3.79,2.25,10.92,10.92,0,0,1,.61,3.56c.09,2.7.08,5.4.1,8.09A5.24,5.24,0,0,1,170.77,29.58Z" style="fill: #fff"/>
      </g>
    </g>
  </g>
</svg>
