<svg xmlns="http://www.w3.org/2000/svg" viewBox="0 0 332.21 80.48">
  <title>prontocare</title>
  <g id="049c8413-be2a-4337-9d0e-1956c4cd9caa" data-name="Livello 2">
    <g id="26d0b3c0-4400-4112-872c-3e183e91acbf" data-name="Layer 1">
      <g>
        <path d="M119.26,39.84c0-3.64,0-7.29,0-10.93,0-1,.31-1.84,1.35-1.84,3.69,0,7.39,0,11.06.31a4.69,4.69,0,0,1,4.4,4c1,4.43.49,7.63-3.48,9.29-.66.28-1.07.61-.48,1.57,1.67,2.73,3.18,5.56,4.63,8.41.26.5,0,1.28-.07,1.94-.63-.22-1.55-.25-1.84-.7-1.44-2.2-2.71-4.5-4-6.78a11.91,11.91,0,0,1-.54-1.07,3.77,3.77,0,0,0-4.09-2.6c-4.31.19-4.31,0-4.31,4.35v5c0,.9,0,1.81-1.25,1.87-1.43.07-1.34-1-1.35-1.9,0-3.65,0-7.29,0-10.94Zm7.47-10.39v0a23.07,23.07,0,0,0-3.63.07,1.78,1.78,0,0,0-1.19,1.25,64.27,64.27,0,0,0,0,6.94,1.76,1.76,0,0,0,1.22,1.19,58,58,0,0,0,7.1-.1c2.61-.23,3.78-2,3.65-5.11a4,4,0,0,0-4-4.26C128.81,29.4,127.77,29.45,126.73,29.45Z" style="fill: #fff"/>
        <path d="M293.85,40c0-3.64,0-7.29,0-10.94,0-1.24.53-2,1.65-2a107.3,107.3,0,0,1,11.21.47c2.65.32,4,2.23,4.26,4.9.09,1,0,2,.09,2.95a4.92,4.92,0,0,1-3.22,5c-1.58.67-1.35,1.37-.72,2.48,1.44,2.53,2.9,5,4.22,7.64.28.55,0,1.4-.06,2.11-.65-.3-1.58-.43-1.9-.94-1.61-2.56-3.13-5.19-4.53-7.87a3.81,3.81,0,0,0-3.93-2.36c-4.5.16-4.51.07-4.51,4.54,0,1.62,0,3.24,0,4.86,0,.87.1,1.84-1.23,1.84s-1.31-.86-1.31-1.79C293.85,47.24,293.85,43.6,293.85,40Zm2.54-5.81c0,1.1,0,2.2,0,3.29s.39,1.61,1.5,1.59c2.25-.06,4.51,0,6.75-.16,2.77-.22,3.91-1.84,3.82-5.08-.08-2.67-1.52-4.24-4.1-4.35-1.5-.07-3,0-4.51,0-3.45,0-3.45,0-3.45,3.51Z" style="fill: #fff"/>
        <path d="M177.41,46.5V29.92a7.46,7.46,0,0,1,.1-2.07c.12-.43.65-1,1-1a1.86,1.86,0,0,1,1.28.83A2.61,2.61,0,0,1,180,29c0,7.11,0,14.23,0,21.35a2.88,2.88,0,0,1-1,2.22c-1,.52-1.72-.41-2.24-1.32q-3.54-6.09-7.12-12.14c-1.19-2-2.44-4-3.91-6.35a18.92,18.92,0,0,0-.32,2.31c0,5,0,10.07,0,15.11a3.43,3.43,0,0,1-.21,1.68,1.8,1.8,0,0,1-1.34.73c-.33,0-.76-.55-1-.94a2.8,2.8,0,0,1-.08-1.2V29.1a1.75,1.75,0,0,1,0-.69c.26-.56.52-1.47.9-1.53a2,2,0,0,1,1.66.83c2.47,4,4.85,8,7.25,12.08,1.17,2,2.32,3.94,3.52,5.88C176.3,46,176.73,46.07,177.41,46.5Z" style="fill: #fff"/>
        <path d="M206.48,40c0-2.08,0-4.16,0-6.24-.08-4.06,3.84-7,7.05-7,2.42,0,4.78-.17,7,1.29a6.72,6.72,0,0,1,3.07,5.67c.17,4.09.15,8.2,0,12.3a6.82,6.82,0,0,1-6.58,6.7c-2.81.12-5.69.53-8.08-1.57a6,6,0,0,1-2.39-4.35c-.06-2.25,0-4.51,0-6.76Zm2.54-.25h0c0,1.5.13,3,0,4.5-.4,4,2.34,6.63,6.64,6.25,3.56-.31,5.41-2.15,5.45-5.73,0-3.06,0-6.12,0-9.18,0-4.8-2.19-6.82-7-6.55A5,5,0,0,0,209,34.2C209,36,209,37.89,209,39.74Z" style="fill: #fff"/>
        <path d="M158.32,39.93a77.45,77.45,0,0,1-.94,8.36c-.61,2.79-2.82,4.16-5.58,4.32a18.92,18.92,0,0,1-6-.26A6.13,6.13,0,0,1,141,46.13c-.08-4.22-.08-8.44,0-12.65a6.29,6.29,0,0,1,4.73-6.28,11.49,11.49,0,0,1,8.93.55c2.3,1.19,3.08,3.49,3.26,5.91.15,2.07,0,4.16,0,6.24Zm-14.89-.16h0c0,1.85,0,3.7,0,5.55a4.61,4.61,0,0,0,.3,1.86c1.29,2.73,4.62,4.09,8.14,3,2.44-.72,3.76-2.21,3.76-5.64q0-4.77,0-9.53c0-3.79-2.22-5.81-6-6.09a5.72,5.72,0,0,0-6.23,6C143.55,36.52,143.43,38.15,143.43,39.77Z" style="fill: #fff"/>
        <path d="M280.39,45.28H278.3c-2.82,0-3.36.48-3.81,3.38a14.79,14.79,0,0,1-.7,3.18c-.15.4-.91.56-1.39.83-.23-.46-.73-1-.65-1.37,1.14-5.75,2.36-11.49,3.55-17.23.27-1.29.52-2.59.8-3.89.51-2.43,2.16-3.65,4.75-3.52a4.87,4.87,0,0,1,4.3,4c1.15,5.87,2.43,11.72,3.62,17.59a10.71,10.71,0,0,1,.27,2.92c0,.53-.61,1-.94,1.51-.46-.4-1.19-.73-1.34-1.22a29.88,29.88,0,0,1-.86-4.41c-.16-1.26-.74-1.85-2-1.79S281.54,45.28,280.39,45.28Zm0-2.53h0a16.94,16.94,0,0,0,3.11-.06c.49-.1,1.27-.86,1.22-1.22-.37-2.49-.87-5-1.43-7.42A16.68,16.68,0,0,0,282,30.14a2.45,2.45,0,0,0-1.94-1,2.07,2.07,0,0,0-1.53,1.24c-.84,3.21-1.58,6.46-2.23,9.73-.48,2.41-.22,2.63,2.32,2.63Z" style="fill: #fff"/>
        <path d="M315.78,39.62c0-3.35,0-6.7,0-10.06,0-2,.45-2.55,2.38-2.57,4,0,8,0,12,0a3.35,3.35,0,0,1,1.49.37,1.26,1.26,0,0,1,.59.91,1.19,1.19,0,0,1-.66.87,8.65,8.65,0,0,1-2.21.29c-2.95,0-5.9,0-8.85,0-2.29,0-2.35.1-2.35,2.32,0,1.62,0,3.24,0,4.85,0,1.06.43,1.44,1.44,1.43q3.56,0,7.11,0c.89,0,2.11-.17,2.12,1.16s-1.22,1.31-2.2,1.32c-2.25,0-4.51,0-6.76,0-1.22,0-1.78.39-1.72,1.71.09,2.08.06,4.17,0,6.25,0,1.22.36,1.74,1.69,1.71,3.47-.08,6.94,0,10.41,0,.85,0,2-.15,2,1.06s-1.11,1.28-2.06,1.28c-4,0-8.1,0-12.14,0-1.64,0-2.27-.73-2.25-2.32,0-3.53,0-7.06,0-10.59Z" style="fill: #fff"/>
        <path d="M97.56,40c0-3.64,0-7.29,0-10.93,0-1.43.56-2,1.92-2,3.35,0,6.71-.08,10.06,0,2.45.08,4.2,2,5.1,4.24a7.84,7.84,0,0,1-1.26,8.07,5.81,5.81,0,0,1-3.61,1.94,58.77,58.77,0,0,1-8,.2c-1.43,0-1.93.51-1.88,1.94.09,2.48,0,5,0,7.46,0,.92-.08,1.82-1.32,1.81s-1-1-1-1.78C97.54,47.24,97.56,43.6,97.56,40Zm7.71-10.5h0c-1.22,0-2.43,0-3.65,0s-1.78.45-1.72,1.79c.1,2,.09,4.05,0,6.07,0,1.2.45,1.7,1.59,1.69,2.37,0,4.73-.09,7.1-.12,3.41,0,4.35-3,4-5.62-.36-2.77-1.45-3.62-4.22-3.79C107.35,29.4,106.31,29.45,105.27,29.45Z" style="fill: #fff"/>
        <path d="M250.37,39.8c0-1.62-.07-3.24,0-4.86.28-5.32,2.83-8.35,8.18-8.29a10.87,10.87,0,0,1,6.12,1.44,5.72,5.72,0,0,1,2.54,4.79c0,.53-.59,1.11-.91,1.67-.53-.42-1.39-.74-1.55-1.27C263.48,29,261,28,255.85,29.69a4,4,0,0,0-2.25,2.54A35.93,35.93,0,0,0,253.51,47a4,4,0,0,0,3.87,3.37c2.05.19,4.23.61,5.86-1.08a21.86,21.86,0,0,0,1.6-2.76,6.28,6.28,0,0,1,1.43-1.15c.34.48,1,1,1,1.43a5,5,0,0,1-3,5,11.7,11.7,0,0,1-10.49-.18c-2.28-1.19-3-3.65-3.31-6.08A51.94,51.94,0,0,1,250.37,39.8Z" style="fill: #fff"/>
        <path d="M60.16,53.52c.32,3.1-3.25,6.7-6.66,6.59a5.75,5.75,0,0,1-5.57-5.87,6.93,6.93,0,0,1,6.6-6.5C57.25,47.66,60.53,50.62,60.16,53.52Z" style="fill: #fff"/>
        <path d="M27.09,60.09a6.58,6.58,0,0,1-6.34-6.7,5.56,5.56,0,0,1,5.61-5.61,6.75,6.75,0,0,1,6.56,6.53A5.6,5.6,0,0,1,27.09,60.09Z" style="fill: #fff"/>
        <path d="M60.17,27a5.52,5.52,0,0,1-5.67,5.71,6.55,6.55,0,0,1-6.57-6.47,5.59,5.59,0,0,1,5.68-5.74A6.62,6.62,0,0,1,60.17,27Z" style="fill: #fff"/>
        <path d="M32.91,26.2a6.6,6.6,0,0,1-6.65,6.54,5.43,5.43,0,0,1-5.52-5.65,6.59,6.59,0,0,1,6.44-6.58A5.68,5.68,0,0,1,32.91,26.2Z" style="fill: #fff"/>
        <path d="M194.47,41.07c0,3.18,0,6.37,0,9.55,0,1,.13,2.1-1.39,2.05S192,51.39,192,50.59c0-6.31-.06-12.62,0-18.93,0-1.67-.58-2.3-2.23-2.22a30.86,30.86,0,0,1-4.51-.13c-.43,0-.81-.59-1.22-.92a7.36,7.36,0,0,1,1.12-1.29c.28-.2.78-.12,1.19-.12h13.19c1.21,0,2.43,0,3,1.38a17.07,17.07,0,0,1-3,1.09,16.65,16.65,0,0,1-3.46,0c-1.21,0-1.62.51-1.6,1.68C194.5,34.47,194.47,37.77,194.47,41.07Z" style="fill: #fff"/>
        <path d="M27,16.12a4.53,4.53,0,0,1-4.37-2.53c-.62-1.62,0-3.12,1.74-4.66a6.25,6.25,0,0,1,6.51-1,3.43,3.43,0,0,1,1.75,4.51A6.68,6.68,0,0,1,27,16.12Z" style="fill: #fff"/>
        <path d="M28.37,72.87c-2.37-.12-4.45-.87-5.52-3.16a3.61,3.61,0,0,1,2.38-5.2,6.77,6.77,0,0,1,6.35,1.81c1.06,1.29,1.83,2.73,1,4.44S30.11,72.8,28.37,72.87Z" style="fill: #fff"/>
        <path d="M53.66,16.18a6.79,6.79,0,0,1-5.22-3.24A3.51,3.51,0,0,1,50.28,7.8a6.63,6.63,0,0,1,7.18,2.11A3.58,3.58,0,0,1,57.93,14C57.08,15.51,55.61,16.13,53.66,16.18Z" style="fill: #fff"/>
        <path d="M16.09,53.61c0,2.51-.92,4-2.57,4.48a4.44,4.44,0,0,1-4.95-2.33,10.64,10.64,0,0,1-.73-5c.4-2.93,3.55-3.89,5.83-2A5.73,5.73,0,0,1,16.09,53.61Z" style="fill: #fff"/>
        <path d="M16.1,26.71c-.05,3-1.7,5.35-4.08,5.9a3.58,3.58,0,0,1-4-1.94,6.68,6.68,0,0,1,1.45-6.89c1.31-1.24,2.76-2,4.51-1.12A3.94,3.94,0,0,1,16.1,26.71Z" style="fill: #fff"/>
        <path d="M68.58,58.18c-2.84,0-4.44-2-4.13-4.81a6.4,6.4,0,0,1,3.15-5.09,3.27,3.27,0,0,1,4.44.89c1.49,2.09,1.11,4.29.09,6.4A4.39,4.39,0,0,1,68.58,58.18Z" style="fill: #fff"/>
        <path d="M64.33,27.27c.18-2.27.76-3.81,2.41-4.66,1.42-.73,3.08-.22,4.5,1.24a6.07,6.07,0,0,1,1.67,5.4c-.24,1.65-.93,3-2.74,3.37a4.11,4.11,0,0,1-4.35-1.84A15.54,15.54,0,0,1,64.33,27.27Z" style="fill: #fff"/>
        <path d="M54,64.34c2.26,0,3.74.94,4.22,2.61a4.36,4.36,0,0,1-2.27,5,6.16,6.16,0,0,1-6.27.28,3.12,3.12,0,0,1-1.21-4.6A6,6,0,0,1,54,64.34Z" style="fill: #fff"/>
        <path d="M71.24,66.11a5.48,5.48,0,0,1-5.41,5,2.51,2.51,0,0,1-2.45-2.8,6,6,0,0,1,4.86-5A2.6,2.6,0,0,1,71.24,66.11Z" style="fill: #fff"/>
        <path d="M66.26,9.31a5.58,5.58,0,0,1,5,4.94c.09,2.43-2.1,3.68-4.53,2.44a5.93,5.93,0,0,1-3.2-4.09A2.59,2.59,0,0,1,66.26,9.31Z" style="fill: #fff"/>
        <path d="M17.29,68.48c0,2.37-2.41,3.44-4.9,2.17a5.45,5.45,0,0,1-2.8-5.19,2.22,2.22,0,0,1,2.31-2.13C14.38,63.18,17.29,66,17.29,68.48Z" style="fill: #fff"/>
        <path d="M12,17.16a2.3,2.3,0,0,1-2.34-1.9c-.73-3,2.29-6.32,5.33-5.89a2.51,2.51,0,0,1,2.34,2.87C17.13,14.5,14.21,17.2,12,17.16Z" style="fill: #fff"/>
        <path d="M80.43,29.8a2.47,2.47,0,0,1,0,.86c-.36.83-.78,1.64-1.18,2.45-.66-.65-1.69-1.21-1.91-2A14.21,14.21,0,0,1,77,26.56c0-.5.89-1.22,1.47-1.33.39-.07,1.18.66,1.38,1.19a23.31,23.31,0,0,1,.78,3.35Z" style="fill: #fff"/>
        <path d="M80.5,51.38a17.31,17.31,0,0,1-.74,2.89,1.87,1.87,0,0,1-1.39,1A1.84,1.84,0,0,1,77,54.2,6.37,6.37,0,0,1,78.14,48c.88-1.07,1.69-.84,2.08.49a4,4,0,0,1,.12.68C80.39,49.75,80.43,50.33,80.5,51.38Z" style="fill: #fff"/>
        <path d="M51,80.46A17.11,17.11,0,0,1,48.59,80a1.73,1.73,0,0,1-1.06-.91c-.09-.28.29-.88.62-1.11A6.42,6.42,0,0,1,54,76.87a2.36,2.36,0,0,1,1.4,1.48c.08.37-.69,1.18-1.23,1.39A21.49,21.49,0,0,1,51,80.46Z" style="fill: #fff"/>
        <path d="M4.06,28.74c-.39,1-.84,2.38-1.46,3.66A1.52,1.52,0,0,1,1.32,33,1.42,1.42,0,0,1,.44,32a46.51,46.51,0,0,1,.4-5.78c.05-.42.91-1,1.39-1s1,.61,1.3,1.1A10.31,10.31,0,0,1,4.06,28.74Z" style="fill: #fff"/>
        <path d="M0,50.89a13.74,13.74,0,0,1,.37-2.17c.18-.49.6-1.27.9-1.26a2,2,0,0,1,1.49.87,6.45,6.45,0,0,1,.81,5.79c-.2.5-.82,1.14-1.28,1.16a1.83,1.83,0,0,1-1.42-1A25.17,25.17,0,0,1,0,50.89Z" style="fill: #fff"/>
        <path d="M51.8,3.83a27.61,27.61,0,0,1-3.37-1.2,2,2,0,0,1-.9-1.48c0-.29.79-.88,1.25-.9A18.35,18.35,0,0,1,53.41.4c.78.16,1.4,1.13,2.08,1.73-.74.53-1.46,1.09-2.25,1.56C53,3.85,52.57,3.77,51.8,3.83Z" style="fill: #fff"/>
        <path d="M29.88,80.48a25.8,25.8,0,0,1-3.39-.8,1.91,1.91,0,0,1-1.11-1.32A2.12,2.12,0,0,1,26.46,77c1.6-.86,5.06-.14,6.33,1.2.73.78.77,1.46-.36,1.82A25.27,25.27,0,0,1,29.88,80.48Z" style="fill: #fff"/>
        <path d="M29.43,0a9.66,9.66,0,0,1,2.16.17,9.63,9.63,0,0,1,1.72.94c-.4.57-.71,1.52-1.22,1.65a25.45,25.45,0,0,1-5.21.73,2,2,0,0,1-1.47-1.33c0-.51.68-1.33,1.25-1.57A12.24,12.24,0,0,1,29.43,0Z" style="fill: #fff"/>
        <path d="M236.84,43.79a21.46,21.46,0,0,1-3.11,0,1.58,1.58,0,0,1-1-1,1.35,1.35,0,0,1,.84-1.05c2.13-.1,4.27-.1,6.4,0,.29,0,.78.74.77,1.13a1.4,1.4,0,0,1-.93,1,22,22,0,0,1-2.93,0Z" style="fill: #fff"/>
      </g>
    </g>
  </g>
</svg>
